<svg width="789" height="517" viewBox="0 0 789 517" fill="none" xmlns="http://www.w3.org/2000/svg">
<rect x="15" y="12" width="730" height="458" rx="47" fill="#E91818"/>
<g filter="url(#filter0_bd_204_4)">
<rect x="15" y="12" width="730" height="457.861" rx="43.9406" fill="url(#paint0_linear_204_4)"/>
<rect x="15.8788" y="12.8788" width="728.242" height="456.104" rx="43.0618" stroke="url(#paint1_linear_204_4)" stroke-width="1.75762"/>
</g>
<path d="M603.057 69.8677L595.87 112.047H607.365L614.559 69.8677H603.057Z" fill="white"/>
<path d="M586.231 69.9149L574.972 98.6802L573.772 94.3369C571.551 89.1036 565.248 81.5878 557.847 76.8512L568.142 112.027L580.306 112.006L598.41 69.9061L586.231 69.9149Z" fill="white"/>
<path d="M569.408 72.9334C568.74 70.3641 566.803 69.5983 564.399 69.5067H546.577L546.429 70.3463C560.298 73.711 569.476 81.8182 573.284 91.5662L569.408 72.9334Z" fill="white"/>
<path d="M637.857 77.9538C641.618 77.8946 644.344 78.7166 646.461 79.5681L647.499 80.0559L649.054 70.914C646.777 70.0595 643.209 69.1429 638.756 69.1429C627.397 69.1429 619.39 74.8641 619.328 83.0629C619.254 89.121 625.031 92.5035 629.395 94.5228C633.875 96.5925 635.377 97.9082 635.356 99.7561C635.32 102.58 631.784 103.875 628.482 103.875C623.878 103.875 621.433 103.239 617.657 101.666L616.176 100.992L614.559 110.433C617.249 111.612 622.214 112.626 627.367 112.68C639.451 112.68 647.304 107.027 647.387 98.266C647.437 93.4732 644.371 89.8159 637.727 86.8149C633.706 84.8575 631.246 83.5566 631.27 81.5816C631.27 79.8283 633.357 77.9538 637.857 77.9538Z" fill="white"/>
<path d="M678.556 69.9144H669.674C666.915 69.9144 664.863 70.6654 663.651 73.4151L646.583 112.07H658.655C658.655 112.07 660.624 106.873 661.07 105.734C662.392 105.734 674.121 105.752 675.791 105.752C676.134 107.224 677.193 112.07 677.193 112.07H687.857L678.556 69.9144ZM664.379 97.1008C665.325 94.6793 668.958 85.3127 668.958 85.3127C668.896 85.428 669.896 82.8734 670.49 81.2857L671.265 84.9224C671.265 84.9224 673.467 94.9928 673.929 97.1008H664.379Z" fill="white"/>
<path d="M95.0206 290.286C94.5206 290.286 94.0873 290.102 93.7206 289.736C93.354 289.369 93.1706 288.902 93.1706 288.336V280.936H75.2706C74.7373 280.936 74.2873 280.769 73.9206 280.436C73.5873 280.069 73.3873 279.652 73.3206 279.186C73.2873 278.719 73.4206 278.286 73.7206 277.886L93.5206 251.986C93.6873 251.752 93.8873 251.569 94.1206 251.436C94.3873 251.269 94.7206 251.186 95.1206 251.186C95.654 251.186 96.0873 251.386 96.4206 251.786C96.7873 252.152 96.9706 252.619 96.9706 253.186V277.436H100.921C101.454 277.436 101.904 277.569 102.271 277.836C102.637 278.102 102.821 278.569 102.821 279.236C102.821 279.669 102.637 280.069 102.271 280.436C101.904 280.769 101.454 280.936 100.921 280.936H96.9706V288.336C96.9706 288.902 96.7873 289.369 96.4206 289.736C96.054 290.102 95.5873 290.286 95.0206 290.286ZM77.3706 278.936L76.6706 277.436H93.1706V255.986L94.1706 257.036L77.3706 278.936ZM118.403 290.286C116.003 290.286 113.853 289.736 111.953 288.636C110.053 287.502 108.537 285.986 107.403 284.086C106.303 282.152 105.753 279.986 105.753 277.586C105.753 277.019 105.937 276.552 106.303 276.186C106.67 275.819 107.12 275.636 107.653 275.636C108.22 275.636 108.687 275.819 109.053 276.186C109.453 276.552 109.653 277.019 109.653 277.586C109.653 279.252 110.037 280.752 110.803 282.086C111.57 283.419 112.603 284.469 113.903 285.236C115.237 286.002 116.737 286.386 118.403 286.386C120.07 286.386 121.57 286.002 122.903 285.236C124.237 284.469 125.287 283.419 126.053 282.086C126.82 280.752 127.203 279.252 127.203 277.586C127.203 275.919 126.82 274.419 126.053 273.086C125.287 271.752 124.237 270.702 122.903 269.936C121.57 269.169 120.07 268.786 118.403 268.786H109.653C109.087 268.786 108.62 268.602 108.253 268.236C107.887 267.836 107.703 267.369 107.703 266.836V253.136C107.703 252.602 107.887 252.152 108.253 251.786C108.62 251.386 109.087 251.186 109.653 251.186H127.203C127.737 251.186 128.187 251.386 128.553 251.786C128.953 252.152 129.153 252.602 129.153 253.136C129.153 253.669 128.97 254.136 128.603 254.536C128.237 254.902 127.77 255.086 127.203 255.086H111.553V264.886H118.403C120.837 264.886 123.003 265.452 124.903 266.586C126.803 267.686 128.303 269.202 129.403 271.136C130.537 273.036 131.103 275.186 131.103 277.586C131.103 279.986 130.537 282.152 129.403 284.086C128.303 285.986 126.803 287.502 124.903 288.636C123.003 289.736 120.837 290.286 118.403 290.286ZM149.751 290.286C147.351 290.286 145.201 289.736 143.301 288.636C141.401 287.502 139.884 285.986 138.751 284.086C137.651 282.152 137.101 279.986 137.101 277.586C137.101 277.019 137.284 276.552 137.651 276.186C138.018 275.819 138.468 275.636 139.001 275.636C139.568 275.636 140.034 275.819 140.401 276.186C140.801 276.552 141.001 277.019 141.001 277.586C141.001 279.252 141.384 280.752 142.151 282.086C142.918 283.419 143.951 284.469 145.251 285.236C146.584 286.002 148.084 286.386 149.751 286.386C151.418 286.386 152.918 286.002 154.251 285.236C155.584 284.469 156.634 283.419 157.401 282.086C158.168 280.752 158.551 279.252 158.551 277.586C158.551 275.919 158.168 274.419 157.401 273.086C156.634 271.752 155.584 270.702 154.251 269.936C152.918 269.169 151.418 268.786 149.751 268.786H141.001C140.434 268.786 139.968 268.602 139.601 268.236C139.234 267.836 139.051 267.369 139.051 266.836V253.136C139.051 252.602 139.234 252.152 139.601 251.786C139.968 251.386 140.434 251.186 141.001 251.186H158.551C159.084 251.186 159.534 251.386 159.901 251.786C160.301 252.152 160.501 252.602 160.501 253.136C160.501 253.669 160.318 254.136 159.951 254.536C159.584 254.902 159.118 255.086 158.551 255.086H142.901V264.886H149.751C152.184 264.886 154.351 265.452 156.251 266.586C158.151 267.686 159.651 269.202 160.751 271.136C161.884 273.036 162.451 275.186 162.451 277.586C162.451 279.986 161.884 282.152 160.751 284.086C159.651 285.986 158.151 287.502 156.251 288.636C154.351 289.736 152.184 290.286 149.751 290.286ZM180.199 290.286C177.932 290.286 175.915 289.786 174.149 288.786C172.382 287.752 170.982 286.352 169.949 284.586C168.949 282.819 168.449 280.802 168.449 278.536C168.449 276.302 168.949 274.302 169.949 272.536C170.982 270.736 172.382 269.336 174.149 268.336C175.915 267.302 177.932 266.786 180.199 266.786C182.432 266.786 184.432 267.302 186.199 268.336C187.965 269.336 189.349 270.736 190.349 272.536C191.382 274.302 191.899 276.302 191.899 278.536C191.899 280.802 191.382 282.819 190.349 284.586C189.349 286.352 187.965 287.752 186.199 288.786C184.432 289.786 182.432 290.286 180.199 290.286ZM180.149 286.686C181.682 286.686 183.049 286.336 184.249 285.636C185.482 284.936 186.449 283.969 187.149 282.736C187.849 281.502 188.199 280.102 188.199 278.536C188.199 276.969 187.849 275.569 187.149 274.336C186.449 273.102 185.482 272.136 184.249 271.436C183.049 270.702 181.682 270.336 180.149 270.336C178.615 270.336 177.249 270.702 176.049 271.436C174.849 272.136 173.899 273.102 173.199 274.336C172.499 275.569 172.149 276.969 172.149 278.536C172.149 280.102 172.499 281.502 173.199 282.736C173.899 283.969 174.849 284.936 176.049 285.636C177.249 286.336 178.615 286.686 180.149 286.686ZM169.899 272.586L182.249 252.286C182.682 251.586 183.265 251.236 183.999 251.236C184.499 251.236 184.932 251.386 185.299 251.686C185.665 251.986 185.882 252.369 185.949 252.836C186.049 253.302 185.965 253.752 185.699 254.186L177.449 267.636L169.899 272.586ZM223.802 290.536C221.469 290.536 219.369 290.036 217.502 289.036C215.669 288.002 214.219 286.602 213.152 284.836C212.086 283.069 211.552 281.069 211.552 278.836C211.552 278.269 211.719 277.786 212.052 277.386C212.386 276.986 212.836 276.786 213.402 276.786C213.969 276.786 214.419 276.986 214.752 277.386C215.086 277.786 215.252 278.269 215.252 278.836C215.252 280.369 215.619 281.752 216.352 282.986C217.086 284.186 218.086 285.152 219.352 285.886C220.652 286.586 222.086 286.936 223.652 286.936C226.252 286.936 228.286 286.219 229.752 284.786C231.219 283.319 231.952 281.436 231.952 279.136C231.952 277.502 231.602 276.086 230.902 274.886C230.202 273.652 229.252 272.702 228.052 272.036C226.852 271.336 225.502 270.986 224.002 270.986C223.469 270.986 223.019 270.802 222.652 270.436C222.286 270.069 222.102 269.602 222.102 269.036C222.102 268.502 222.286 268.052 222.652 267.686C223.019 267.319 223.469 267.136 224.002 267.136C225.169 267.136 226.236 266.852 227.202 266.286C228.202 265.686 229.002 264.902 229.602 263.936C230.202 262.969 230.502 261.902 230.502 260.736C230.502 258.969 229.902 257.502 228.702 256.336C227.502 255.136 225.902 254.536 223.902 254.536C222.502 254.536 221.252 254.819 220.152 255.386C219.052 255.919 218.186 256.652 217.552 257.586C216.952 258.486 216.652 259.519 216.652 260.686C216.652 261.252 216.469 261.736 216.102 262.136C215.769 262.502 215.336 262.686 214.802 262.686C214.236 262.686 213.786 262.502 213.452 262.136C213.119 261.736 212.952 261.269 212.952 260.736C212.952 258.902 213.419 257.252 214.352 255.786C215.319 254.286 216.619 253.119 218.252 252.286C219.886 251.419 221.769 250.986 223.902 250.986C225.836 250.986 227.569 251.419 229.102 252.286C230.669 253.119 231.902 254.286 232.802 255.786C233.736 257.252 234.202 258.902 234.202 260.736C234.202 261.869 233.919 262.969 233.352 264.036C232.819 265.102 232.102 266.069 231.202 266.936C230.302 267.769 229.319 268.419 228.252 268.886C229.952 269.386 231.369 270.152 232.502 271.186C233.636 272.219 234.469 273.436 235.002 274.836C235.536 276.202 235.802 277.636 235.802 279.136C235.802 281.336 235.269 283.302 234.202 285.036C233.169 286.736 231.736 288.086 229.902 289.086C228.069 290.052 226.036 290.536 223.802 290.536ZM253.05 290.536C250.717 290.536 248.617 290.036 246.75 289.036C244.917 288.002 243.467 286.602 242.4 284.836C241.334 283.069 240.8 281.069 240.8 278.836C240.8 278.269 240.967 277.786 241.3 277.386C241.634 276.986 242.084 276.786 242.65 276.786C243.217 276.786 243.667 276.986 244 277.386C244.334 277.786 244.5 278.269 244.5 278.836C244.5 280.369 244.867 281.752 245.6 282.986C246.334 284.186 247.334 285.152 248.6 285.886C249.9 286.586 251.334 286.936 252.9 286.936C255.5 286.936 257.534 286.219 259 284.786C260.467 283.319 261.2 281.436 261.2 279.136C261.2 277.502 260.85 276.086 260.15 274.886C259.45 273.652 258.5 272.702 257.3 272.036C256.1 271.336 254.75 270.986 253.25 270.986C252.717 270.986 252.267 270.802 251.9 270.436C251.534 270.069 251.35 269.602 251.35 269.036C251.35 268.502 251.534 268.052 251.9 267.686C252.267 267.319 252.717 267.136 253.25 267.136C254.417 267.136 255.484 266.852 256.45 266.286C257.45 265.686 258.25 264.902 258.85 263.936C259.45 262.969 259.75 261.902 259.75 260.736C259.75 258.969 259.15 257.502 257.95 256.336C256.75 255.136 255.15 254.536 253.15 254.536C251.75 254.536 250.5 254.819 249.4 255.386C248.3 255.919 247.434 256.652 246.8 257.586C246.2 258.486 245.9 259.519 245.9 260.686C245.9 261.252 245.717 261.736 245.35 262.136C245.017 262.502 244.584 262.686 244.05 262.686C243.484 262.686 243.034 262.502 242.7 262.136C242.367 261.736 242.2 261.269 242.2 260.736C242.2 258.902 242.667 257.252 243.6 255.786C244.567 254.286 245.867 253.119 247.5 252.286C249.134 251.419 251.017 250.986 253.15 250.986C255.084 250.986 256.817 251.419 258.35 252.286C259.917 253.119 261.15 254.286 262.05 255.786C262.984 257.252 263.45 258.902 263.45 260.736C263.45 261.869 263.167 262.969 262.6 264.036C262.067 265.102 261.35 266.069 260.45 266.936C259.55 267.769 258.567 268.419 257.5 268.886C259.2 269.386 260.617 270.152 261.75 271.186C262.884 272.219 263.717 273.436 264.25 274.836C264.784 276.202 265.05 277.636 265.05 279.136C265.05 281.336 264.517 283.302 263.45 285.036C262.417 286.736 260.984 288.086 259.15 289.086C257.317 290.052 255.284 290.536 253.05 290.536ZM272.798 290.286C272.265 290.286 271.798 290.102 271.398 289.736C271.032 289.369 270.848 288.902 270.848 288.336C270.848 287.836 271.032 287.386 271.398 286.986L286.548 269.086C287.382 268.186 288.048 267.186 288.548 266.086C289.048 264.952 289.298 263.902 289.298 262.936C289.298 261.369 288.982 259.986 288.348 258.786C287.748 257.586 286.882 256.652 285.748 255.986C284.648 255.286 283.382 254.936 281.948 254.936C280.548 254.936 279.265 255.302 278.098 256.036C276.965 256.736 276.065 257.686 275.398 258.886C274.765 260.086 274.448 261.436 274.448 262.936C274.448 263.469 274.265 263.919 273.898 264.286C273.532 264.652 273.065 264.836 272.498 264.836C271.965 264.836 271.498 264.652 271.098 264.286C270.732 263.919 270.548 263.469 270.548 262.936C270.548 260.702 271.048 258.702 272.048 256.936C273.048 255.169 274.398 253.769 276.098 252.736C277.832 251.702 279.782 251.186 281.948 251.186C284.115 251.186 286.032 251.686 287.698 252.686C289.398 253.686 290.715 255.069 291.648 256.836C292.615 258.602 293.098 260.636 293.098 262.936C293.098 264.036 292.915 265.086 292.548 266.086C292.215 267.086 291.748 268.052 291.148 268.986C290.548 269.886 289.898 270.736 289.198 271.536L276.398 286.386H292.048C292.582 286.386 293.032 286.586 293.398 286.986C293.798 287.386 293.998 287.836 293.998 288.336C293.998 288.902 293.798 289.369 293.398 289.736C293.032 290.102 292.582 290.286 292.048 290.286H272.798ZM312.251 290.286C309.851 290.286 307.701 289.736 305.801 288.636C303.901 287.502 302.384 285.986 301.251 284.086C300.151 282.152 299.601 279.986 299.601 277.586C299.601 277.019 299.784 276.552 300.151 276.186C300.518 275.819 300.968 275.636 301.501 275.636C302.068 275.636 302.534 275.819 302.901 276.186C303.301 276.552 303.501 277.019 303.501 277.586C303.501 279.252 303.884 280.752 304.651 282.086C305.418 283.419 306.451 284.469 307.751 285.236C309.084 286.002 310.584 286.386 312.251 286.386C313.918 286.386 315.418 286.002 316.751 285.236C318.084 284.469 319.134 283.419 319.901 282.086C320.668 280.752 321.051 279.252 321.051 277.586C321.051 275.919 320.668 274.419 319.901 273.086C319.134 271.752 318.084 270.702 316.751 269.936C315.418 269.169 313.918 268.786 312.251 268.786H303.501C302.934 268.786 302.468 268.602 302.101 268.236C301.734 267.836 301.551 267.369 301.551 266.836V253.136C301.551 252.602 301.734 252.152 302.101 251.786C302.468 251.386 302.934 251.186 303.501 251.186H321.051C321.584 251.186 322.034 251.386 322.401 251.786C322.801 252.152 323.001 252.602 323.001 253.136C323.001 253.669 322.818 254.136 322.451 254.536C322.084 254.902 321.618 255.086 321.051 255.086H305.401V264.886H312.251C314.684 264.886 316.851 265.452 318.751 266.586C320.651 267.686 322.151 269.202 323.251 271.136C324.384 273.036 324.951 275.186 324.951 277.586C324.951 279.986 324.384 282.152 323.251 284.086C322.151 285.986 320.651 287.502 318.751 288.636C316.851 289.736 314.684 290.286 312.251 290.286ZM357.197 290.486C354.964 290.486 352.964 289.969 351.197 288.936C349.431 287.869 348.031 286.436 346.997 284.636C345.997 282.836 345.497 280.802 345.497 278.536C345.497 276.336 345.997 274.369 346.997 272.636C348.031 270.902 349.431 269.536 351.197 268.536C352.964 267.536 354.964 267.036 357.197 267.036C359.431 267.036 361.431 267.536 363.197 268.536C364.964 269.536 366.347 270.902 367.347 272.636C368.347 274.369 368.847 276.336 368.847 278.536C368.814 280.802 368.281 282.836 367.247 284.636C366.247 286.436 364.864 287.869 363.097 288.936C361.364 289.969 359.397 290.486 357.197 290.486ZM357.197 286.986C358.664 286.986 359.981 286.619 361.147 285.886C362.314 285.119 363.231 284.102 363.897 282.836C364.597 281.569 364.947 280.136 364.947 278.536C364.947 277.002 364.614 275.636 363.947 274.436C363.281 273.202 362.364 272.236 361.197 271.536C360.031 270.836 358.697 270.486 357.197 270.486C355.697 270.486 354.364 270.836 353.197 271.536C352.031 272.236 351.097 273.202 350.397 274.436C349.731 275.636 349.397 277.002 349.397 278.536C349.397 280.136 349.731 281.569 350.397 282.836C351.064 284.102 351.981 285.119 353.147 285.886C354.347 286.619 355.697 286.986 357.197 286.986ZM357.197 270.136C355.364 270.136 353.714 269.719 352.247 268.886C350.781 268.052 349.631 266.919 348.797 265.486C347.964 264.052 347.547 262.419 347.547 260.586C347.547 258.819 347.964 257.219 348.797 255.786C349.631 254.352 350.781 253.219 352.247 252.386C353.714 251.552 355.364 251.136 357.197 251.136C359.031 251.102 360.681 251.502 362.147 252.336C363.614 253.136 364.764 254.269 365.597 255.736C366.431 257.169 366.831 258.786 366.797 260.586C366.797 262.419 366.364 264.052 365.497 265.486C364.664 266.919 363.514 268.052 362.047 268.886C360.614 269.719 358.997 270.136 357.197 270.136ZM357.197 266.786C358.297 266.786 359.281 266.519 360.147 265.986C361.047 265.419 361.764 264.669 362.297 263.736C362.831 262.769 363.097 261.702 363.097 260.536C363.131 259.402 362.881 258.402 362.347 257.536C361.847 256.636 361.147 255.936 360.247 255.436C359.347 254.936 358.331 254.686 357.197 254.686C355.497 254.686 354.081 255.252 352.947 256.386C351.847 257.486 351.281 258.869 351.247 260.536C351.214 262.302 351.764 263.786 352.897 264.986C354.031 266.186 355.464 266.786 357.197 266.786ZM387.886 290.286C385.486 290.286 383.336 289.736 381.436 288.636C379.536 287.502 378.019 285.986 376.886 284.086C375.786 282.152 375.236 279.986 375.236 277.586C375.236 277.019 375.419 276.552 375.786 276.186C376.153 275.819 376.603 275.636 377.136 275.636C377.703 275.636 378.169 275.819 378.536 276.186C378.936 276.552 379.136 277.019 379.136 277.586C379.136 279.252 379.519 280.752 380.286 282.086C381.053 283.419 382.086 284.469 383.386 285.236C384.719 286.002 386.219 286.386 387.886 286.386C389.553 286.386 391.053 286.002 392.386 285.236C393.719 284.469 394.769 283.419 395.536 282.086C396.303 280.752 396.686 279.252 396.686 277.586C396.686 275.919 396.303 274.419 395.536 273.086C394.769 271.752 393.719 270.702 392.386 269.936C391.053 269.169 389.553 268.786 387.886 268.786H379.136C378.569 268.786 378.103 268.602 377.736 268.236C377.369 267.836 377.186 267.369 377.186 266.836V253.136C377.186 252.602 377.369 252.152 377.736 251.786C378.103 251.386 378.569 251.186 379.136 251.186H396.686C397.219 251.186 397.669 251.386 398.036 251.786C398.436 252.152 398.636 252.602 398.636 253.136C398.636 253.669 398.453 254.136 398.086 254.536C397.719 254.902 397.253 255.086 396.686 255.086H381.036V264.886H387.886C390.319 264.886 392.486 265.452 394.386 266.586C396.286 267.686 397.786 269.202 398.886 271.136C400.019 273.036 400.586 275.186 400.586 277.586C400.586 279.986 400.019 282.152 398.886 284.086C397.786 285.986 396.286 287.502 394.386 288.636C392.486 289.736 390.319 290.286 387.886 290.286ZM417.284 251.186C419.55 251.186 421.567 251.702 423.334 252.736C425.1 253.736 426.484 255.119 427.484 256.886C428.517 258.652 429.034 260.669 429.034 262.936C429.034 265.169 428.517 267.186 427.484 268.986C426.484 270.752 425.1 272.152 423.334 273.186C421.567 274.186 419.55 274.686 417.284 274.686C415.017 274.686 413 274.186 411.234 273.186C409.5 272.152 408.117 270.752 407.084 268.986C406.084 267.186 405.584 265.169 405.584 262.936C405.584 260.669 406.084 258.652 407.084 256.886C408.117 255.119 409.5 253.736 411.234 252.736C413 251.702 415.017 251.186 417.284 251.186ZM417.284 254.786C415.75 254.786 414.384 255.136 413.184 255.836C411.984 256.536 411.034 257.502 410.334 258.736C409.634 259.969 409.284 261.369 409.284 262.936C409.284 264.502 409.634 265.902 410.334 267.136C411.034 268.369 411.984 269.352 413.184 270.086C414.384 270.786 415.75 271.136 417.284 271.136C418.817 271.136 420.184 270.786 421.384 270.086C422.617 269.352 423.584 268.369 424.284 267.136C424.984 265.902 425.334 264.502 425.334 262.936C425.334 261.369 424.984 259.969 424.284 258.736C423.584 257.502 422.617 256.536 421.384 255.836C420.184 255.136 418.817 254.786 417.284 254.786ZM427.534 268.886L415.234 289.186C414.767 289.886 414.184 290.236 413.484 290.236C412.95 290.236 412.5 290.086 412.134 289.786C411.8 289.486 411.584 289.102 411.484 288.636C411.417 288.169 411.517 287.702 411.784 287.236L419.984 273.836L427.534 268.886ZM446.539 290.286C444.072 290.286 441.955 289.502 440.189 287.936C438.422 286.369 437.072 284.136 436.139 281.236C435.239 278.302 434.789 274.786 434.789 270.686C434.789 266.652 435.239 263.169 436.139 260.236C437.072 257.302 438.422 255.052 440.189 253.486C441.955 251.919 444.072 251.136 446.539 251.136C449.072 251.136 451.205 251.936 452.939 253.536C454.705 255.102 456.039 257.352 456.939 260.286C457.872 263.219 458.339 266.686 458.339 270.686C458.339 274.752 457.872 278.252 456.939 281.186C456.039 284.086 454.705 286.336 452.939 287.936C451.205 289.502 449.072 290.286 446.539 290.286ZM446.539 286.386C448.339 286.386 449.822 285.719 450.989 284.386C452.155 283.019 453.022 281.152 453.589 278.786C454.155 276.419 454.439 273.719 454.439 270.686C454.439 267.686 454.139 265.019 453.539 262.686C452.972 260.319 452.105 258.452 450.939 257.086C449.772 255.719 448.305 255.036 446.539 255.036C444.772 255.036 443.305 255.719 442.139 257.086C441.005 258.419 440.139 260.269 439.539 262.636C438.972 265.002 438.689 267.686 438.689 270.686C438.689 273.752 438.972 276.469 439.539 278.836C440.139 281.169 441.005 283.019 442.139 284.386C443.305 285.719 444.772 286.386 446.539 286.386ZM490.501 290.536C488.168 290.536 486.068 290.036 484.201 289.036C482.368 288.002 480.918 286.602 479.851 284.836C478.785 283.069 478.251 281.069 478.251 278.836C478.251 278.269 478.418 277.786 478.751 277.386C479.085 276.986 479.535 276.786 480.101 276.786C480.668 276.786 481.118 276.986 481.451 277.386C481.785 277.786 481.951 278.269 481.951 278.836C481.951 280.369 482.318 281.752 483.051 282.986C483.785 284.186 484.785 285.152 486.051 285.886C487.351 286.586 488.785 286.936 490.351 286.936C492.951 286.936 494.985 286.219 496.451 284.786C497.918 283.319 498.651 281.436 498.651 279.136C498.651 277.502 498.301 276.086 497.601 274.886C496.901 273.652 495.951 272.702 494.751 272.036C493.551 271.336 492.201 270.986 490.701 270.986C490.168 270.986 489.718 270.802 489.351 270.436C488.985 270.069 488.801 269.602 488.801 269.036C488.801 268.502 488.985 268.052 489.351 267.686C489.718 267.319 490.168 267.136 490.701 267.136C491.868 267.136 492.935 266.852 493.901 266.286C494.901 265.686 495.701 264.902 496.301 263.936C496.901 262.969 497.201 261.902 497.201 260.736C497.201 258.969 496.601 257.502 495.401 256.336C494.201 255.136 492.601 254.536 490.601 254.536C489.201 254.536 487.951 254.819 486.851 255.386C485.751 255.919 484.885 256.652 484.251 257.586C483.651 258.486 483.351 259.519 483.351 260.686C483.351 261.252 483.168 261.736 482.801 262.136C482.468 262.502 482.035 262.686 481.501 262.686C480.935 262.686 480.485 262.502 480.151 262.136C479.818 261.736 479.651 261.269 479.651 260.736C479.651 258.902 480.118 257.252 481.051 255.786C482.018 254.286 483.318 253.119 484.951 252.286C486.585 251.419 488.468 250.986 490.601 250.986C492.535 250.986 494.268 251.419 495.801 252.286C497.368 253.119 498.601 254.286 499.501 255.786C500.435 257.252 500.901 258.902 500.901 260.736C500.901 261.869 500.618 262.969 500.051 264.036C499.518 265.102 498.801 266.069 497.901 266.936C497.001 267.769 496.018 268.419 494.951 268.886C496.651 269.386 498.068 270.152 499.201 271.186C500.335 272.219 501.168 273.436 501.701 274.836C502.235 276.202 502.501 277.636 502.501 279.136C502.501 281.336 501.968 283.302 500.901 285.036C499.868 286.736 498.435 288.086 496.601 289.086C494.768 290.052 492.735 290.536 490.501 290.536ZM510.898 290.286C510.364 290.286 509.898 290.102 509.498 289.736C509.131 289.369 508.948 288.902 508.948 288.336C508.948 288.169 508.981 287.986 509.048 287.786C509.114 287.586 509.214 287.352 509.348 287.086L524.248 255.086H507.048C506.481 255.086 505.998 254.902 505.598 254.536C505.231 254.136 505.048 253.669 505.048 253.136C505.048 252.602 505.231 252.152 505.598 251.786C505.998 251.386 506.481 251.186 507.048 251.186H527.398C527.931 251.186 528.381 251.386 528.748 251.786C529.114 252.152 529.298 252.602 529.298 253.136C529.298 253.302 529.264 253.486 529.198 253.686C529.131 253.852 529.064 254.019 528.998 254.186L512.648 289.186C512.281 289.919 511.698 290.286 510.898 290.286ZM542.65 290.536C540.317 290.536 538.217 290.036 536.35 289.036C534.517 288.002 533.067 286.602 532 284.836C530.933 283.069 530.4 281.069 530.4 278.836C530.4 278.269 530.567 277.786 530.9 277.386C531.233 276.986 531.683 276.786 532.25 276.786C532.817 276.786 533.267 276.986 533.6 277.386C533.933 277.786 534.1 278.269 534.1 278.836C534.1 280.369 534.467 281.752 535.2 282.986C535.933 284.186 536.933 285.152 538.2 285.886C539.5 286.586 540.933 286.936 542.5 286.936C545.1 286.936 547.133 286.219 548.6 284.786C550.067 283.319 550.8 281.436 550.8 279.136C550.8 277.502 550.45 276.086 549.75 274.886C549.05 273.652 548.1 272.702 546.9 272.036C545.7 271.336 544.35 270.986 542.85 270.986C542.317 270.986 541.867 270.802 541.5 270.436C541.133 270.069 540.95 269.602 540.95 269.036C540.95 268.502 541.133 268.052 541.5 267.686C541.867 267.319 542.317 267.136 542.85 267.136C544.017 267.136 545.083 266.852 546.05 266.286C547.05 265.686 547.85 264.902 548.45 263.936C549.05 262.969 549.35 261.902 549.35 260.736C549.35 258.969 548.75 257.502 547.55 256.336C546.35 255.136 544.75 254.536 542.75 254.536C541.35 254.536 540.1 254.819 539 255.386C537.9 255.919 537.033 256.652 536.4 257.586C535.8 258.486 535.5 259.519 535.5 260.686C535.5 261.252 535.317 261.736 534.95 262.136C534.617 262.502 534.183 262.686 533.65 262.686C533.083 262.686 532.633 262.502 532.3 262.136C531.967 261.736 531.8 261.269 531.8 260.736C531.8 258.902 532.267 257.252 533.2 255.786C534.167 254.286 535.467 253.119 537.1 252.286C538.733 251.419 540.617 250.986 542.75 250.986C544.683 250.986 546.417 251.419 547.95 252.286C549.517 253.119 550.75 254.286 551.65 255.786C552.583 257.252 553.05 258.902 553.05 260.736C553.05 261.869 552.767 262.969 552.2 264.036C551.667 265.102 550.95 266.069 550.05 266.936C549.15 267.769 548.167 268.419 547.1 268.886C548.8 269.386 550.217 270.152 551.35 271.186C552.483 272.219 553.317 273.436 553.85 274.836C554.383 276.202 554.65 277.636 554.65 279.136C554.65 281.336 554.117 283.302 553.05 285.036C552.017 286.736 550.583 288.086 548.75 289.086C546.917 290.052 544.883 290.536 542.65 290.536ZM562.398 290.286C561.865 290.286 561.398 290.102 560.998 289.736C560.631 289.369 560.448 288.902 560.448 288.336C560.448 287.836 560.631 287.386 560.998 286.986L576.148 269.086C576.981 268.186 577.648 267.186 578.148 266.086C578.648 264.952 578.898 263.902 578.898 262.936C578.898 261.369 578.581 259.986 577.948 258.786C577.348 257.586 576.481 256.652 575.348 255.986C574.248 255.286 572.981 254.936 571.548 254.936C570.148 254.936 568.865 255.302 567.698 256.036C566.565 256.736 565.665 257.686 564.998 258.886C564.365 260.086 564.048 261.436 564.048 262.936C564.048 263.469 563.865 263.919 563.498 264.286C563.131 264.652 562.665 264.836 562.098 264.836C561.565 264.836 561.098 264.652 560.698 264.286C560.331 263.919 560.148 263.469 560.148 262.936C560.148 260.702 560.648 258.702 561.648 256.936C562.648 255.169 563.998 253.769 565.698 252.736C567.431 251.702 569.381 251.186 571.548 251.186C573.715 251.186 575.631 251.686 577.298 252.686C578.998 253.686 580.315 255.069 581.248 256.836C582.215 258.602 582.698 260.636 582.698 262.936C582.698 264.036 582.515 265.086 582.148 266.086C581.815 267.086 581.348 268.052 580.748 268.986C580.148 269.886 579.498 270.736 578.798 271.536L565.998 286.386H581.648C582.181 286.386 582.631 286.586 582.998 286.986C583.398 287.386 583.598 287.836 583.598 288.336C583.598 288.902 583.398 289.369 582.998 289.736C582.631 290.102 582.181 290.286 581.648 290.286H562.398Z" fill="white"/>
<path d="M84.9665 415.786C83.4427 415.786 82.026 415.572 80.7165 415.143C79.4308 414.691 78.3117 414.06 77.3593 413.25C76.407 412.441 75.6808 411.5 75.1808 410.429C74.9903 410.048 74.9784 409.703 75.1451 409.393C75.3355 409.06 75.6451 408.833 76.0736 408.714C76.407 408.619 76.7284 408.655 77.0379 408.822C77.3712 408.988 77.6212 409.238 77.7879 409.572C78.1451 410.262 78.6689 410.881 79.3593 411.429C80.0498 411.976 80.8712 412.405 81.8236 412.714C82.776 413 83.8236 413.143 84.9665 413.143C86.2284 413.143 87.3474 412.941 88.3236 412.536C89.2998 412.107 90.0617 411.5 90.6093 410.714C91.1808 409.905 91.4665 408.929 91.4665 407.786C91.4665 406.333 90.9308 405.083 89.8593 404.036C88.7879 402.988 87.1093 402.322 84.8236 402.036C82.0379 401.703 79.8593 400.845 78.2879 399.464C76.7165 398.06 75.9308 396.345 75.9308 394.322C75.9308 392.869 76.3117 391.607 77.0736 390.536C77.8593 389.464 78.9308 388.643 80.2879 388.072C81.6451 387.476 83.2046 387.179 84.9665 387.179C86.276 387.179 87.4665 387.393 88.5379 387.822C89.6093 388.226 90.5379 388.774 91.3236 389.464C92.1331 390.131 92.7879 390.869 93.2879 391.679C93.526 392.06 93.5974 392.429 93.5022 392.786C93.4308 393.143 93.2284 393.417 92.8951 393.607C92.5379 393.774 92.1689 393.798 91.7879 393.679C91.4308 393.56 91.157 393.333 90.9665 393C90.6093 392.453 90.157 391.941 89.6093 391.464C89.0855 390.964 88.4427 390.572 87.6808 390.286C86.9189 390 86.0022 389.845 84.9308 389.822C83.0498 389.822 81.5379 390.226 80.3951 391.036C79.2522 391.822 78.6808 392.976 78.6808 394.5C78.6808 395.31 78.8951 396.06 79.3236 396.75C79.7522 397.417 80.4546 398 81.4308 398.5C82.4308 398.976 83.7641 399.333 85.4308 399.572C88.407 400 90.6093 400.917 92.0379 402.322C93.4903 403.703 94.2165 405.512 94.2165 407.75C94.2165 409.036 93.9784 410.179 93.5022 411.179C93.0498 412.179 92.3951 413.024 91.5379 413.714C90.7046 414.381 89.7165 414.893 88.5736 415.25C87.4546 415.607 86.2522 415.786 84.9665 415.786ZM108.292 415.607C106.458 415.607 104.816 415.179 103.363 414.322C101.911 413.441 100.756 412.25 99.899 410.75C99.0656 409.25 98.649 407.56 98.649 405.679C98.649 403.774 99.0775 402.072 99.9347 400.572C100.816 399.072 102.006 397.893 103.506 397.036C105.006 396.155 106.697 395.714 108.578 395.714C110.458 395.714 112.137 396.155 113.613 397.036C115.113 397.893 116.292 399.072 117.149 400.572C118.03 402.072 118.482 403.774 118.506 405.679L117.399 406.536C117.399 408.25 116.994 409.798 116.185 411.179C115.399 412.536 114.316 413.619 112.935 414.429C111.578 415.214 110.03 415.607 108.292 415.607ZM108.578 413.107C109.958 413.107 111.185 412.786 112.256 412.143C113.351 411.5 114.208 410.619 114.828 409.5C115.47 408.357 115.792 407.083 115.792 405.679C115.792 404.25 115.47 402.976 114.828 401.857C114.208 400.738 113.351 399.857 112.256 399.214C111.185 398.548 109.958 398.214 108.578 398.214C107.22 398.214 105.994 398.548 104.899 399.214C103.804 399.857 102.935 400.738 102.292 401.857C101.649 402.976 101.328 404.25 101.328 405.679C101.328 407.083 101.649 408.357 102.292 409.5C102.935 410.619 103.804 411.5 104.899 412.143C105.994 412.786 107.22 413.107 108.578 413.107ZM117.113 415.429C116.708 415.429 116.375 415.31 116.113 415.072C115.851 414.81 115.72 414.476 115.72 414.072V407.964L116.399 405.143L118.506 405.679V414.072C118.506 414.476 118.375 414.81 118.113 415.072C117.851 415.31 117.518 415.429 117.113 415.429ZM128.069 415.429C127.117 415.429 126.259 415.167 125.497 414.643C124.759 414.119 124.176 413.393 123.747 412.464C123.343 411.536 123.14 410.464 123.14 409.25V388.893C123.14 388.488 123.259 388.167 123.497 387.929C123.759 387.667 124.093 387.536 124.497 387.536C124.902 387.536 125.224 387.667 125.462 387.929C125.724 388.167 125.855 388.488 125.855 388.893V409.25C125.855 410.274 126.057 411.107 126.462 411.75C126.89 412.393 127.426 412.714 128.069 412.714H128.962C129.319 412.714 129.605 412.845 129.819 413.107C130.033 413.345 130.14 413.667 130.14 414.072C130.14 414.476 129.986 414.81 129.676 415.072C129.39 415.31 129.009 415.429 128.533 415.429H128.069ZM160.327 415.429C159.922 415.429 159.589 415.31 159.327 415.072C159.065 414.81 158.934 414.476 158.934 414.072V403.786C158.934 402.095 158.494 400.762 157.613 399.786C156.732 398.786 155.601 398.286 154.22 398.286C152.744 398.286 151.529 398.786 150.577 399.786C149.648 400.762 149.196 402.072 149.22 403.714H146.756C146.779 402.119 147.125 400.714 147.791 399.5C148.458 398.286 149.375 397.345 150.541 396.679C151.708 396.012 153.029 395.679 154.506 395.679C155.91 395.679 157.148 396.012 158.22 396.679C159.315 397.345 160.16 398.286 160.756 399.5C161.375 400.714 161.684 402.143 161.684 403.786V414.072C161.684 414.476 161.553 414.81 161.291 415.072C161.053 415.31 160.732 415.429 160.327 415.429ZM135.327 415.429C134.898 415.429 134.553 415.31 134.291 415.072C134.053 414.81 133.934 414.476 133.934 414.072V397.286C133.934 396.881 134.053 396.548 134.291 396.286C134.553 396.024 134.898 395.893 135.327 395.893C135.732 395.893 136.053 396.024 136.291 396.286C136.553 396.548 136.684 396.881 136.684 397.286V414.072C136.684 414.476 136.553 414.81 136.291 415.072C136.053 415.31 135.732 415.429 135.327 415.429ZM147.863 415.429C147.458 415.429 147.125 415.31 146.863 415.072C146.601 414.81 146.47 414.476 146.47 414.072V403.786C146.47 402.095 146.029 400.762 145.148 399.786C144.267 398.786 143.136 398.286 141.756 398.286C140.279 398.286 139.065 398.774 138.113 399.75C137.16 400.703 136.684 401.953 136.684 403.5H134.72C134.767 401.976 135.101 400.631 135.72 399.464C136.363 398.274 137.232 397.345 138.327 396.679C139.422 396.012 140.66 395.679 142.041 395.679C143.446 395.679 144.684 396.012 145.756 396.679C146.851 397.345 147.696 398.286 148.291 399.5C148.91 400.714 149.22 402.143 149.22 403.786V414.072C149.22 414.476 149.089 414.81 148.827 415.072C148.589 415.31 148.267 415.429 147.863 415.429ZM176.372 415.607C174.539 415.607 172.896 415.179 171.444 414.322C169.991 413.441 168.836 412.25 167.979 410.75C167.146 409.25 166.729 407.56 166.729 405.679C166.729 403.774 167.158 402.072 168.015 400.572C168.896 399.072 170.086 397.893 171.586 397.036C173.086 396.155 174.777 395.714 176.658 395.714C178.539 395.714 180.217 396.155 181.694 397.036C183.194 397.893 184.372 399.072 185.229 400.572C186.11 402.072 186.563 403.774 186.586 405.679L185.479 406.536C185.479 408.25 185.075 409.798 184.265 411.179C183.479 412.536 182.396 413.619 181.015 414.429C179.658 415.214 178.11 415.607 176.372 415.607ZM176.658 413.107C178.039 413.107 179.265 412.786 180.336 412.143C181.432 411.5 182.289 410.619 182.908 409.5C183.551 408.357 183.872 407.083 183.872 405.679C183.872 404.25 183.551 402.976 182.908 401.857C182.289 400.738 181.432 399.857 180.336 399.214C179.265 398.548 178.039 398.214 176.658 398.214C175.301 398.214 174.075 398.548 172.979 399.214C171.884 399.857 171.015 400.738 170.372 401.857C169.729 402.976 169.408 404.25 169.408 405.679C169.408 407.083 169.729 408.357 170.372 409.5C171.015 410.619 171.884 411.5 172.979 412.143C174.075 412.786 175.301 413.107 176.658 413.107ZM185.194 415.429C184.789 415.429 184.456 415.31 184.194 415.072C183.932 414.81 183.801 414.476 183.801 414.072V407.964L184.479 405.143L186.586 405.679V414.072C186.586 414.476 186.456 414.81 186.194 415.072C185.932 415.31 185.598 415.429 185.194 415.429ZM208.685 415.429C208.28 415.429 207.947 415.298 207.685 415.036C207.423 414.774 207.292 414.453 207.292 414.072V404.786C207.292 403.31 207.006 402.095 206.435 401.143C205.887 400.191 205.125 399.476 204.149 399C203.197 398.524 202.114 398.286 200.899 398.286C199.733 398.286 198.673 398.512 197.721 398.964C196.792 399.417 196.054 400.036 195.506 400.822C194.959 401.607 194.685 402.5 194.685 403.5H192.721C192.768 402 193.173 400.667 193.935 399.5C194.697 398.31 195.709 397.381 196.971 396.714C198.233 396.024 199.637 395.679 201.185 395.679C202.875 395.679 204.387 396.036 205.721 396.75C207.054 397.441 208.102 398.464 208.864 399.822C209.649 401.179 210.042 402.833 210.042 404.786V414.072C210.042 414.453 209.911 414.774 209.649 415.036C209.387 415.298 209.066 415.429 208.685 415.429ZM193.328 415.429C192.899 415.429 192.554 415.31 192.292 415.072C192.054 414.81 191.935 414.476 191.935 414.072V397.286C191.935 396.857 192.054 396.524 192.292 396.286C192.554 396.024 192.899 395.893 193.328 395.893C193.733 395.893 194.054 396.024 194.292 396.286C194.554 396.524 194.685 396.857 194.685 397.286V414.072C194.685 414.476 194.554 414.81 194.292 415.072C194.054 415.31 193.733 415.429 193.328 415.429Z" fill="white"/>
<path d="M80.999 373.129C80.2533 373.129 79.5676 373 78.9418 372.743C78.3161 372.486 77.7718 372.126 77.309 371.663C76.8547 371.2 76.499 370.656 76.2418 370.03C75.9933 369.404 75.869 368.719 75.869 367.973C75.869 367.236 75.9933 366.554 76.2418 365.929C76.499 365.303 76.8547 364.759 77.309 364.296C77.7718 363.833 78.3161 363.473 78.9418 363.216C79.5676 362.959 80.2533 362.83 80.999 362.83C81.7361 362.83 82.4176 362.959 83.0433 363.216C83.669 363.473 84.2133 363.833 84.6761 364.296C85.139 364.759 85.4947 365.303 85.7433 365.929C86.0004 366.554 86.129 367.236 86.129 367.973C86.129 368.719 86.0004 369.404 85.7433 370.03C85.4947 370.656 85.139 371.2 84.6761 371.663C84.2133 372.126 83.669 372.486 83.0433 372.743C82.4176 373 81.7361 373.129 80.999 373.129ZM80.999 372.177C81.5904 372.177 82.139 372.074 82.6447 371.869C83.1504 371.654 83.5876 371.359 83.9561 370.982C84.3333 370.596 84.6247 370.15 84.8304 369.644C85.0361 369.13 85.139 368.573 85.139 367.973C85.139 367.382 85.0361 366.833 84.8304 366.327C84.6247 365.813 84.3333 365.367 83.9561 364.99C83.5876 364.604 83.1504 364.309 82.6447 364.103C82.139 363.889 81.5904 363.782 80.999 363.782C80.399 363.782 79.8461 363.889 79.3404 364.103C78.8347 364.309 78.3933 364.604 78.0161 364.99C77.6476 365.367 77.3604 365.813 77.1547 366.327C76.949 366.833 76.8461 367.382 76.8461 367.973C76.8461 368.573 76.949 369.13 77.1547 369.644C77.3604 370.15 77.6476 370.596 78.0161 370.982C78.3933 371.359 78.8347 371.654 79.3404 371.869C79.8461 372.074 80.399 372.177 80.999 372.177ZM89.6634 373C89.552 373 89.4534 372.97 89.3677 372.91C89.282 372.85 89.222 372.773 89.1877 372.679L87.182 366.662C87.1305 366.447 87.1348 366.28 87.1948 366.16C87.2548 366.032 87.3748 365.967 87.5548 365.967C87.6663 365.967 87.7648 365.997 87.8505 366.057C87.9363 366.117 88.0005 366.212 88.0434 366.34L89.8305 371.804H89.5477L91.2063 366.353C91.2405 366.242 91.2963 366.152 91.3734 366.083C91.4591 366.006 91.5663 365.967 91.6948 365.967C91.8234 365.967 91.9263 366.002 92.0034 366.07C92.0891 366.139 92.1491 366.233 92.1834 366.353L93.7648 371.676H93.5463L95.2948 366.34C95.3805 366.092 95.5391 365.967 95.7705 365.967C95.9591 365.967 96.0877 366.04 96.1563 366.186C96.2248 366.323 96.2248 366.482 96.1563 366.662L94.1505 372.679C94.1163 372.773 94.0563 372.85 93.9705 372.91C93.8934 372.97 93.7991 373 93.6877 373C93.5763 373 93.4734 372.97 93.3791 372.91C93.2934 372.85 93.2377 372.773 93.212 372.679L91.592 367.304H91.7463L90.1263 372.679C90.092 372.782 90.032 372.863 89.9463 372.923C89.8605 372.974 89.7663 373 89.6634 373ZM103.616 373C103.471 373 103.351 372.953 103.256 372.859C103.162 372.764 103.115 372.649 103.115 372.512V369.169C103.115 368.637 103.012 368.2 102.806 367.857C102.609 367.514 102.335 367.257 101.984 367.086C101.641 366.914 101.251 366.829 100.814 366.829C100.394 366.829 100.012 366.91 99.6693 367.073C99.335 367.236 99.0693 367.459 98.8721 367.742C98.675 368.024 98.5764 368.346 98.5764 368.706H97.8693C97.8864 368.166 98.0321 367.686 98.3064 367.266C98.5807 366.837 98.945 366.503 99.3993 366.263C99.8536 366.014 100.359 365.89 100.916 365.89C101.525 365.89 102.069 366.019 102.549 366.276C103.029 366.524 103.406 366.893 103.681 367.382C103.964 367.87 104.105 368.466 104.105 369.169V372.512C104.105 372.649 104.058 372.764 103.964 372.859C103.869 372.953 103.754 373 103.616 373ZM98.0878 373C97.9336 373 97.8093 372.957 97.715 372.872C97.6293 372.777 97.5864 372.657 97.5864 372.512V366.469C97.5864 366.314 97.6293 366.194 97.715 366.109C97.8093 366.014 97.9336 365.967 98.0878 365.967C98.2336 365.967 98.3493 366.014 98.435 366.109C98.5293 366.194 98.5764 366.314 98.5764 366.469V372.512C98.5764 372.657 98.5293 372.777 98.435 372.872C98.3493 372.957 98.2336 373 98.0878 373ZM109.476 373.064C108.782 373.064 108.165 372.914 107.625 372.614C107.093 372.306 106.673 371.882 106.365 371.342C106.065 370.802 105.915 370.184 105.915 369.49C105.915 368.787 106.056 368.17 106.339 367.639C106.63 367.099 107.029 366.674 107.535 366.366C108.04 366.057 108.623 365.903 109.283 365.903C109.935 365.903 110.5 366.053 110.98 366.353C111.469 366.644 111.846 367.052 112.112 367.574C112.378 368.097 112.51 368.693 112.51 369.362C112.51 369.499 112.468 369.61 112.382 369.696C112.296 369.773 112.185 369.812 112.048 369.812H106.583V368.989H112.15L111.598 369.387C111.606 368.89 111.516 368.444 111.328 368.05C111.139 367.656 110.869 367.347 110.518 367.124C110.175 366.902 109.763 366.79 109.283 366.79C108.795 366.79 108.366 366.906 107.998 367.137C107.629 367.369 107.342 367.69 107.136 368.102C106.939 368.504 106.84 368.967 106.84 369.49C106.84 370.013 106.952 370.476 107.175 370.879C107.406 371.282 107.719 371.599 108.113 371.83C108.508 372.062 108.962 372.177 109.476 372.177C109.785 372.177 110.093 372.126 110.402 372.023C110.719 371.912 110.972 371.774 111.16 371.612C111.255 371.534 111.362 371.496 111.482 371.496C111.602 371.487 111.705 371.517 111.79 371.586C111.902 371.689 111.958 371.8 111.958 371.92C111.966 372.04 111.919 372.143 111.816 372.229C111.533 372.469 111.173 372.67 110.736 372.833C110.299 372.987 109.879 373.064 109.476 373.064ZM114.597 368.667C114.622 368.136 114.759 367.66 115.008 367.24C115.265 366.82 115.595 366.49 115.998 366.25C116.409 366.01 116.864 365.89 117.361 365.89C117.755 365.89 118.059 365.946 118.274 366.057C118.488 366.169 118.569 366.332 118.518 366.546C118.484 366.674 118.424 366.76 118.338 366.803C118.261 366.846 118.162 366.863 118.042 366.854C117.931 366.846 117.802 366.837 117.657 366.829C117.177 366.786 116.748 366.837 116.371 366.983C116.002 367.12 115.707 367.334 115.484 367.626C115.269 367.917 115.162 368.264 115.162 368.667H114.597ZM114.674 373C114.519 373 114.399 372.957 114.314 372.872C114.228 372.786 114.185 372.666 114.185 372.512V366.456C114.185 366.302 114.228 366.182 114.314 366.096C114.399 366.01 114.519 365.967 114.674 365.967C114.828 365.967 114.948 366.01 115.034 366.096C115.119 366.182 115.162 366.302 115.162 366.456V372.512C115.162 372.666 115.119 372.786 115.034 372.872C114.948 372.957 114.828 373 114.674 373ZM124.471 373C124.325 373 124.205 372.953 124.111 372.859C124.016 372.764 123.969 372.644 123.969 372.499V363.46C123.969 363.314 124.016 363.194 124.111 363.1C124.205 363.006 124.325 362.959 124.471 362.959C124.625 362.959 124.753 363.019 124.856 363.139L131.002 371.213V363.46C131.002 363.314 131.049 363.194 131.143 363.1C131.238 363.006 131.358 362.959 131.503 362.959C131.641 362.959 131.756 363.006 131.851 363.1C131.953 363.194 132.005 363.314 132.005 363.46V372.499C132.005 372.644 131.953 372.764 131.851 372.859C131.756 372.953 131.641 373 131.503 373C131.435 373 131.366 372.987 131.298 372.962C131.229 372.936 131.173 372.893 131.131 372.833L124.972 364.759V372.499C124.972 372.644 124.921 372.764 124.818 372.859C124.723 372.953 124.608 373 124.471 373ZM137.549 373.064C136.889 373.064 136.297 372.91 135.775 372.602C135.252 372.284 134.836 371.856 134.527 371.316C134.227 370.776 134.077 370.167 134.077 369.49C134.077 368.804 134.232 368.192 134.54 367.652C134.857 367.112 135.286 366.687 135.826 366.379C136.366 366.062 136.975 365.903 137.652 365.903C138.329 365.903 138.933 366.062 139.465 366.379C140.005 366.687 140.429 367.112 140.737 367.652C141.055 368.192 141.217 368.804 141.226 369.49L140.827 369.799C140.827 370.416 140.682 370.973 140.39 371.47C140.107 371.959 139.717 372.349 139.22 372.64C138.732 372.923 138.175 373.064 137.549 373.064ZM137.652 372.164C138.149 372.164 138.59 372.049 138.976 371.817C139.37 371.586 139.679 371.269 139.902 370.866C140.133 370.454 140.249 369.996 140.249 369.49C140.249 368.976 140.133 368.517 139.902 368.114C139.679 367.712 139.37 367.394 138.976 367.163C138.59 366.923 138.149 366.803 137.652 366.803C137.163 366.803 136.722 366.923 136.327 367.163C135.933 367.394 135.62 367.712 135.389 368.114C135.157 368.517 135.042 368.976 135.042 369.49C135.042 369.996 135.157 370.454 135.389 370.866C135.62 371.269 135.933 371.586 136.327 371.817C136.722 372.049 137.163 372.164 137.652 372.164ZM140.725 373C140.579 373 140.459 372.957 140.365 372.872C140.27 372.777 140.223 372.657 140.223 372.512V370.313L140.467 369.297L141.226 369.49V372.512C141.226 372.657 141.179 372.777 141.085 372.872C140.99 372.957 140.87 373 140.725 373ZM152.653 373C152.507 373 152.387 372.957 152.293 372.872C152.199 372.777 152.151 372.657 152.151 372.512V368.809C152.151 368.2 151.993 367.72 151.676 367.369C151.359 367.009 150.951 366.829 150.454 366.829C149.923 366.829 149.486 367.009 149.143 367.369C148.809 367.72 148.646 368.192 148.654 368.783H147.767C147.776 368.209 147.9 367.703 148.14 367.266C148.38 366.829 148.71 366.49 149.13 366.25C149.55 366.01 150.026 365.89 150.557 365.89C151.063 365.89 151.509 366.01 151.894 366.25C152.289 366.49 152.593 366.829 152.807 367.266C153.03 367.703 153.141 368.217 153.141 368.809V372.512C153.141 372.657 153.094 372.777 153 372.872C152.914 372.957 152.799 373 152.653 373ZM143.653 373C143.499 373 143.374 372.957 143.28 372.872C143.194 372.777 143.151 372.657 143.151 372.512V366.469C143.151 366.323 143.194 366.203 143.28 366.109C143.374 366.014 143.499 365.967 143.653 365.967C143.799 365.967 143.914 366.014 144 366.109C144.094 366.203 144.141 366.323 144.141 366.469V372.512C144.141 372.657 144.094 372.777 144 372.872C143.914 372.957 143.799 373 143.653 373ZM148.166 373C148.02 373 147.9 372.957 147.806 372.872C147.711 372.777 147.664 372.657 147.664 372.512V368.809C147.664 368.2 147.506 367.72 147.189 367.369C146.871 367.009 146.464 366.829 145.967 366.829C145.436 366.829 144.999 367.004 144.656 367.356C144.313 367.699 144.141 368.149 144.141 368.706H143.434C143.451 368.157 143.571 367.673 143.794 367.253C144.026 366.824 144.339 366.49 144.733 366.25C145.127 366.01 145.573 365.89 146.07 365.89C146.576 365.89 147.021 366.01 147.407 366.25C147.801 366.49 148.106 366.829 148.32 367.266C148.543 367.703 148.654 368.217 148.654 368.809V372.512C148.654 372.657 148.607 372.777 148.513 372.872C148.427 372.957 148.311 373 148.166 373ZM158.519 373.064C157.825 373.064 157.208 372.914 156.668 372.614C156.136 372.306 155.716 371.882 155.408 371.342C155.108 370.802 154.958 370.184 154.958 369.49C154.958 368.787 155.099 368.17 155.382 367.639C155.673 367.099 156.072 366.674 156.578 366.366C157.083 366.057 157.666 365.903 158.326 365.903C158.978 365.903 159.543 366.053 160.023 366.353C160.512 366.644 160.889 367.052 161.155 367.574C161.421 368.097 161.553 368.693 161.553 369.362C161.553 369.499 161.511 369.61 161.425 369.696C161.339 369.773 161.228 369.812 161.091 369.812H155.626V368.989H161.193L160.641 369.387C160.649 368.89 160.559 368.444 160.371 368.05C160.182 367.656 159.912 367.347 159.561 367.124C159.218 366.902 158.806 366.79 158.326 366.79C157.838 366.79 157.409 366.906 157.041 367.137C156.672 367.369 156.385 367.69 156.179 368.102C155.982 368.504 155.883 368.967 155.883 369.49C155.883 370.013 155.995 370.476 156.218 370.879C156.449 371.282 156.762 371.599 157.156 371.83C157.551 372.062 158.005 372.177 158.519 372.177C158.828 372.177 159.136 372.126 159.445 372.023C159.762 371.912 160.015 371.774 160.203 371.612C160.298 371.534 160.405 371.496 160.525 371.496C160.645 371.487 160.748 371.517 160.833 371.586C160.945 371.689 161.001 371.8 161.001 371.92C161.009 372.04 160.962 372.143 160.859 372.229C160.576 372.469 160.216 372.67 159.779 372.833C159.342 372.987 158.922 373.064 158.519 373.064Z" fill="white"/>
<path d="M261.139 373C260.993 373 260.873 372.953 260.779 372.859C260.685 372.764 260.638 372.644 260.638 372.499V363.46C260.638 363.314 260.685 363.194 260.779 363.1C260.873 363.006 260.993 362.959 261.139 362.959H267.169C267.306 362.959 267.422 363.006 267.516 363.1C267.619 363.186 267.67 363.302 267.67 363.447C267.67 363.576 267.619 363.687 267.516 363.782C267.422 363.876 267.306 363.923 267.169 363.923H261.64V367.472H265.665C265.81 367.472 265.93 367.519 266.025 367.613C266.119 367.707 266.166 367.823 266.166 367.96C266.166 368.097 266.119 368.213 266.025 368.307C265.93 368.402 265.81 368.449 265.665 368.449H261.64V372.036H267.169C267.306 372.036 267.422 372.083 267.516 372.177C267.619 372.272 267.67 372.383 267.67 372.512C267.67 372.657 267.619 372.777 267.516 372.872C267.422 372.957 267.306 373 267.169 373H261.139ZM273.933 373C273.83 373 273.745 372.983 273.676 372.949C273.616 372.914 273.552 372.854 273.483 372.769L271.259 369.94L270.873 369.606L268.636 366.764C268.542 366.653 268.495 366.537 268.495 366.417C268.503 366.297 268.546 366.194 268.623 366.109C268.7 366.014 268.812 365.967 268.958 365.967C269.103 365.967 269.228 366.019 269.33 366.122L271.49 368.886L271.838 369.169L274.229 372.229C274.34 372.366 274.388 372.494 274.37 372.614C274.353 372.734 274.298 372.829 274.203 372.897C274.118 372.966 274.028 373 273.933 373ZM268.842 373C268.705 373 268.593 372.957 268.508 372.872C268.43 372.786 268.388 372.683 268.379 372.563C268.379 372.443 268.426 372.327 268.52 372.216L270.886 369.259L271.439 369.992L269.189 372.846C269.112 372.949 268.996 373 268.842 373ZM271.85 369.657L271.22 369.014L273.445 366.199C273.505 366.113 273.569 366.053 273.638 366.019C273.715 365.984 273.792 365.967 273.869 365.967C274.015 365.967 274.126 366.014 274.203 366.109C274.28 366.194 274.315 366.302 274.306 366.43C274.306 366.55 274.263 366.666 274.178 366.777L271.85 369.657ZM276.567 376.009C276.413 376.009 276.289 375.962 276.194 375.867C276.109 375.782 276.066 375.662 276.066 375.507V369.439C276.074 368.77 276.233 368.17 276.541 367.639C276.859 367.099 277.283 366.674 277.814 366.366C278.354 366.057 278.959 365.903 279.627 365.903C280.313 365.903 280.926 366.062 281.466 366.379C282.006 366.687 282.43 367.112 282.739 367.652C283.056 368.192 283.214 368.804 283.214 369.49C283.214 370.167 283.06 370.776 282.751 371.316C282.451 371.856 282.04 372.284 281.517 372.602C280.994 372.91 280.403 373.064 279.743 373.064C279.169 373.064 278.646 372.944 278.174 372.704C277.711 372.456 277.339 372.13 277.056 371.727V375.507C277.056 375.662 277.009 375.782 276.914 375.867C276.829 375.962 276.713 376.009 276.567 376.009ZM279.627 372.164C280.124 372.164 280.57 372.049 280.964 371.817C281.359 371.586 281.667 371.269 281.89 370.866C282.121 370.454 282.237 369.996 282.237 369.49C282.237 368.976 282.121 368.517 281.89 368.114C281.667 367.712 281.359 367.394 280.964 367.163C280.57 366.923 280.124 366.803 279.627 366.803C279.139 366.803 278.697 366.923 278.303 367.163C277.909 367.394 277.6 367.712 277.377 368.114C277.154 368.517 277.043 368.976 277.043 369.49C277.043 369.996 277.154 370.454 277.377 370.866C277.6 371.269 277.909 371.586 278.303 371.817C278.697 372.049 279.139 372.164 279.627 372.164ZM285.863 373C285.709 373 285.585 372.957 285.49 372.872C285.405 372.777 285.362 372.653 285.362 372.499V366.469C285.362 366.314 285.405 366.194 285.49 366.109C285.585 366.014 285.709 365.967 285.863 365.967C286.009 365.967 286.125 366.014 286.21 366.109C286.305 366.194 286.352 366.314 286.352 366.469V372.499C286.352 372.653 286.305 372.777 286.21 372.872C286.125 372.957 286.009 373 285.863 373ZM285.85 364.63C285.662 364.63 285.499 364.562 285.362 364.424C285.225 364.287 285.156 364.12 285.156 363.923C285.156 363.709 285.225 363.542 285.362 363.422C285.508 363.293 285.675 363.229 285.863 363.229C286.043 363.229 286.202 363.293 286.339 363.422C286.485 363.542 286.558 363.709 286.558 363.923C286.558 364.12 286.489 364.287 286.352 364.424C286.215 364.562 286.048 364.63 285.85 364.63ZM289.284 368.667C289.31 368.136 289.447 367.66 289.695 367.24C289.953 366.82 290.283 366.49 290.685 366.25C291.097 366.01 291.551 365.89 292.048 365.89C292.443 365.89 292.747 365.946 292.961 366.057C293.175 366.169 293.257 366.332 293.205 366.546C293.171 366.674 293.111 366.76 293.025 366.803C292.948 366.846 292.85 366.863 292.73 366.854C292.618 366.846 292.49 366.837 292.344 366.829C291.864 366.786 291.435 366.837 291.058 366.983C290.69 367.12 290.394 367.334 290.171 367.626C289.957 367.917 289.85 368.264 289.85 368.667H289.284ZM289.361 373C289.207 373 289.087 372.957 289.001 372.872C288.915 372.786 288.873 372.666 288.873 372.512V366.456C288.873 366.302 288.915 366.182 289.001 366.096C289.087 366.01 289.207 365.967 289.361 365.967C289.515 365.967 289.635 366.01 289.721 366.096C289.807 366.182 289.85 366.302 289.85 366.456V372.512C289.85 372.666 289.807 372.786 289.721 372.872C289.635 372.957 289.515 373 289.361 373ZM295.97 376.06C295.901 376.06 295.824 376.043 295.738 376.009C295.447 375.88 295.366 375.674 295.494 375.392L299.647 366.237C299.776 365.963 299.981 365.886 300.264 366.006C300.556 366.126 300.637 366.327 300.508 366.61L296.343 375.764C296.257 375.962 296.133 376.06 295.97 376.06ZM297.397 372.782C297.268 372.842 297.148 372.854 297.037 372.82C296.926 372.777 296.836 372.692 296.767 372.563L293.9 366.623C293.84 366.494 293.831 366.374 293.874 366.263C293.917 366.152 294.003 366.066 294.131 366.006C294.26 365.946 294.38 365.937 294.491 365.98C294.603 366.014 294.688 366.096 294.748 366.224L297.564 372.164C297.633 372.293 297.654 372.413 297.628 372.524C297.603 372.636 297.526 372.722 297.397 372.782Z" fill="white"/>
<path d="M267.116 415.429C265.354 415.429 263.842 414.869 262.581 413.75C261.319 412.631 260.354 411.036 259.688 408.964C259.045 406.869 258.723 404.357 258.723 401.429C258.723 398.548 259.045 396.06 259.688 393.964C260.354 391.869 261.319 390.262 262.581 389.143C263.842 388.024 265.354 387.464 267.116 387.464C268.926 387.464 270.45 388.036 271.688 389.179C272.95 390.298 273.902 391.905 274.545 394C275.211 396.095 275.545 398.572 275.545 401.429C275.545 404.333 275.211 406.833 274.545 408.929C273.902 411 272.95 412.607 271.688 413.75C270.45 414.869 268.926 415.429 267.116 415.429ZM267.116 412.643C268.402 412.643 269.461 412.167 270.295 411.214C271.128 410.238 271.747 408.905 272.152 407.214C272.557 405.524 272.759 403.595 272.759 401.429C272.759 399.286 272.545 397.381 272.116 395.714C271.711 394.024 271.092 392.691 270.259 391.714C269.426 390.738 268.378 390.25 267.116 390.25C265.854 390.25 264.807 390.738 263.973 391.714C263.164 392.667 262.545 393.988 262.116 395.679C261.711 397.369 261.509 399.286 261.509 401.429C261.509 403.619 261.711 405.56 262.116 407.25C262.545 408.917 263.164 410.238 263.973 411.214C264.807 412.167 265.854 412.643 267.116 412.643ZM287.305 387.5C288.924 387.5 290.365 387.869 291.627 388.607C292.888 389.322 293.877 390.31 294.591 391.572C295.329 392.833 295.698 394.274 295.698 395.893C295.698 397.488 295.329 398.929 294.591 400.214C293.877 401.476 292.888 402.476 291.627 403.214C290.365 403.929 288.924 404.286 287.305 404.286C285.686 404.286 284.246 403.929 282.984 403.214C281.746 402.476 280.758 401.476 280.019 400.214C279.305 398.929 278.948 397.488 278.948 395.893C278.948 394.274 279.305 392.833 280.019 391.572C280.758 390.31 281.746 389.322 282.984 388.607C284.246 387.869 285.686 387.5 287.305 387.5ZM287.305 390.072C286.21 390.072 285.234 390.322 284.377 390.822C283.519 391.322 282.841 392.012 282.341 392.893C281.841 393.774 281.591 394.774 281.591 395.893C281.591 397.012 281.841 398.012 282.341 398.893C282.841 399.774 283.519 400.476 284.377 401C285.234 401.5 286.21 401.75 287.305 401.75C288.4 401.75 289.377 401.5 290.234 401C291.115 400.476 291.805 399.774 292.305 398.893C292.805 398.012 293.055 397.012 293.055 395.893C293.055 394.774 292.805 393.774 292.305 392.893C291.805 392.012 291.115 391.322 290.234 390.822C289.377 390.322 288.4 390.072 287.305 390.072ZM294.627 400.143L285.841 414.643C285.508 415.143 285.091 415.393 284.591 415.393C284.21 415.393 283.888 415.286 283.627 415.072C283.388 414.857 283.234 414.583 283.162 414.25C283.115 413.917 283.186 413.583 283.377 413.25L289.234 403.679L294.627 400.143ZM300.773 418.214C300.273 418.214 299.88 418.012 299.594 417.607C299.333 417.226 299.309 416.774 299.523 416.25L310.737 388.286C310.833 388.024 310.999 387.822 311.237 387.679C311.475 387.536 311.737 387.464 312.023 387.464C312.547 387.464 312.928 387.679 313.166 388.107C313.404 388.512 313.44 388.953 313.273 389.429L302.059 417.429C301.94 417.714 301.761 417.917 301.523 418.036C301.285 418.155 301.035 418.214 300.773 418.214ZM318.693 415.429C318.312 415.429 317.978 415.298 317.693 415.036C317.431 414.774 317.3 414.441 317.3 414.036C317.3 413.679 317.431 413.357 317.693 413.072L328.514 400.286C329.109 399.643 329.586 398.929 329.943 398.143C330.3 397.333 330.478 396.583 330.478 395.893C330.478 394.774 330.252 393.786 329.8 392.929C329.371 392.072 328.752 391.405 327.943 390.929C327.157 390.429 326.252 390.179 325.228 390.179C324.228 390.179 323.312 390.441 322.478 390.964C321.669 391.464 321.026 392.143 320.55 393C320.097 393.857 319.871 394.822 319.871 395.893C319.871 396.274 319.74 396.595 319.478 396.857C319.217 397.119 318.883 397.25 318.478 397.25C318.097 397.25 317.764 397.119 317.478 396.857C317.217 396.595 317.086 396.274 317.086 395.893C317.086 394.298 317.443 392.869 318.157 391.607C318.871 390.345 319.836 389.345 321.05 388.607C322.288 387.869 323.681 387.5 325.228 387.5C326.776 387.5 328.145 387.857 329.336 388.572C330.55 389.286 331.49 390.274 332.157 391.536C332.847 392.798 333.193 394.25 333.193 395.893C333.193 396.679 333.062 397.429 332.8 398.143C332.562 398.857 332.228 399.548 331.8 400.214C331.371 400.857 330.907 401.464 330.407 402.036L321.264 412.643H332.443C332.824 412.643 333.145 412.786 333.407 413.072C333.693 413.357 333.836 413.679 333.836 414.036C333.836 414.441 333.693 414.774 333.407 415.036C333.145 415.298 332.824 415.429 332.443 415.429H318.693ZM345.695 415.429C343.933 415.429 342.421 414.869 341.159 413.75C339.897 412.631 338.933 411.036 338.266 408.964C337.623 406.869 337.302 404.357 337.302 401.429C337.302 398.548 337.623 396.06 338.266 393.964C338.933 391.869 339.897 390.262 341.159 389.143C342.421 388.024 343.933 387.464 345.695 387.464C347.504 387.464 349.028 388.036 350.266 389.179C351.528 390.298 352.48 391.905 353.123 394C353.79 396.095 354.123 398.572 354.123 401.429C354.123 404.333 353.79 406.833 353.123 408.929C352.48 411 351.528 412.607 350.266 413.75C349.028 414.869 347.504 415.429 345.695 415.429ZM345.695 412.643C346.98 412.643 348.04 412.167 348.873 411.214C349.707 410.238 350.326 408.905 350.73 407.214C351.135 405.524 351.338 403.595 351.338 401.429C351.338 399.286 351.123 397.381 350.695 395.714C350.29 394.024 349.671 392.691 348.838 391.714C348.004 390.738 346.957 390.25 345.695 390.25C344.433 390.25 343.385 390.738 342.552 391.714C341.742 392.667 341.123 393.988 340.695 395.679C340.29 397.369 340.088 399.286 340.088 401.429C340.088 403.619 340.29 405.56 340.695 407.25C341.123 408.917 341.742 410.238 342.552 411.214C343.385 412.167 344.433 412.643 345.695 412.643Z" fill="white"/>
<path d="M419.518 373.129C418.824 373.129 418.172 372.996 417.564 372.73C416.964 372.464 416.432 372.096 415.969 371.624C415.515 371.144 415.159 370.596 414.902 369.979C414.645 369.353 414.517 368.684 414.517 367.973C414.517 367.27 414.641 366.61 414.889 365.993C415.147 365.367 415.502 364.819 415.957 364.347C416.419 363.876 416.951 363.507 417.551 363.242C418.159 362.967 418.815 362.83 419.518 362.83C420.135 362.83 420.697 362.92 421.202 363.1C421.708 363.28 422.197 363.567 422.668 363.962C422.745 364.022 422.788 364.094 422.797 364.18C422.814 364.257 422.805 364.334 422.771 364.412C422.737 364.48 422.685 364.532 422.617 364.566C422.599 364.634 422.557 364.686 422.488 364.72C422.419 364.754 422.338 364.767 422.244 364.759C422.158 364.75 422.072 364.712 421.987 364.643C421.652 364.352 421.288 364.137 420.894 364C420.499 363.854 420.041 363.782 419.518 363.782C418.961 363.782 418.438 363.893 417.949 364.116C417.469 364.339 417.045 364.643 416.677 365.029C416.308 365.414 416.017 365.86 415.802 366.366C415.597 366.872 415.494 367.407 415.494 367.973C415.494 368.556 415.597 369.1 415.802 369.606C416.017 370.112 416.308 370.557 416.677 370.943C417.045 371.329 417.469 371.633 417.949 371.856C418.438 372.07 418.961 372.177 419.518 372.177C419.989 372.177 420.435 372.1 420.855 371.946C421.275 371.792 421.674 371.569 422.051 371.277C422.154 371.192 422.261 371.157 422.372 371.174C422.492 371.192 422.595 371.243 422.681 371.329C422.767 371.414 422.809 371.526 422.809 371.663C422.809 371.732 422.797 371.796 422.771 371.856C422.754 371.907 422.719 371.963 422.668 372.023C422.231 372.426 421.742 372.713 421.202 372.884C420.662 373.047 420.101 373.129 419.518 373.129ZM428.204 373C427.99 373 427.835 372.893 427.741 372.679L423.923 363.743C423.828 363.503 423.82 363.314 423.897 363.177C423.983 363.032 424.128 362.959 424.334 362.959C424.548 362.959 424.703 363.066 424.797 363.28L428.345 371.766H428.063L431.598 363.306C431.65 363.177 431.714 363.087 431.791 363.036C431.868 362.984 431.971 362.959 432.1 362.959C432.297 362.959 432.43 363.036 432.498 363.19C432.567 363.336 432.563 363.503 432.485 363.692L428.654 372.679C428.603 372.799 428.538 372.884 428.461 372.936C428.384 372.979 428.298 373 428.204 373ZM437.407 373C437.193 373 437.039 372.893 436.945 372.679L433.126 363.743C433.032 363.503 433.023 363.314 433.1 363.177C433.186 363.032 433.332 362.959 433.537 362.959C433.752 362.959 433.906 363.066 434 363.28L437.549 371.766H437.266L440.802 363.306C440.853 363.177 440.917 363.087 440.995 363.036C441.072 362.984 441.175 362.959 441.303 362.959C441.5 362.959 441.633 363.036 441.702 363.19C441.77 363.336 441.766 363.503 441.689 363.692L437.857 372.679C437.806 372.799 437.742 372.884 437.665 372.936C437.587 372.979 437.502 373 437.407 373Z" fill="white"/>
<path d="M415.013 415.429C414.632 415.429 414.299 415.298 414.013 415.036C413.751 414.774 413.62 414.441 413.62 414.036C413.62 413.679 413.751 413.357 414.013 413.072L424.835 400.286C425.43 399.643 425.906 398.929 426.263 398.143C426.62 397.333 426.799 396.583 426.799 395.893C426.799 394.774 426.573 393.786 426.12 392.929C425.692 392.072 425.073 391.405 424.263 390.929C423.478 390.429 422.573 390.179 421.549 390.179C420.549 390.179 419.632 390.441 418.799 390.964C417.99 391.464 417.347 392.143 416.87 393C416.418 393.857 416.192 394.822 416.192 395.893C416.192 396.274 416.061 396.595 415.799 396.857C415.537 397.119 415.204 397.25 414.799 397.25C414.418 397.25 414.085 397.119 413.799 396.857C413.537 396.595 413.406 396.274 413.406 395.893C413.406 394.298 413.763 392.869 414.478 391.607C415.192 390.345 416.156 389.345 417.37 388.607C418.609 387.869 420.001 387.5 421.549 387.5C423.097 387.5 424.466 387.857 425.656 388.572C426.87 389.286 427.811 390.274 428.478 391.536C429.168 392.798 429.513 394.25 429.513 395.893C429.513 396.679 429.382 397.429 429.12 398.143C428.882 398.857 428.549 399.548 428.12 400.214C427.692 400.857 427.228 401.464 426.728 402.036L417.585 412.643H428.763C429.144 412.643 429.466 412.786 429.728 413.072C430.013 413.357 430.156 413.679 430.156 414.036C430.156 414.441 430.013 414.774 429.728 415.036C429.466 415.298 429.144 415.429 428.763 415.429H415.013ZM441.801 387.5C443.42 387.5 444.861 387.869 446.122 388.607C447.384 389.322 448.372 390.31 449.087 391.572C449.825 392.833 450.194 394.274 450.194 395.893C450.194 397.488 449.825 398.929 449.087 400.214C448.372 401.476 447.384 402.476 446.122 403.214C444.861 403.929 443.42 404.286 441.801 404.286C440.182 404.286 438.741 403.929 437.48 403.214C436.241 402.476 435.253 401.476 434.515 400.214C433.801 398.929 433.444 397.488 433.444 395.893C433.444 394.274 433.801 392.833 434.515 391.572C435.253 390.31 436.241 389.322 437.48 388.607C438.741 387.869 440.182 387.5 441.801 387.5ZM441.801 390.072C440.706 390.072 439.73 390.322 438.872 390.822C438.015 391.322 437.337 392.012 436.837 392.893C436.337 393.774 436.087 394.774 436.087 395.893C436.087 397.012 436.337 398.012 436.837 398.893C437.337 399.774 438.015 400.476 438.872 401C439.73 401.5 440.706 401.75 441.801 401.75C442.896 401.75 443.872 401.5 444.73 401C445.611 400.476 446.301 399.774 446.801 398.893C447.301 398.012 447.551 397.012 447.551 395.893C447.551 394.774 447.301 393.774 446.801 392.893C446.301 392.012 445.611 391.322 444.73 390.822C443.872 390.322 442.896 390.072 441.801 390.072ZM449.122 400.143L440.337 414.643C440.003 415.143 439.587 415.393 439.087 415.393C438.706 415.393 438.384 415.286 438.122 415.072C437.884 414.857 437.73 414.583 437.658 414.25C437.611 413.917 437.682 413.583 437.872 413.25L443.73 403.679L449.122 400.143ZM462.483 387.5C464.102 387.5 465.543 387.869 466.805 388.607C468.067 389.322 469.055 390.31 469.769 391.572C470.507 392.833 470.876 394.274 470.876 395.893C470.876 397.488 470.507 398.929 469.769 400.214C469.055 401.476 468.067 402.476 466.805 403.214C465.543 403.929 464.102 404.286 462.483 404.286C460.864 404.286 459.424 403.929 458.162 403.214C456.924 402.476 455.936 401.476 455.197 400.214C454.483 398.929 454.126 397.488 454.126 395.893C454.126 394.274 454.483 392.833 455.197 391.572C455.936 390.31 456.924 389.322 458.162 388.607C459.424 387.869 460.864 387.5 462.483 387.5ZM462.483 390.072C461.388 390.072 460.412 390.322 459.555 390.822C458.697 391.322 458.019 392.012 457.519 392.893C457.019 393.774 456.769 394.774 456.769 395.893C456.769 397.012 457.019 398.012 457.519 398.893C458.019 399.774 458.697 400.476 459.555 401C460.412 401.5 461.388 401.75 462.483 401.75C463.578 401.75 464.555 401.5 465.412 401C466.293 400.476 466.983 399.774 467.483 398.893C467.983 398.012 468.233 397.012 468.233 395.893C468.233 394.774 467.983 393.774 467.483 392.893C466.983 392.012 466.293 391.322 465.412 390.822C464.555 390.322 463.578 390.072 462.483 390.072ZM469.805 400.143L461.019 414.643C460.686 415.143 460.269 415.393 459.769 415.393C459.388 415.393 459.067 415.286 458.805 415.072C458.567 414.857 458.412 414.583 458.34 414.25C458.293 413.917 458.364 413.583 458.555 413.25L464.412 403.679L469.805 400.143Z" fill="white"/>
<path d="M118.46 170.075H131.016V177.05H118.46V170.075Z" fill="white"/>
<path d="M84.6986 181.236H97.2544V188.211H84.6986V181.236Z" fill="white"/>
<path d="M84.6986 170.075H97.2544V177.05H84.6986V170.075Z" fill="white"/>
<path d="M101.44 172.865H114.275V185.421H101.44V172.865Z" fill="white"/>
<path d="M118.46 181.236H131.016V188.211H118.46V181.236Z" fill="white"/>
<path d="M99.347 165.89C100.503 165.89 101.44 166.827 101.44 167.982V168.68H105.764V163.797C105.764 163.242 105.985 162.71 106.377 162.317L106.99 161.704H84.6986V165.89H99.347Z" fill="white"/>
<path d="M109.95 164.664V168.68H114.274V167.982C114.274 166.827 115.211 165.89 116.367 165.89H131.016V161.704H112.909L109.95 164.664Z" fill="white"/>
<path d="M116.367 192.396C115.211 192.396 114.275 191.459 114.275 190.304V189.606H109.95V194.489C109.95 195.044 109.729 195.576 109.337 195.969L108.724 196.582H131.016V192.396H116.367Z" fill="white"/>
<path d="M105.764 193.622V189.606H101.44V190.304C101.44 191.459 100.503 192.396 99.347 192.396H84.6986V196.582H102.805L105.764 193.622Z" fill="white"/>
<path d="M133.108 149.149H82.606C76.8366 149.149 72.1428 153.842 72.1428 159.612V198.674C72.1428 204.444 76.8366 209.137 82.606 209.137H133.108C138.878 209.137 143.571 204.444 143.571 198.674V159.612C143.571 153.842 138.878 149.149 133.108 149.149ZM135.201 198.674C135.201 199.83 134.264 200.767 133.108 200.767H82.606C81.4503 200.767 80.5134 199.83 80.5134 198.674V159.612C80.5134 158.456 81.4503 157.519 82.606 157.519H133.108C134.264 157.519 135.201 158.456 135.201 159.612V198.674Z" fill="white"/>
<defs>
<filter id="filter0_bd_204_4" x="-5.50562" y="-8.50562" width="794.446" height="525.237" filterUnits="userSpaceOnUse" color-interpolation-filters="sRGB">
<feFlood flood-opacity="0" result="BackgroundImageFix"/>
<feGaussianBlur in="BackgroundImage" stdDeviation="10.2528"/>
<feComposite in2="SourceAlpha" operator="in" result="effect1_backgroundBlur_204_4"/>
<feColorMatrix in="SourceAlpha" type="matrix" values="0 0 0 0 0 0 0 0 0 0 0 0 0 0 0 0 0 0 127 0" result="hardAlpha"/>
<feOffset dx="14.6469" dy="17.5762"/>
<feGaussianBlur stdDeviation="14.6469"/>
<feColorMatrix type="matrix" values="0 0 0 0 0 0 0 0 0 0 0 0 0 0 0 0 0 0 0.05 0"/>
<feBlend mode="normal" in2="effect1_backgroundBlur_204_4" result="effect2_dropShadow_204_4"/>
<feBlend mode="normal" in="SourceGraphic" in2="effect2_dropShadow_204_4" result="shape"/>
</filter>
<linearGradient id="paint0_linear_204_4" x1="51.4707" y1="12" x2="824.24" y2="532.696" gradientUnits="userSpaceOnUse">
<stop stop-color="white" stop-opacity="0.51"/>
<stop offset="1" stop-color="white" stop-opacity="0"/>
</linearGradient>
<linearGradient id="paint1_linear_204_4" x1="15" y1="31.3339" x2="745" y2="469.861" gradientUnits="userSpaceOnUse">
<stop stop-color="white" stop-opacity="0.5"/>
<stop offset="1" stop-color="white" stop-opacity="0.23"/>
</linearGradient>
</defs>
</svg>
