<svg width="730" height="458" viewBox="0 0 730 458" fill="none" xmlns="http://www.w3.org/2000/svg">
<rect width="730" height="457.72" rx="47" fill="#E91818"/>
<rect width="730" height="457.721" rx="43.9406" fill="url(#paint0_linear_205_3)"/>
<path d="M588.057 57.85L580.87 100.017H592.365L599.559 57.85H588.057Z" fill="white"/>
<path d="M571.231 57.8972L559.972 86.6537L558.772 82.3117C556.551 77.08 550.248 69.5665 542.847 64.8314L553.142 99.9959L565.306 99.9753L583.41 57.8884L571.231 57.8972Z" fill="white"/>
<path d="M554.408 60.9148C553.74 58.3462 551.803 57.5807 549.399 57.4891H531.577L531.429 58.3285C545.298 61.6921 554.476 69.7968 558.284 79.5419L554.408 60.9148Z" fill="white"/>
<path d="M622.857 65.9336C626.618 65.8745 629.344 66.6962 631.461 67.5475L632.499 68.0352L634.054 58.896C631.777 58.0418 628.209 57.1255 623.756 57.1255C612.397 57.1255 604.39 62.8449 604.328 71.0412C604.254 77.0975 610.031 80.4789 614.395 82.4976C618.875 84.5667 620.377 85.882 620.356 87.7293C620.32 90.5521 616.784 91.8467 613.482 91.8467C608.878 91.8467 606.433 91.2112 602.657 89.6387L601.176 88.9648L599.559 98.4025C602.249 99.5819 607.214 100.596 612.367 100.649C624.451 100.649 632.304 94.9975 632.386 86.2396C632.437 81.4484 629.371 77.7921 622.727 74.792C618.706 72.8353 616.246 71.5348 616.27 69.5603C616.27 67.8076 618.357 65.9336 622.857 65.9336Z" fill="white"/>
<path d="M663.556 57.8967H654.674C651.915 57.8967 649.863 58.6475 648.651 61.3963L631.583 100.04H643.655C643.655 100.04 645.624 94.8436 646.07 93.7056C647.392 93.7056 659.121 93.7233 660.791 93.7233C661.134 95.1953 662.193 100.04 662.193 100.04H672.857L663.556 57.8967ZM649.379 85.0748C650.325 82.6541 653.958 73.2903 653.958 73.2903C653.896 73.4055 654.896 70.8518 655.49 69.2645L656.265 72.9001C656.265 72.9001 658.467 82.9674 658.929 85.0748H649.379Z" fill="white"/>
<path d="M80.0206 278.214C79.5206 278.214 79.0873 278.031 78.7206 277.664C78.354 277.298 78.1706 276.831 78.1706 276.264V268.864H60.2706C59.7373 268.864 59.2873 268.698 58.9206 268.364C58.5873 267.998 58.3873 267.581 58.3206 267.114C58.2873 266.648 58.4206 266.214 58.7206 265.814L78.5206 239.914C78.6873 239.681 78.8873 239.498 79.1206 239.364C79.3873 239.198 79.7206 239.114 80.1206 239.114C80.654 239.114 81.0873 239.314 81.4206 239.714C81.7873 240.081 81.9706 240.548 81.9706 241.114V265.364H85.9206C86.454 265.364 86.904 265.498 87.2706 265.764C87.6373 266.031 87.8206 266.498 87.8206 267.164C87.8206 267.598 87.6373 267.998 87.2706 268.364C86.904 268.698 86.454 268.864 85.9206 268.864H81.9706V276.264C81.9706 276.831 81.7873 277.298 81.4206 277.664C81.054 278.031 80.5873 278.214 80.0206 278.214ZM62.3706 266.864L61.6706 265.364H78.1706V243.914L79.1706 244.964L62.3706 266.864ZM103.403 278.214C101.003 278.214 98.8534 277.664 96.9534 276.564C95.0534 275.431 93.5368 273.914 92.4034 272.014C91.3034 270.081 90.7534 267.914 90.7534 265.514C90.7534 264.948 90.9368 264.481 91.3034 264.114C91.6701 263.748 92.1201 263.564 92.6534 263.564C93.2201 263.564 93.6868 263.748 94.0534 264.114C94.4534 264.481 94.6534 264.948 94.6534 265.514C94.6534 267.181 95.0368 268.681 95.8034 270.014C96.5701 271.348 97.6034 272.398 98.9034 273.164C100.237 273.931 101.737 274.314 103.403 274.314C105.07 274.314 106.57 273.931 107.903 273.164C109.237 272.398 110.287 271.348 111.053 270.014C111.82 268.681 112.203 267.181 112.203 265.514C112.203 263.848 111.82 262.348 111.053 261.014C110.287 259.681 109.237 258.631 107.903 257.864C106.57 257.098 105.07 256.714 103.403 256.714H94.6534C94.0868 256.714 93.6201 256.531 93.2534 256.164C92.8868 255.764 92.7034 255.298 92.7034 254.764V241.064C92.7034 240.531 92.8868 240.081 93.2534 239.714C93.6201 239.314 94.0868 239.114 94.6534 239.114H112.203C112.737 239.114 113.187 239.314 113.553 239.714C113.953 240.081 114.153 240.531 114.153 241.064C114.153 241.598 113.97 242.064 113.603 242.464C113.237 242.831 112.77 243.014 112.203 243.014H96.5534V252.814H103.403C105.837 252.814 108.003 253.381 109.903 254.514C111.803 255.614 113.303 257.131 114.403 259.064C115.537 260.964 116.103 263.114 116.103 265.514C116.103 267.914 115.537 270.081 114.403 272.014C113.303 273.914 111.803 275.431 109.903 276.564C108.003 277.664 105.837 278.214 103.403 278.214ZM134.751 278.214C132.351 278.214 130.201 277.664 128.301 276.564C126.401 275.431 124.884 273.914 123.751 272.014C122.651 270.081 122.101 267.914 122.101 265.514C122.101 264.948 122.284 264.481 122.651 264.114C123.018 263.748 123.468 263.564 124.001 263.564C124.568 263.564 125.034 263.748 125.401 264.114C125.801 264.481 126.001 264.948 126.001 265.514C126.001 267.181 126.384 268.681 127.151 270.014C127.918 271.348 128.951 272.398 130.251 273.164C131.584 273.931 133.084 274.314 134.751 274.314C136.418 274.314 137.918 273.931 139.251 273.164C140.584 272.398 141.634 271.348 142.401 270.014C143.168 268.681 143.551 267.181 143.551 265.514C143.551 263.848 143.168 262.348 142.401 261.014C141.634 259.681 140.584 258.631 139.251 257.864C137.918 257.098 136.418 256.714 134.751 256.714H126.001C125.434 256.714 124.968 256.531 124.601 256.164C124.234 255.764 124.051 255.298 124.051 254.764V241.064C124.051 240.531 124.234 240.081 124.601 239.714C124.968 239.314 125.434 239.114 126.001 239.114H143.551C144.084 239.114 144.534 239.314 144.901 239.714C145.301 240.081 145.501 240.531 145.501 241.064C145.501 241.598 145.318 242.064 144.951 242.464C144.584 242.831 144.118 243.014 143.551 243.014H127.901V252.814H134.751C137.184 252.814 139.351 253.381 141.251 254.514C143.151 255.614 144.651 257.131 145.751 259.064C146.884 260.964 147.451 263.114 147.451 265.514C147.451 267.914 146.884 270.081 145.751 272.014C144.651 273.914 143.151 275.431 141.251 276.564C139.351 277.664 137.184 278.214 134.751 278.214ZM165.199 278.214C162.932 278.214 160.915 277.714 159.149 276.714C157.382 275.681 155.982 274.281 154.949 272.514C153.949 270.748 153.449 268.731 153.449 266.464C153.449 264.231 153.949 262.231 154.949 260.464C155.982 258.664 157.382 257.264 159.149 256.264C160.915 255.231 162.932 254.714 165.199 254.714C167.432 254.714 169.432 255.231 171.199 256.264C172.965 257.264 174.349 258.664 175.349 260.464C176.382 262.231 176.899 264.231 176.899 266.464C176.899 268.731 176.382 270.748 175.349 272.514C174.349 274.281 172.965 275.681 171.199 276.714C169.432 277.714 167.432 278.214 165.199 278.214ZM165.149 274.614C166.682 274.614 168.049 274.264 169.249 273.564C170.482 272.864 171.449 271.898 172.149 270.664C172.849 269.431 173.199 268.031 173.199 266.464C173.199 264.898 172.849 263.498 172.149 262.264C171.449 261.031 170.482 260.064 169.249 259.364C168.049 258.631 166.682 258.264 165.149 258.264C163.615 258.264 162.249 258.631 161.049 259.364C159.849 260.064 158.899 261.031 158.199 262.264C157.499 263.498 157.149 264.898 157.149 266.464C157.149 268.031 157.499 269.431 158.199 270.664C158.899 271.898 159.849 272.864 161.049 273.564C162.249 274.264 163.615 274.614 165.149 274.614ZM154.899 260.514L167.249 240.214C167.682 239.514 168.265 239.164 168.999 239.164C169.499 239.164 169.932 239.314 170.299 239.614C170.665 239.914 170.882 240.298 170.949 240.764C171.049 241.231 170.965 241.681 170.699 242.114L162.449 255.564L154.899 260.514ZM208.802 278.464C206.469 278.464 204.369 277.964 202.502 276.964C200.669 275.931 199.219 274.531 198.152 272.764C197.086 270.998 196.552 268.998 196.552 266.764C196.552 266.198 196.719 265.714 197.052 265.314C197.386 264.914 197.836 264.714 198.402 264.714C198.969 264.714 199.419 264.914 199.752 265.314C200.086 265.714 200.252 266.198 200.252 266.764C200.252 268.298 200.619 269.681 201.352 270.914C202.086 272.114 203.086 273.081 204.352 273.814C205.652 274.514 207.086 274.864 208.652 274.864C211.252 274.864 213.286 274.148 214.752 272.714C216.219 271.248 216.952 269.364 216.952 267.064C216.952 265.431 216.602 264.014 215.902 262.814C215.202 261.581 214.252 260.631 213.052 259.964C211.852 259.264 210.502 258.914 209.002 258.914C208.469 258.914 208.019 258.731 207.652 258.364C207.286 257.998 207.102 257.531 207.102 256.964C207.102 256.431 207.286 255.981 207.652 255.614C208.019 255.248 208.469 255.064 209.002 255.064C210.169 255.064 211.236 254.781 212.202 254.214C213.202 253.614 214.002 252.831 214.602 251.864C215.202 250.898 215.502 249.831 215.502 248.664C215.502 246.898 214.902 245.431 213.702 244.264C212.502 243.064 210.902 242.464 208.902 242.464C207.502 242.464 206.252 242.748 205.152 243.314C204.052 243.848 203.186 244.581 202.552 245.514C201.952 246.414 201.652 247.448 201.652 248.614C201.652 249.181 201.469 249.664 201.102 250.064C200.769 250.431 200.336 250.614 199.802 250.614C199.236 250.614 198.786 250.431 198.452 250.064C198.119 249.664 197.952 249.198 197.952 248.664C197.952 246.831 198.419 245.181 199.352 243.714C200.319 242.214 201.619 241.048 203.252 240.214C204.886 239.348 206.769 238.914 208.902 238.914C210.836 238.914 212.569 239.348 214.102 240.214C215.669 241.048 216.902 242.214 217.802 243.714C218.736 245.181 219.202 246.831 219.202 248.664C219.202 249.798 218.919 250.898 218.352 251.964C217.819 253.031 217.102 253.998 216.202 254.864C215.302 255.698 214.319 256.348 213.252 256.814C214.952 257.314 216.369 258.081 217.502 259.114C218.636 260.148 219.469 261.364 220.002 262.764C220.536 264.131 220.802 265.564 220.802 267.064C220.802 269.264 220.269 271.231 219.202 272.964C218.169 274.664 216.736 276.014 214.902 277.014C213.069 277.981 211.036 278.464 208.802 278.464ZM238.05 278.464C235.717 278.464 233.617 277.964 231.75 276.964C229.917 275.931 228.467 274.531 227.4 272.764C226.334 270.998 225.8 268.998 225.8 266.764C225.8 266.198 225.967 265.714 226.3 265.314C226.634 264.914 227.084 264.714 227.65 264.714C228.217 264.714 228.667 264.914 229 265.314C229.334 265.714 229.5 266.198 229.5 266.764C229.5 268.298 229.867 269.681 230.6 270.914C231.334 272.114 232.334 273.081 233.6 273.814C234.9 274.514 236.334 274.864 237.9 274.864C240.5 274.864 242.534 274.148 244 272.714C245.467 271.248 246.2 269.364 246.2 267.064C246.2 265.431 245.85 264.014 245.15 262.814C244.45 261.581 243.5 260.631 242.3 259.964C241.1 259.264 239.75 258.914 238.25 258.914C237.717 258.914 237.267 258.731 236.9 258.364C236.534 257.998 236.35 257.531 236.35 256.964C236.35 256.431 236.534 255.981 236.9 255.614C237.267 255.248 237.717 255.064 238.25 255.064C239.417 255.064 240.484 254.781 241.45 254.214C242.45 253.614 243.25 252.831 243.85 251.864C244.45 250.898 244.75 249.831 244.75 248.664C244.75 246.898 244.15 245.431 242.95 244.264C241.75 243.064 240.15 242.464 238.15 242.464C236.75 242.464 235.5 242.748 234.4 243.314C233.3 243.848 232.434 244.581 231.8 245.514C231.2 246.414 230.9 247.448 230.9 248.614C230.9 249.181 230.717 249.664 230.35 250.064C230.017 250.431 229.584 250.614 229.05 250.614C228.484 250.614 228.034 250.431 227.7 250.064C227.367 249.664 227.2 249.198 227.2 248.664C227.2 246.831 227.667 245.181 228.6 243.714C229.567 242.214 230.867 241.048 232.5 240.214C234.134 239.348 236.017 238.914 238.15 238.914C240.084 238.914 241.817 239.348 243.35 240.214C244.917 241.048 246.15 242.214 247.05 243.714C247.984 245.181 248.45 246.831 248.45 248.664C248.45 249.798 248.167 250.898 247.6 251.964C247.067 253.031 246.35 253.998 245.45 254.864C244.55 255.698 243.567 256.348 242.5 256.814C244.2 257.314 245.617 258.081 246.75 259.114C247.884 260.148 248.717 261.364 249.25 262.764C249.784 264.131 250.05 265.564 250.05 267.064C250.05 269.264 249.517 271.231 248.45 272.964C247.417 274.664 245.984 276.014 244.15 277.014C242.317 277.981 240.284 278.464 238.05 278.464ZM257.798 278.214C257.265 278.214 256.798 278.031 256.398 277.664C256.032 277.298 255.848 276.831 255.848 276.264C255.848 275.764 256.032 275.314 256.398 274.914L271.548 257.014C272.382 256.114 273.048 255.114 273.548 254.014C274.048 252.881 274.298 251.831 274.298 250.864C274.298 249.298 273.982 247.914 273.348 246.714C272.748 245.514 271.882 244.581 270.748 243.914C269.648 243.214 268.382 242.864 266.948 242.864C265.548 242.864 264.265 243.231 263.098 243.964C261.965 244.664 261.065 245.614 260.398 246.814C259.765 248.014 259.448 249.364 259.448 250.864C259.448 251.398 259.265 251.848 258.898 252.214C258.532 252.581 258.065 252.764 257.498 252.764C256.965 252.764 256.498 252.581 256.098 252.214C255.732 251.848 255.548 251.398 255.548 250.864C255.548 248.631 256.048 246.631 257.048 244.864C258.048 243.098 259.398 241.698 261.098 240.664C262.832 239.631 264.782 239.114 266.948 239.114C269.115 239.114 271.032 239.614 272.698 240.614C274.398 241.614 275.715 242.998 276.648 244.764C277.615 246.531 278.098 248.564 278.098 250.864C278.098 251.964 277.915 253.014 277.548 254.014C277.215 255.014 276.748 255.981 276.148 256.914C275.548 257.814 274.898 258.664 274.198 259.464L261.398 274.314H277.048C277.582 274.314 278.032 274.514 278.398 274.914C278.798 275.314 278.998 275.764 278.998 276.264C278.998 276.831 278.798 277.298 278.398 277.664C278.032 278.031 277.582 278.214 277.048 278.214H257.798ZM297.251 278.214C294.851 278.214 292.701 277.664 290.801 276.564C288.901 275.431 287.384 273.914 286.251 272.014C285.151 270.081 284.601 267.914 284.601 265.514C284.601 264.948 284.784 264.481 285.151 264.114C285.518 263.748 285.968 263.564 286.501 263.564C287.068 263.564 287.534 263.748 287.901 264.114C288.301 264.481 288.501 264.948 288.501 265.514C288.501 267.181 288.884 268.681 289.651 270.014C290.418 271.348 291.451 272.398 292.751 273.164C294.084 273.931 295.584 274.314 297.251 274.314C298.918 274.314 300.418 273.931 301.751 273.164C303.084 272.398 304.134 271.348 304.901 270.014C305.668 268.681 306.051 267.181 306.051 265.514C306.051 263.848 305.668 262.348 304.901 261.014C304.134 259.681 303.084 258.631 301.751 257.864C300.418 257.098 298.918 256.714 297.251 256.714H288.501C287.934 256.714 287.468 256.531 287.101 256.164C286.734 255.764 286.551 255.298 286.551 254.764V241.064C286.551 240.531 286.734 240.081 287.101 239.714C287.468 239.314 287.934 239.114 288.501 239.114H306.051C306.584 239.114 307.034 239.314 307.401 239.714C307.801 240.081 308.001 240.531 308.001 241.064C308.001 241.598 307.818 242.064 307.451 242.464C307.084 242.831 306.618 243.014 306.051 243.014H290.401V252.814H297.251C299.684 252.814 301.851 253.381 303.751 254.514C305.651 255.614 307.151 257.131 308.251 259.064C309.384 260.964 309.951 263.114 309.951 265.514C309.951 267.914 309.384 270.081 308.251 272.014C307.151 273.914 305.651 275.431 303.751 276.564C301.851 277.664 299.684 278.214 297.251 278.214ZM342.197 278.414C339.964 278.414 337.964 277.898 336.197 276.864C334.431 275.798 333.031 274.364 331.997 272.564C330.997 270.764 330.497 268.731 330.497 266.464C330.497 264.264 330.997 262.298 331.997 260.564C333.031 258.831 334.431 257.464 336.197 256.464C337.964 255.464 339.964 254.964 342.197 254.964C344.431 254.964 346.431 255.464 348.197 256.464C349.964 257.464 351.347 258.831 352.347 260.564C353.347 262.298 353.847 264.264 353.847 266.464C353.814 268.731 353.281 270.764 352.247 272.564C351.247 274.364 349.864 275.798 348.097 276.864C346.364 277.898 344.397 278.414 342.197 278.414ZM342.197 274.914C343.664 274.914 344.981 274.548 346.147 273.814C347.314 273.048 348.231 272.031 348.897 270.764C349.597 269.498 349.947 268.064 349.947 266.464C349.947 264.931 349.614 263.564 348.947 262.364C348.281 261.131 347.364 260.164 346.197 259.464C345.031 258.764 343.697 258.414 342.197 258.414C340.697 258.414 339.364 258.764 338.197 259.464C337.031 260.164 336.097 261.131 335.397 262.364C334.731 263.564 334.397 264.931 334.397 266.464C334.397 268.064 334.731 269.498 335.397 270.764C336.064 272.031 336.981 273.048 338.147 273.814C339.347 274.548 340.697 274.914 342.197 274.914ZM342.197 258.064C340.364 258.064 338.714 257.648 337.247 256.814C335.781 255.981 334.631 254.848 333.797 253.414C332.964 251.981 332.547 250.348 332.547 248.514C332.547 246.748 332.964 245.148 333.797 243.714C334.631 242.281 335.781 241.148 337.247 240.314C338.714 239.481 340.364 239.064 342.197 239.064C344.031 239.031 345.681 239.431 347.147 240.264C348.614 241.064 349.764 242.198 350.597 243.664C351.431 245.098 351.831 246.714 351.797 248.514C351.797 250.348 351.364 251.981 350.497 253.414C349.664 254.848 348.514 255.981 347.047 256.814C345.614 257.648 343.997 258.064 342.197 258.064ZM342.197 254.714C343.297 254.714 344.281 254.448 345.147 253.914C346.047 253.348 346.764 252.598 347.297 251.664C347.831 250.698 348.097 249.631 348.097 248.464C348.131 247.331 347.881 246.331 347.347 245.464C346.847 244.564 346.147 243.864 345.247 243.364C344.347 242.864 343.331 242.614 342.197 242.614C340.497 242.614 339.081 243.181 337.947 244.314C336.847 245.414 336.281 246.798 336.247 248.464C336.214 250.231 336.764 251.714 337.897 252.914C339.031 254.114 340.464 254.714 342.197 254.714ZM372.886 278.214C370.486 278.214 368.336 277.664 366.436 276.564C364.536 275.431 363.019 273.914 361.886 272.014C360.786 270.081 360.236 267.914 360.236 265.514C360.236 264.948 360.419 264.481 360.786 264.114C361.153 263.748 361.603 263.564 362.136 263.564C362.703 263.564 363.169 263.748 363.536 264.114C363.936 264.481 364.136 264.948 364.136 265.514C364.136 267.181 364.519 268.681 365.286 270.014C366.053 271.348 367.086 272.398 368.386 273.164C369.719 273.931 371.219 274.314 372.886 274.314C374.553 274.314 376.053 273.931 377.386 273.164C378.719 272.398 379.769 271.348 380.536 270.014C381.303 268.681 381.686 267.181 381.686 265.514C381.686 263.848 381.303 262.348 380.536 261.014C379.769 259.681 378.719 258.631 377.386 257.864C376.053 257.098 374.553 256.714 372.886 256.714H364.136C363.569 256.714 363.103 256.531 362.736 256.164C362.369 255.764 362.186 255.298 362.186 254.764V241.064C362.186 240.531 362.369 240.081 362.736 239.714C363.103 239.314 363.569 239.114 364.136 239.114H381.686C382.219 239.114 382.669 239.314 383.036 239.714C383.436 240.081 383.636 240.531 383.636 241.064C383.636 241.598 383.453 242.064 383.086 242.464C382.719 242.831 382.253 243.014 381.686 243.014H366.036V252.814H372.886C375.319 252.814 377.486 253.381 379.386 254.514C381.286 255.614 382.786 257.131 383.886 259.064C385.019 260.964 385.586 263.114 385.586 265.514C385.586 267.914 385.019 270.081 383.886 272.014C382.786 273.914 381.286 275.431 379.386 276.564C377.486 277.664 375.319 278.214 372.886 278.214ZM402.284 239.114C404.55 239.114 406.567 239.631 408.334 240.664C410.1 241.664 411.484 243.048 412.484 244.814C413.517 246.581 414.034 248.598 414.034 250.864C414.034 253.098 413.517 255.114 412.484 256.914C411.484 258.681 410.1 260.081 408.334 261.114C406.567 262.114 404.55 262.614 402.284 262.614C400.017 262.614 398 262.114 396.234 261.114C394.5 260.081 393.117 258.681 392.084 256.914C391.084 255.114 390.584 253.098 390.584 250.864C390.584 248.598 391.084 246.581 392.084 244.814C393.117 243.048 394.5 241.664 396.234 240.664C398 239.631 400.017 239.114 402.284 239.114ZM402.284 242.714C400.75 242.714 399.384 243.064 398.184 243.764C396.984 244.464 396.034 245.431 395.334 246.664C394.634 247.898 394.284 249.298 394.284 250.864C394.284 252.431 394.634 253.831 395.334 255.064C396.034 256.298 396.984 257.281 398.184 258.014C399.384 258.714 400.75 259.064 402.284 259.064C403.817 259.064 405.184 258.714 406.384 258.014C407.617 257.281 408.584 256.298 409.284 255.064C409.984 253.831 410.334 252.431 410.334 250.864C410.334 249.298 409.984 247.898 409.284 246.664C408.584 245.431 407.617 244.464 406.384 243.764C405.184 243.064 403.817 242.714 402.284 242.714ZM412.534 256.814L400.234 277.114C399.767 277.814 399.184 278.164 398.484 278.164C397.95 278.164 397.5 278.014 397.134 277.714C396.8 277.414 396.584 277.031 396.484 276.564C396.417 276.098 396.517 275.631 396.784 275.164L404.984 261.764L412.534 256.814ZM431.539 278.214C429.072 278.214 426.955 277.431 425.189 275.864C423.422 274.298 422.072 272.064 421.139 269.164C420.239 266.231 419.789 262.714 419.789 258.614C419.789 254.581 420.239 251.098 421.139 248.164C422.072 245.231 423.422 242.981 425.189 241.414C426.955 239.848 429.072 239.064 431.539 239.064C434.072 239.064 436.205 239.864 437.939 241.464C439.705 243.031 441.039 245.281 441.939 248.214C442.872 251.148 443.339 254.614 443.339 258.614C443.339 262.681 442.872 266.181 441.939 269.114C441.039 272.014 439.705 274.264 437.939 275.864C436.205 277.431 434.072 278.214 431.539 278.214ZM431.539 274.314C433.339 274.314 434.822 273.648 435.989 272.314C437.155 270.948 438.022 269.081 438.589 266.714C439.155 264.348 439.439 261.648 439.439 258.614C439.439 255.614 439.139 252.948 438.539 250.614C437.972 248.248 437.105 246.381 435.939 245.014C434.772 243.648 433.305 242.964 431.539 242.964C429.772 242.964 428.305 243.648 427.139 245.014C426.005 246.348 425.139 248.198 424.539 250.564C423.972 252.931 423.689 255.614 423.689 258.614C423.689 261.681 423.972 264.398 424.539 266.764C425.139 269.098 426.005 270.948 427.139 272.314C428.305 273.648 429.772 274.314 431.539 274.314ZM475.501 278.464C473.168 278.464 471.068 277.964 469.201 276.964C467.368 275.931 465.918 274.531 464.851 272.764C463.785 270.998 463.251 268.998 463.251 266.764C463.251 266.198 463.418 265.714 463.751 265.314C464.085 264.914 464.535 264.714 465.101 264.714C465.668 264.714 466.118 264.914 466.451 265.314C466.785 265.714 466.951 266.198 466.951 266.764C466.951 268.298 467.318 269.681 468.051 270.914C468.785 272.114 469.785 273.081 471.051 273.814C472.351 274.514 473.785 274.864 475.351 274.864C477.951 274.864 479.985 274.148 481.451 272.714C482.918 271.248 483.651 269.364 483.651 267.064C483.651 265.431 483.301 264.014 482.601 262.814C481.901 261.581 480.951 260.631 479.751 259.964C478.551 259.264 477.201 258.914 475.701 258.914C475.168 258.914 474.718 258.731 474.351 258.364C473.985 257.998 473.801 257.531 473.801 256.964C473.801 256.431 473.985 255.981 474.351 255.614C474.718 255.248 475.168 255.064 475.701 255.064C476.868 255.064 477.935 254.781 478.901 254.214C479.901 253.614 480.701 252.831 481.301 251.864C481.901 250.898 482.201 249.831 482.201 248.664C482.201 246.898 481.601 245.431 480.401 244.264C479.201 243.064 477.601 242.464 475.601 242.464C474.201 242.464 472.951 242.748 471.851 243.314C470.751 243.848 469.885 244.581 469.251 245.514C468.651 246.414 468.351 247.448 468.351 248.614C468.351 249.181 468.168 249.664 467.801 250.064C467.468 250.431 467.035 250.614 466.501 250.614C465.935 250.614 465.485 250.431 465.151 250.064C464.818 249.664 464.651 249.198 464.651 248.664C464.651 246.831 465.118 245.181 466.051 243.714C467.018 242.214 468.318 241.048 469.951 240.214C471.585 239.348 473.468 238.914 475.601 238.914C477.535 238.914 479.268 239.348 480.801 240.214C482.368 241.048 483.601 242.214 484.501 243.714C485.435 245.181 485.901 246.831 485.901 248.664C485.901 249.798 485.618 250.898 485.051 251.964C484.518 253.031 483.801 253.998 482.901 254.864C482.001 255.698 481.018 256.348 479.951 256.814C481.651 257.314 483.068 258.081 484.201 259.114C485.335 260.148 486.168 261.364 486.701 262.764C487.235 264.131 487.501 265.564 487.501 267.064C487.501 269.264 486.968 271.231 485.901 272.964C484.868 274.664 483.435 276.014 481.601 277.014C479.768 277.981 477.735 278.464 475.501 278.464ZM495.898 278.214C495.364 278.214 494.898 278.031 494.498 277.664C494.131 277.298 493.948 276.831 493.948 276.264C493.948 276.098 493.981 275.914 494.048 275.714C494.114 275.514 494.214 275.281 494.348 275.014L509.248 243.014H492.048C491.481 243.014 490.998 242.831 490.598 242.464C490.231 242.064 490.048 241.598 490.048 241.064C490.048 240.531 490.231 240.081 490.598 239.714C490.998 239.314 491.481 239.114 492.048 239.114H512.398C512.931 239.114 513.381 239.314 513.748 239.714C514.114 240.081 514.298 240.531 514.298 241.064C514.298 241.231 514.264 241.414 514.198 241.614C514.131 241.781 514.064 241.948 513.998 242.114L497.648 277.114C497.281 277.848 496.698 278.214 495.898 278.214ZM527.65 278.464C525.317 278.464 523.217 277.964 521.35 276.964C519.517 275.931 518.067 274.531 517 272.764C515.933 270.998 515.4 268.998 515.4 266.764C515.4 266.198 515.567 265.714 515.9 265.314C516.233 264.914 516.683 264.714 517.25 264.714C517.817 264.714 518.267 264.914 518.6 265.314C518.933 265.714 519.1 266.198 519.1 266.764C519.1 268.298 519.467 269.681 520.2 270.914C520.933 272.114 521.933 273.081 523.2 273.814C524.5 274.514 525.933 274.864 527.5 274.864C530.1 274.864 532.133 274.148 533.6 272.714C535.067 271.248 535.8 269.364 535.8 267.064C535.8 265.431 535.45 264.014 534.75 262.814C534.05 261.581 533.1 260.631 531.9 259.964C530.7 259.264 529.35 258.914 527.85 258.914C527.317 258.914 526.867 258.731 526.5 258.364C526.133 257.998 525.95 257.531 525.95 256.964C525.95 256.431 526.133 255.981 526.5 255.614C526.867 255.248 527.317 255.064 527.85 255.064C529.017 255.064 530.083 254.781 531.05 254.214C532.05 253.614 532.85 252.831 533.45 251.864C534.05 250.898 534.35 249.831 534.35 248.664C534.35 246.898 533.75 245.431 532.55 244.264C531.35 243.064 529.75 242.464 527.75 242.464C526.35 242.464 525.1 242.748 524 243.314C522.9 243.848 522.033 244.581 521.4 245.514C520.8 246.414 520.5 247.448 520.5 248.614C520.5 249.181 520.317 249.664 519.95 250.064C519.617 250.431 519.183 250.614 518.65 250.614C518.083 250.614 517.633 250.431 517.3 250.064C516.967 249.664 516.8 249.198 516.8 248.664C516.8 246.831 517.267 245.181 518.2 243.714C519.167 242.214 520.467 241.048 522.1 240.214C523.733 239.348 525.617 238.914 527.75 238.914C529.683 238.914 531.417 239.348 532.95 240.214C534.517 241.048 535.75 242.214 536.65 243.714C537.583 245.181 538.05 246.831 538.05 248.664C538.05 249.798 537.767 250.898 537.2 251.964C536.667 253.031 535.95 253.998 535.05 254.864C534.15 255.698 533.167 256.348 532.1 256.814C533.8 257.314 535.217 258.081 536.35 259.114C537.483 260.148 538.317 261.364 538.85 262.764C539.383 264.131 539.65 265.564 539.65 267.064C539.65 269.264 539.117 271.231 538.05 272.964C537.017 274.664 535.583 276.014 533.75 277.014C531.917 277.981 529.883 278.464 527.65 278.464ZM547.398 278.214C546.865 278.214 546.398 278.031 545.998 277.664C545.631 277.298 545.448 276.831 545.448 276.264C545.448 275.764 545.631 275.314 545.998 274.914L561.148 257.014C561.981 256.114 562.648 255.114 563.148 254.014C563.648 252.881 563.898 251.831 563.898 250.864C563.898 249.298 563.581 247.914 562.948 246.714C562.348 245.514 561.481 244.581 560.348 243.914C559.248 243.214 557.981 242.864 556.548 242.864C555.148 242.864 553.865 243.231 552.698 243.964C551.565 244.664 550.665 245.614 549.998 246.814C549.365 248.014 549.048 249.364 549.048 250.864C549.048 251.398 548.865 251.848 548.498 252.214C548.131 252.581 547.665 252.764 547.098 252.764C546.565 252.764 546.098 252.581 545.698 252.214C545.331 251.848 545.148 251.398 545.148 250.864C545.148 248.631 545.648 246.631 546.648 244.864C547.648 243.098 548.998 241.698 550.698 240.664C552.431 239.631 554.381 239.114 556.548 239.114C558.715 239.114 560.631 239.614 562.298 240.614C563.998 241.614 565.315 242.998 566.248 244.764C567.215 246.531 567.698 248.564 567.698 250.864C567.698 251.964 567.515 253.014 567.148 254.014C566.815 255.014 566.348 255.981 565.748 256.914C565.148 257.814 564.498 258.664 563.798 259.464L550.998 274.314H566.648C567.181 274.314 567.631 274.514 567.998 274.914C568.398 275.314 568.598 275.764 568.598 276.264C568.598 276.831 568.398 277.298 567.998 277.664C567.631 278.031 567.181 278.214 566.648 278.214H547.398Z" fill="white"/>
<path d="M69.9665 403.672C68.4427 403.672 67.026 403.458 65.7165 403.029C64.4308 402.577 63.3117 401.946 62.3593 401.137C61.407 400.327 60.6808 399.387 60.1808 398.315C59.9903 397.934 59.9784 397.589 60.1451 397.279C60.3355 396.946 60.6451 396.72 61.0736 396.601C61.407 396.506 61.7284 396.541 62.0379 396.708C62.3712 396.875 62.6212 397.125 62.7879 397.458C63.1451 398.149 63.6689 398.768 64.3593 399.315C65.0498 399.863 65.8712 400.291 66.8236 400.601C67.776 400.887 68.8236 401.029 69.9665 401.029C71.2284 401.029 72.3474 400.827 73.3236 400.422C74.2998 399.994 75.0617 399.387 75.6093 398.601C76.1808 397.791 76.4665 396.815 76.4665 395.672C76.4665 394.22 75.9308 392.97 74.8593 391.922C73.7879 390.875 72.1093 390.208 69.8236 389.922C67.0379 389.589 64.8593 388.732 63.2879 387.351C61.7165 385.946 60.9308 384.232 60.9308 382.208C60.9308 380.756 61.3117 379.494 62.0736 378.422C62.8593 377.351 63.9308 376.529 65.2879 375.958C66.6451 375.363 68.2046 375.065 69.9665 375.065C71.276 375.065 72.4665 375.279 73.5379 375.708C74.6093 376.113 75.5379 376.66 76.3236 377.351C77.1331 378.018 77.7879 378.756 78.2879 379.565C78.526 379.946 78.5974 380.315 78.5022 380.672C78.4308 381.029 78.2284 381.303 77.8951 381.494C77.5379 381.66 77.1689 381.684 76.7879 381.565C76.4308 381.446 76.157 381.22 75.9665 380.887C75.6093 380.339 75.157 379.827 74.6093 379.351C74.0855 378.851 73.4427 378.458 72.6808 378.172C71.9189 377.887 71.0022 377.732 69.9308 377.708C68.0498 377.708 66.5379 378.113 65.3951 378.922C64.2522 379.708 63.6808 380.863 63.6808 382.387C63.6808 383.196 63.8951 383.946 64.3236 384.637C64.7522 385.303 65.4546 385.887 66.4308 386.387C67.4308 386.863 68.7641 387.22 70.4308 387.458C73.407 387.887 75.6093 388.803 77.0379 390.208C78.4903 391.589 79.2165 393.399 79.2165 395.637C79.2165 396.922 78.9784 398.065 78.5022 399.065C78.0498 400.065 77.3951 400.91 76.5379 401.601C75.7046 402.268 74.7165 402.779 73.5736 403.137C72.4546 403.494 71.2522 403.672 69.9665 403.672ZM93.2918 403.494C91.4585 403.494 89.8156 403.065 88.3632 402.208C86.9109 401.327 85.7561 400.137 84.899 398.637C84.0656 397.137 83.649 395.446 83.649 393.565C83.649 391.66 84.0775 389.958 84.9347 388.458C85.8156 386.958 87.0061 385.779 88.5061 384.922C90.0061 384.041 91.6966 383.601 93.5775 383.601C95.4585 383.601 97.1371 384.041 98.6132 384.922C100.113 385.779 101.292 386.958 102.149 388.458C103.03 389.958 103.482 391.66 103.506 393.565L102.399 394.422C102.399 396.137 101.994 397.684 101.185 399.065C100.399 400.422 99.3156 401.506 97.9347 402.315C96.5775 403.101 95.0299 403.494 93.2918 403.494ZM93.5775 400.994C94.9585 400.994 96.1847 400.672 97.2561 400.029C98.3513 399.387 99.2085 398.506 99.8275 397.387C100.47 396.244 100.792 394.97 100.792 393.565C100.792 392.137 100.47 390.863 99.8275 389.744C99.2085 388.625 98.3513 387.744 97.2561 387.101C96.1847 386.434 94.9585 386.101 93.5775 386.101C92.2204 386.101 90.9942 386.434 89.899 387.101C88.8037 387.744 87.9347 388.625 87.2918 389.744C86.649 390.863 86.3275 392.137 86.3275 393.565C86.3275 394.97 86.649 396.244 87.2918 397.387C87.9347 398.506 88.8037 399.387 89.899 400.029C90.9942 400.672 92.2204 400.994 93.5775 400.994ZM102.113 403.315C101.708 403.315 101.375 403.196 101.113 402.958C100.851 402.696 100.72 402.363 100.72 401.958V395.851L101.399 393.029L103.506 393.565V401.958C103.506 402.363 103.375 402.696 103.113 402.958C102.851 403.196 102.518 403.315 102.113 403.315ZM113.069 403.315C112.117 403.315 111.259 403.053 110.497 402.529C109.759 402.006 109.176 401.279 108.747 400.351C108.343 399.422 108.14 398.351 108.14 397.137V376.779C108.14 376.375 108.259 376.053 108.497 375.815C108.759 375.553 109.093 375.422 109.497 375.422C109.902 375.422 110.224 375.553 110.462 375.815C110.724 376.053 110.855 376.375 110.855 376.779V397.137C110.855 398.16 111.057 398.994 111.462 399.637C111.89 400.279 112.426 400.601 113.069 400.601H113.962C114.319 400.601 114.605 400.732 114.819 400.994C115.033 401.232 115.14 401.553 115.14 401.958C115.14 402.363 114.986 402.696 114.676 402.958C114.39 403.196 114.009 403.315 113.533 403.315H113.069ZM145.327 403.315C144.922 403.315 144.589 403.196 144.327 402.958C144.065 402.696 143.934 402.363 143.934 401.958V391.672C143.934 389.982 143.494 388.649 142.613 387.672C141.732 386.672 140.601 386.172 139.22 386.172C137.744 386.172 136.529 386.672 135.577 387.672C134.648 388.649 134.196 389.958 134.22 391.601H131.756C131.779 390.006 132.125 388.601 132.791 387.387C133.458 386.172 134.375 385.232 135.541 384.565C136.708 383.899 138.029 383.565 139.506 383.565C140.91 383.565 142.148 383.899 143.22 384.565C144.315 385.232 145.16 386.172 145.756 387.387C146.375 388.601 146.684 390.029 146.684 391.672V401.958C146.684 402.363 146.553 402.696 146.291 402.958C146.053 403.196 145.732 403.315 145.327 403.315ZM120.327 403.315C119.898 403.315 119.553 403.196 119.291 402.958C119.053 402.696 118.934 402.363 118.934 401.958V385.172C118.934 384.768 119.053 384.434 119.291 384.172C119.553 383.91 119.898 383.779 120.327 383.779C120.732 383.779 121.053 383.91 121.291 384.172C121.553 384.434 121.684 384.768 121.684 385.172V401.958C121.684 402.363 121.553 402.696 121.291 402.958C121.053 403.196 120.732 403.315 120.327 403.315ZM132.863 403.315C132.458 403.315 132.125 403.196 131.863 402.958C131.601 402.696 131.47 402.363 131.47 401.958V391.672C131.47 389.982 131.029 388.649 130.148 387.672C129.267 386.672 128.136 386.172 126.756 386.172C125.279 386.172 124.065 386.66 123.113 387.637C122.16 388.589 121.684 389.839 121.684 391.387H119.72C119.767 389.863 120.101 388.518 120.72 387.351C121.363 386.16 122.232 385.232 123.327 384.565C124.422 383.899 125.66 383.565 127.041 383.565C128.446 383.565 129.684 383.899 130.756 384.565C131.851 385.232 132.696 386.172 133.291 387.387C133.91 388.601 134.22 390.029 134.22 391.672V401.958C134.22 402.363 134.089 402.696 133.827 402.958C133.589 403.196 133.267 403.315 132.863 403.315ZM161.372 403.494C159.539 403.494 157.896 403.065 156.444 402.208C154.991 401.327 153.836 400.137 152.979 398.637C152.146 397.137 151.729 395.446 151.729 393.565C151.729 391.66 152.158 389.958 153.015 388.458C153.896 386.958 155.086 385.779 156.586 384.922C158.086 384.041 159.777 383.601 161.658 383.601C163.539 383.601 165.217 384.041 166.694 384.922C168.194 385.779 169.372 386.958 170.229 388.458C171.11 389.958 171.563 391.66 171.586 393.565L170.479 394.422C170.479 396.137 170.075 397.684 169.265 399.065C168.479 400.422 167.396 401.506 166.015 402.315C164.658 403.101 163.11 403.494 161.372 403.494ZM161.658 400.994C163.039 400.994 164.265 400.672 165.336 400.029C166.432 399.387 167.289 398.506 167.908 397.387C168.551 396.244 168.872 394.97 168.872 393.565C168.872 392.137 168.551 390.863 167.908 389.744C167.289 388.625 166.432 387.744 165.336 387.101C164.265 386.434 163.039 386.101 161.658 386.101C160.301 386.101 159.075 386.434 157.979 387.101C156.884 387.744 156.015 388.625 155.372 389.744C154.729 390.863 154.408 392.137 154.408 393.565C154.408 394.97 154.729 396.244 155.372 397.387C156.015 398.506 156.884 399.387 157.979 400.029C159.075 400.672 160.301 400.994 161.658 400.994ZM170.194 403.315C169.789 403.315 169.456 403.196 169.194 402.958C168.932 402.696 168.801 402.363 168.801 401.958V395.851L169.479 393.029L171.586 393.565V401.958C171.586 402.363 171.456 402.696 171.194 402.958C170.932 403.196 170.598 403.315 170.194 403.315ZM193.685 403.315C193.28 403.315 192.947 403.184 192.685 402.922C192.423 402.66 192.292 402.339 192.292 401.958V392.672C192.292 391.196 192.006 389.982 191.435 389.029C190.887 388.077 190.125 387.363 189.149 386.887C188.197 386.41 187.114 386.172 185.899 386.172C184.733 386.172 183.673 386.399 182.721 386.851C181.792 387.303 181.054 387.922 180.506 388.708C179.959 389.494 179.685 390.387 179.685 391.387H177.721C177.768 389.887 178.173 388.553 178.935 387.387C179.697 386.196 180.709 385.268 181.971 384.601C183.233 383.91 184.637 383.565 186.185 383.565C187.875 383.565 189.387 383.922 190.721 384.637C192.054 385.327 193.102 386.351 193.864 387.708C194.649 389.065 195.042 390.72 195.042 392.672V401.958C195.042 402.339 194.911 402.66 194.649 402.922C194.387 403.184 194.066 403.315 193.685 403.315ZM178.328 403.315C177.899 403.315 177.554 403.196 177.292 402.958C177.054 402.696 176.935 402.363 176.935 401.958V385.172C176.935 384.744 177.054 384.41 177.292 384.172C177.554 383.91 177.899 383.779 178.328 383.779C178.733 383.779 179.054 383.91 179.292 384.172C179.554 384.41 179.685 384.744 179.685 385.172V401.958C179.685 402.363 179.554 402.696 179.292 402.958C179.054 403.196 178.733 403.315 178.328 403.315Z" fill="white"/>
<path d="M65.999 361.022C65.2533 361.022 64.5676 360.893 63.9418 360.636C63.3161 360.379 62.7718 360.019 62.309 359.556C61.8547 359.093 61.499 358.549 61.2418 357.923C60.9933 357.297 60.869 356.612 60.869 355.866C60.869 355.129 60.9933 354.447 61.2418 353.822C61.499 353.196 61.8547 352.652 62.309 352.189C62.7718 351.726 63.3161 351.366 63.9418 351.109C64.5676 350.852 65.2533 350.723 65.999 350.723C66.7361 350.723 67.4176 350.852 68.0433 351.109C68.669 351.366 69.2133 351.726 69.6761 352.189C70.139 352.652 70.4947 353.196 70.7433 353.822C71.0004 354.447 71.129 355.129 71.129 355.866C71.129 356.612 71.0004 357.297 70.7433 357.923C70.4947 358.549 70.139 359.093 69.6761 359.556C69.2133 360.019 68.669 360.379 68.0433 360.636C67.4176 360.893 66.7361 361.022 65.999 361.022ZM65.999 360.07C66.5904 360.07 67.139 359.967 67.6447 359.762C68.1504 359.547 68.5876 359.252 68.9561 358.875C69.3333 358.489 69.6247 358.043 69.8304 357.537C70.0361 357.023 70.139 356.466 70.139 355.866C70.139 355.275 70.0361 354.726 69.8304 354.22C69.6247 353.706 69.3333 353.26 68.9561 352.883C68.5876 352.497 68.1504 352.202 67.6447 351.996C67.139 351.782 66.5904 351.675 65.999 351.675C65.399 351.675 64.8461 351.782 64.3404 351.996C63.8347 352.202 63.3933 352.497 63.0161 352.883C62.6476 353.26 62.3604 353.706 62.1547 354.22C61.949 354.726 61.8461 355.275 61.8461 355.866C61.8461 356.466 61.949 357.023 62.1547 357.537C62.3604 358.043 62.6476 358.489 63.0161 358.875C63.3933 359.252 63.8347 359.547 64.3404 359.762C64.8461 359.967 65.399 360.07 65.999 360.07ZM74.6634 360.893C74.552 360.893 74.4534 360.863 74.3677 360.803C74.282 360.743 74.222 360.666 74.1877 360.572L72.182 354.555C72.1305 354.34 72.1348 354.173 72.1948 354.053C72.2548 353.925 72.3748 353.86 72.5548 353.86C72.6663 353.86 72.7648 353.89 72.8505 353.95C72.9363 354.01 73.0005 354.105 73.0434 354.233L74.8305 359.697H74.5477L76.2063 354.246C76.2405 354.135 76.2963 354.045 76.3734 353.976C76.4591 353.899 76.5663 353.86 76.6948 353.86C76.8234 353.86 76.9263 353.895 77.0034 353.963C77.0891 354.032 77.1491 354.126 77.1834 354.246L78.7648 359.569H78.5463L80.2948 354.233C80.3805 353.985 80.5391 353.86 80.7705 353.86C80.9591 353.86 81.0877 353.933 81.1563 354.079C81.2248 354.216 81.2248 354.375 81.1563 354.555L79.1505 360.572C79.1163 360.666 79.0563 360.743 78.9705 360.803C78.8934 360.863 78.7991 360.893 78.6877 360.893C78.5763 360.893 78.4734 360.863 78.3791 360.803C78.2934 360.743 78.2377 360.666 78.212 360.572L76.592 355.197H76.7463L75.1263 360.572C75.092 360.675 75.032 360.756 74.9463 360.816C74.8605 360.867 74.7663 360.893 74.6634 360.893ZM88.6164 360.893C88.4707 360.893 88.3507 360.846 88.2564 360.752C88.1621 360.657 88.115 360.542 88.115 360.405V357.062C88.115 356.53 88.0121 356.093 87.8064 355.75C87.6093 355.407 87.335 355.15 86.9836 354.979C86.6407 354.807 86.2507 354.722 85.8136 354.722C85.3936 354.722 85.0121 354.803 84.6693 354.966C84.335 355.129 84.0693 355.352 83.8721 355.635C83.675 355.917 83.5764 356.239 83.5764 356.599H82.8693C82.8864 356.059 83.0321 355.579 83.3064 355.159C83.5807 354.73 83.945 354.396 84.3993 354.156C84.8536 353.907 85.3593 353.783 85.9164 353.783C86.525 353.783 87.0693 353.912 87.5493 354.169C88.0293 354.417 88.4064 354.786 88.6807 355.275C88.9636 355.763 89.105 356.359 89.105 357.062V360.405C89.105 360.542 89.0578 360.657 88.9636 360.752C88.8693 360.846 88.7536 360.893 88.6164 360.893ZM83.0878 360.893C82.9336 360.893 82.8093 360.85 82.715 360.765C82.6293 360.67 82.5864 360.55 82.5864 360.405V354.362C82.5864 354.207 82.6293 354.087 82.715 354.002C82.8093 353.907 82.9336 353.86 83.0878 353.86C83.2336 353.86 83.3493 353.907 83.435 354.002C83.5293 354.087 83.5764 354.207 83.5764 354.362V360.405C83.5764 360.55 83.5293 360.67 83.435 360.765C83.3493 360.85 83.2336 360.893 83.0878 360.893ZM94.4762 360.957C93.7819 360.957 93.1647 360.807 92.6247 360.507C92.0933 360.199 91.6733 359.775 91.3647 359.235C91.0647 358.695 90.9147 358.077 90.9147 357.383C90.9147 356.68 91.0562 356.063 91.339 355.532C91.6304 354.992 92.029 354.567 92.5347 354.259C93.0404 353.95 93.6233 353.796 94.2833 353.796C94.9347 353.796 95.5004 353.946 95.9804 354.246C96.469 354.537 96.8462 354.945 97.1119 355.467C97.3776 355.99 97.5104 356.586 97.5104 357.255C97.5104 357.392 97.4676 357.503 97.3819 357.589C97.2962 357.666 97.1847 357.705 97.0476 357.705H91.5833V356.882H97.1504L96.5976 357.28C96.6062 356.783 96.5162 356.337 96.3276 355.943C96.139 355.549 95.869 355.24 95.5176 355.017C95.1747 354.795 94.7633 354.683 94.2833 354.683C93.7947 354.683 93.3662 354.799 92.9976 355.03C92.629 355.262 92.3419 355.583 92.1362 355.995C91.939 356.397 91.8404 356.86 91.8404 357.383C91.8404 357.906 91.9519 358.369 92.1747 358.772C92.4062 359.175 92.719 359.492 93.1133 359.723C93.5076 359.955 93.9619 360.07 94.4762 360.07C94.7847 360.07 95.0933 360.019 95.4019 359.916C95.719 359.805 95.9719 359.667 96.1604 359.505C96.2547 359.427 96.3619 359.389 96.4819 359.389C96.6019 359.38 96.7047 359.41 96.7904 359.479C96.9019 359.582 96.9576 359.693 96.9576 359.813C96.9662 359.933 96.919 360.036 96.8162 360.122C96.5333 360.362 96.1733 360.563 95.7362 360.726C95.299 360.88 94.879 360.957 94.4762 360.957ZM99.5966 356.56C99.6223 356.029 99.7595 355.553 100.008 355.133C100.265 354.713 100.595 354.383 100.998 354.143C101.409 353.903 101.864 353.783 102.361 353.783C102.755 353.783 103.059 353.839 103.274 353.95C103.488 354.062 103.569 354.225 103.518 354.439C103.484 354.567 103.424 354.653 103.338 354.696C103.261 354.739 103.162 354.756 103.042 354.747C102.931 354.739 102.802 354.73 102.657 354.722C102.177 354.679 101.748 354.73 101.371 354.876C101.002 355.013 100.707 355.227 100.484 355.519C100.269 355.81 100.162 356.157 100.162 356.56H99.5966ZM99.6738 360.893C99.5195 360.893 99.3995 360.85 99.3138 360.765C99.228 360.679 99.1852 360.559 99.1852 360.405V354.349C99.1852 354.195 99.228 354.075 99.3138 353.989C99.3995 353.903 99.5195 353.86 99.6738 353.86C99.828 353.86 99.948 353.903 100.034 353.989C100.119 354.075 100.162 354.195 100.162 354.349V360.405C100.162 360.559 100.119 360.679 100.034 360.765C99.948 360.85 99.828 360.893 99.6738 360.893ZM109.471 360.893C109.325 360.893 109.205 360.846 109.111 360.752C109.016 360.657 108.969 360.537 108.969 360.392V351.353C108.969 351.207 109.016 351.087 109.111 350.993C109.205 350.899 109.325 350.852 109.471 350.852C109.625 350.852 109.753 350.912 109.856 351.032L116.002 359.106V351.353C116.002 351.207 116.049 351.087 116.143 350.993C116.238 350.899 116.358 350.852 116.503 350.852C116.641 350.852 116.756 350.899 116.851 350.993C116.953 351.087 117.005 351.207 117.005 351.353V360.392C117.005 360.537 116.953 360.657 116.851 360.752C116.756 360.846 116.641 360.893 116.503 360.893C116.435 360.893 116.366 360.88 116.298 360.855C116.229 360.829 116.173 360.786 116.131 360.726L109.972 352.652V360.392C109.972 360.537 109.921 360.657 109.818 360.752C109.723 360.846 109.608 360.893 109.471 360.893ZM122.549 360.957C121.889 360.957 121.297 360.803 120.775 360.495C120.252 360.177 119.836 359.749 119.527 359.209C119.227 358.669 119.077 358.06 119.077 357.383C119.077 356.697 119.232 356.085 119.54 355.545C119.857 355.005 120.286 354.58 120.826 354.272C121.366 353.955 121.975 353.796 122.652 353.796C123.329 353.796 123.933 353.955 124.465 354.272C125.005 354.58 125.429 355.005 125.737 355.545C126.055 356.085 126.217 356.697 126.226 357.383L125.827 357.692C125.827 358.309 125.682 358.866 125.39 359.363C125.107 359.852 124.717 360.242 124.22 360.533C123.732 360.816 123.175 360.957 122.549 360.957ZM122.652 360.057C123.149 360.057 123.59 359.942 123.976 359.71C124.37 359.479 124.679 359.162 124.902 358.759C125.133 358.347 125.249 357.889 125.249 357.383C125.249 356.869 125.133 356.41 124.902 356.007C124.679 355.605 124.37 355.287 123.976 355.056C123.59 354.816 123.149 354.696 122.652 354.696C122.163 354.696 121.722 354.816 121.327 355.056C120.933 355.287 120.62 355.605 120.389 356.007C120.157 356.41 120.042 356.869 120.042 357.383C120.042 357.889 120.157 358.347 120.389 358.759C120.62 359.162 120.933 359.479 121.327 359.71C121.722 359.942 122.163 360.057 122.652 360.057ZM125.725 360.893C125.579 360.893 125.459 360.85 125.365 360.765C125.27 360.67 125.223 360.55 125.223 360.405V358.206L125.467 357.19L126.226 357.383V360.405C126.226 360.55 126.179 360.67 126.085 360.765C125.99 360.85 125.87 360.893 125.725 360.893ZM137.653 360.893C137.507 360.893 137.387 360.85 137.293 360.765C137.199 360.67 137.151 360.55 137.151 360.405V356.702C137.151 356.093 136.993 355.613 136.676 355.262C136.359 354.902 135.951 354.722 135.454 354.722C134.923 354.722 134.486 354.902 134.143 355.262C133.809 355.613 133.646 356.085 133.654 356.676H132.767C132.776 356.102 132.9 355.596 133.14 355.159C133.38 354.722 133.71 354.383 134.13 354.143C134.55 353.903 135.026 353.783 135.557 353.783C136.063 353.783 136.509 353.903 136.894 354.143C137.289 354.383 137.593 354.722 137.807 355.159C138.03 355.596 138.141 356.11 138.141 356.702V360.405C138.141 360.55 138.094 360.67 138 360.765C137.914 360.85 137.799 360.893 137.653 360.893ZM128.653 360.893C128.499 360.893 128.374 360.85 128.28 360.765C128.194 360.67 128.151 360.55 128.151 360.405V354.362C128.151 354.216 128.194 354.096 128.28 354.002C128.374 353.907 128.499 353.86 128.653 353.86C128.799 353.86 128.914 353.907 129 354.002C129.094 354.096 129.141 354.216 129.141 354.362V360.405C129.141 360.55 129.094 360.67 129 360.765C128.914 360.85 128.799 360.893 128.653 360.893ZM133.166 360.893C133.02 360.893 132.9 360.85 132.806 360.765C132.711 360.67 132.664 360.55 132.664 360.405V356.702C132.664 356.093 132.506 355.613 132.189 355.262C131.871 354.902 131.464 354.722 130.967 354.722C130.436 354.722 129.999 354.897 129.656 355.249C129.313 355.592 129.141 356.042 129.141 356.599H128.434C128.451 356.05 128.571 355.566 128.794 355.146C129.026 354.717 129.339 354.383 129.733 354.143C130.127 353.903 130.573 353.783 131.07 353.783C131.576 353.783 132.021 353.903 132.407 354.143C132.801 354.383 133.106 354.722 133.32 355.159C133.543 355.596 133.654 356.11 133.654 356.702V360.405C133.654 360.55 133.607 360.67 133.513 360.765C133.427 360.85 133.311 360.893 133.166 360.893ZM143.519 360.957C142.825 360.957 142.208 360.807 141.668 360.507C141.136 360.199 140.716 359.775 140.408 359.235C140.108 358.695 139.958 358.077 139.958 357.383C139.958 356.68 140.099 356.063 140.382 355.532C140.673 354.992 141.072 354.567 141.578 354.259C142.083 353.95 142.666 353.796 143.326 353.796C143.978 353.796 144.543 353.946 145.023 354.246C145.512 354.537 145.889 354.945 146.155 355.467C146.421 355.99 146.553 356.586 146.553 357.255C146.553 357.392 146.511 357.503 146.425 357.589C146.339 357.666 146.228 357.705 146.091 357.705H140.626V356.882H146.193L145.641 357.28C145.649 356.783 145.559 356.337 145.371 355.943C145.182 355.549 144.912 355.24 144.561 355.017C144.218 354.795 143.806 354.683 143.326 354.683C142.838 354.683 142.409 354.799 142.041 355.03C141.672 355.262 141.385 355.583 141.179 355.995C140.982 356.397 140.883 356.86 140.883 357.383C140.883 357.906 140.995 358.369 141.218 358.772C141.449 359.175 141.762 359.492 142.156 359.723C142.551 359.955 143.005 360.07 143.519 360.07C143.828 360.07 144.136 360.019 144.445 359.916C144.762 359.805 145.015 359.667 145.203 359.505C145.298 359.427 145.405 359.389 145.525 359.389C145.645 359.38 145.748 359.41 145.833 359.479C145.945 359.582 146.001 359.693 146.001 359.813C146.009 359.933 145.962 360.036 145.859 360.122C145.576 360.362 145.216 360.563 144.779 360.726C144.342 360.88 143.922 360.957 143.519 360.957Z" fill="white"/>
<path d="M246.139 360.893C245.993 360.893 245.873 360.846 245.779 360.752C245.685 360.657 245.638 360.537 245.638 360.392V351.353C245.638 351.207 245.685 351.087 245.779 350.993C245.873 350.899 245.993 350.852 246.139 350.852H252.169C252.306 350.852 252.422 350.899 252.516 350.993C252.619 351.079 252.67 351.195 252.67 351.34C252.67 351.469 252.619 351.58 252.516 351.675C252.422 351.769 252.306 351.816 252.169 351.816H246.64V355.365H250.665C250.81 355.365 250.93 355.412 251.025 355.506C251.119 355.6 251.166 355.716 251.166 355.853C251.166 355.99 251.119 356.106 251.025 356.2C250.93 356.295 250.81 356.342 250.665 356.342H246.64V359.929H252.169C252.306 359.929 252.422 359.976 252.516 360.07C252.619 360.165 252.67 360.276 252.67 360.405C252.67 360.55 252.619 360.67 252.516 360.765C252.422 360.85 252.306 360.893 252.169 360.893H246.139ZM258.933 360.893C258.83 360.893 258.745 360.876 258.676 360.842C258.616 360.807 258.552 360.747 258.483 360.662L256.259 357.833L255.873 357.499L253.636 354.657C253.542 354.546 253.495 354.43 253.495 354.31C253.503 354.19 253.546 354.087 253.623 354.002C253.7 353.907 253.812 353.86 253.958 353.86C254.103 353.86 254.228 353.912 254.33 354.015L256.49 356.779L256.838 357.062L259.229 360.122C259.34 360.259 259.388 360.387 259.37 360.507C259.353 360.627 259.298 360.722 259.203 360.79C259.118 360.859 259.028 360.893 258.933 360.893ZM253.842 360.893C253.705 360.893 253.593 360.85 253.508 360.765C253.43 360.679 253.388 360.576 253.379 360.456C253.379 360.336 253.426 360.22 253.52 360.109L255.886 357.152L256.439 357.885L254.189 360.739C254.112 360.842 253.996 360.893 253.842 360.893ZM256.85 357.55L256.22 356.907L258.445 354.092C258.505 354.006 258.569 353.946 258.638 353.912C258.715 353.877 258.792 353.86 258.869 353.86C259.015 353.86 259.126 353.907 259.203 354.002C259.28 354.087 259.315 354.195 259.306 354.323C259.306 354.443 259.263 354.559 259.178 354.67L256.85 357.55ZM261.567 363.902C261.413 363.902 261.289 363.855 261.194 363.76C261.109 363.675 261.066 363.555 261.066 363.4V357.332C261.074 356.663 261.233 356.063 261.541 355.532C261.859 354.992 262.283 354.567 262.814 354.259C263.354 353.95 263.959 353.796 264.627 353.796C265.313 353.796 265.926 353.955 266.466 354.272C267.006 354.58 267.43 355.005 267.739 355.545C268.056 356.085 268.214 356.697 268.214 357.383C268.214 358.06 268.06 358.669 267.751 359.209C267.451 359.749 267.04 360.177 266.517 360.495C265.994 360.803 265.403 360.957 264.743 360.957C264.169 360.957 263.646 360.837 263.174 360.597C262.711 360.349 262.339 360.023 262.056 359.62V363.4C262.056 363.555 262.009 363.675 261.914 363.76C261.829 363.855 261.713 363.902 261.567 363.902ZM264.627 360.057C265.124 360.057 265.57 359.942 265.964 359.71C266.359 359.479 266.667 359.162 266.89 358.759C267.121 358.347 267.237 357.889 267.237 357.383C267.237 356.869 267.121 356.41 266.89 356.007C266.667 355.605 266.359 355.287 265.964 355.056C265.57 354.816 265.124 354.696 264.627 354.696C264.139 354.696 263.697 354.816 263.303 355.056C262.909 355.287 262.6 355.605 262.377 356.007C262.154 356.41 262.043 356.869 262.043 357.383C262.043 357.889 262.154 358.347 262.377 358.759C262.6 359.162 262.909 359.479 263.303 359.71C263.697 359.942 264.139 360.057 264.627 360.057ZM270.863 360.893C270.709 360.893 270.585 360.85 270.49 360.765C270.405 360.67 270.362 360.546 270.362 360.392V354.362C270.362 354.207 270.405 354.087 270.49 354.002C270.585 353.907 270.709 353.86 270.863 353.86C271.009 353.86 271.125 353.907 271.21 354.002C271.305 354.087 271.352 354.207 271.352 354.362V360.392C271.352 360.546 271.305 360.67 271.21 360.765C271.125 360.85 271.009 360.893 270.863 360.893ZM270.85 352.523C270.662 352.523 270.499 352.455 270.362 352.317C270.225 352.18 270.156 352.013 270.156 351.816C270.156 351.602 270.225 351.435 270.362 351.315C270.508 351.186 270.675 351.122 270.863 351.122C271.043 351.122 271.202 351.186 271.339 351.315C271.485 351.435 271.558 351.602 271.558 351.816C271.558 352.013 271.489 352.18 271.352 352.317C271.215 352.455 271.048 352.523 270.85 352.523ZM274.284 356.56C274.31 356.029 274.447 355.553 274.695 355.133C274.953 354.713 275.283 354.383 275.685 354.143C276.097 353.903 276.551 353.783 277.048 353.783C277.443 353.783 277.747 353.839 277.961 353.95C278.175 354.062 278.257 354.225 278.205 354.439C278.171 354.567 278.111 354.653 278.025 354.696C277.948 354.739 277.85 354.756 277.73 354.747C277.618 354.739 277.49 354.73 277.344 354.722C276.864 354.679 276.435 354.73 276.058 354.876C275.69 355.013 275.394 355.227 275.171 355.519C274.957 355.81 274.85 356.157 274.85 356.56H274.284ZM274.361 360.893C274.207 360.893 274.087 360.85 274.001 360.765C273.915 360.679 273.873 360.559 273.873 360.405V354.349C273.873 354.195 273.915 354.075 274.001 353.989C274.087 353.903 274.207 353.86 274.361 353.86C274.515 353.86 274.635 353.903 274.721 353.989C274.807 354.075 274.85 354.195 274.85 354.349V360.405C274.85 360.559 274.807 360.679 274.721 360.765C274.635 360.85 274.515 360.893 274.361 360.893ZM280.97 363.953C280.901 363.953 280.824 363.936 280.738 363.902C280.447 363.773 280.366 363.567 280.494 363.285L284.647 354.13C284.776 353.856 284.981 353.779 285.264 353.899C285.556 354.019 285.637 354.22 285.508 354.503L281.343 363.657C281.257 363.855 281.133 363.953 280.97 363.953ZM282.397 360.675C282.268 360.735 282.148 360.747 282.037 360.713C281.926 360.67 281.836 360.585 281.767 360.456L278.9 354.516C278.84 354.387 278.831 354.267 278.874 354.156C278.917 354.045 279.003 353.959 279.131 353.899C279.26 353.839 279.38 353.83 279.491 353.873C279.603 353.907 279.688 353.989 279.748 354.117L282.564 360.057C282.633 360.186 282.654 360.306 282.628 360.417C282.603 360.529 282.526 360.615 282.397 360.675Z" fill="white"/>
<path d="M252.116 403.315C250.354 403.315 248.842 402.756 247.581 401.637C246.319 400.518 245.354 398.922 244.688 396.851C244.045 394.756 243.723 392.244 243.723 389.315C243.723 386.434 244.045 383.946 244.688 381.851C245.354 379.756 246.319 378.149 247.581 377.029C248.842 375.91 250.354 375.351 252.116 375.351C253.926 375.351 255.45 375.922 256.688 377.065C257.95 378.184 258.902 379.791 259.545 381.887C260.211 383.982 260.545 386.458 260.545 389.315C260.545 392.22 260.211 394.72 259.545 396.815C258.902 398.887 257.95 400.494 256.688 401.637C255.45 402.756 253.926 403.315 252.116 403.315ZM252.116 400.529C253.402 400.529 254.461 400.053 255.295 399.101C256.128 398.125 256.747 396.791 257.152 395.101C257.557 393.41 257.759 391.482 257.759 389.315C257.759 387.172 257.545 385.268 257.116 383.601C256.711 381.91 256.092 380.577 255.259 379.601C254.426 378.625 253.378 378.137 252.116 378.137C250.854 378.137 249.807 378.625 248.973 379.601C248.164 380.553 247.545 381.875 247.116 383.565C246.711 385.256 246.509 387.172 246.509 389.315C246.509 391.506 246.711 393.446 247.116 395.137C247.545 396.803 248.164 398.125 248.973 399.101C249.807 400.053 250.854 400.529 252.116 400.529ZM272.305 375.387C273.924 375.387 275.365 375.756 276.627 376.494C277.888 377.208 278.877 378.196 279.591 379.458C280.329 380.72 280.698 382.16 280.698 383.779C280.698 385.375 280.329 386.815 279.591 388.101C278.877 389.363 277.888 390.363 276.627 391.101C275.365 391.815 273.924 392.172 272.305 392.172C270.686 392.172 269.246 391.815 267.984 391.101C266.746 390.363 265.758 389.363 265.019 388.101C264.305 386.815 263.948 385.375 263.948 383.779C263.948 382.16 264.305 380.72 265.019 379.458C265.758 378.196 266.746 377.208 267.984 376.494C269.246 375.756 270.686 375.387 272.305 375.387ZM272.305 377.958C271.21 377.958 270.234 378.208 269.377 378.708C268.519 379.208 267.841 379.899 267.341 380.779C266.841 381.66 266.591 382.66 266.591 383.779C266.591 384.899 266.841 385.899 267.341 386.779C267.841 387.66 268.519 388.363 269.377 388.887C270.234 389.387 271.21 389.637 272.305 389.637C273.4 389.637 274.377 389.387 275.234 388.887C276.115 388.363 276.805 387.66 277.305 386.779C277.805 385.899 278.055 384.899 278.055 383.779C278.055 382.66 277.805 381.66 277.305 380.779C276.805 379.899 276.115 379.208 275.234 378.708C274.377 378.208 273.4 377.958 272.305 377.958ZM279.627 388.029L270.841 402.529C270.508 403.029 270.091 403.279 269.591 403.279C269.21 403.279 268.888 403.172 268.627 402.958C268.388 402.744 268.234 402.47 268.162 402.137C268.115 401.803 268.186 401.47 268.377 401.137L274.234 391.565L279.627 388.029ZM285.773 406.101C285.273 406.101 284.88 405.899 284.594 405.494C284.333 405.113 284.309 404.66 284.523 404.137L295.737 376.172C295.833 375.91 295.999 375.708 296.237 375.565C296.475 375.422 296.737 375.351 297.023 375.351C297.547 375.351 297.928 375.565 298.166 375.994C298.404 376.399 298.44 376.839 298.273 377.315L287.059 405.315C286.94 405.601 286.761 405.803 286.523 405.922C286.285 406.041 286.035 406.101 285.773 406.101ZM303.693 403.315C303.312 403.315 302.978 403.184 302.693 402.922C302.431 402.66 302.3 402.327 302.3 401.922C302.3 401.565 302.431 401.244 302.693 400.958L313.514 388.172C314.109 387.529 314.586 386.815 314.943 386.029C315.3 385.22 315.478 384.47 315.478 383.779C315.478 382.66 315.252 381.672 314.8 380.815C314.371 379.958 313.752 379.291 312.943 378.815C312.157 378.315 311.252 378.065 310.228 378.065C309.228 378.065 308.312 378.327 307.478 378.851C306.669 379.351 306.026 380.029 305.55 380.887C305.097 381.744 304.871 382.708 304.871 383.779C304.871 384.16 304.74 384.482 304.478 384.744C304.217 385.006 303.883 385.137 303.478 385.137C303.097 385.137 302.764 385.006 302.478 384.744C302.217 384.482 302.086 384.16 302.086 383.779C302.086 382.184 302.443 380.756 303.157 379.494C303.871 378.232 304.836 377.232 306.05 376.494C307.288 375.756 308.681 375.387 310.228 375.387C311.776 375.387 313.145 375.744 314.336 376.458C315.55 377.172 316.49 378.16 317.157 379.422C317.847 380.684 318.193 382.137 318.193 383.779C318.193 384.565 318.062 385.315 317.8 386.029C317.562 386.744 317.228 387.434 316.8 388.101C316.371 388.744 315.907 389.351 315.407 389.922L306.264 400.529H317.443C317.824 400.529 318.145 400.672 318.407 400.958C318.693 401.244 318.836 401.565 318.836 401.922C318.836 402.327 318.693 402.66 318.407 402.922C318.145 403.184 317.824 403.315 317.443 403.315H303.693ZM330.695 403.315C328.933 403.315 327.421 402.756 326.159 401.637C324.897 400.518 323.933 398.922 323.266 396.851C322.623 394.756 322.302 392.244 322.302 389.315C322.302 386.434 322.623 383.946 323.266 381.851C323.933 379.756 324.897 378.149 326.159 377.029C327.421 375.91 328.933 375.351 330.695 375.351C332.504 375.351 334.028 375.922 335.266 377.065C336.528 378.184 337.48 379.791 338.123 381.887C338.79 383.982 339.123 386.458 339.123 389.315C339.123 392.22 338.79 394.72 338.123 396.815C337.48 398.887 336.528 400.494 335.266 401.637C334.028 402.756 332.504 403.315 330.695 403.315ZM330.695 400.529C331.98 400.529 333.04 400.053 333.873 399.101C334.707 398.125 335.326 396.791 335.73 395.101C336.135 393.41 336.338 391.482 336.338 389.315C336.338 387.172 336.123 385.268 335.695 383.601C335.29 381.91 334.671 380.577 333.838 379.601C333.004 378.625 331.957 378.137 330.695 378.137C329.433 378.137 328.385 378.625 327.552 379.601C326.742 380.553 326.123 381.875 325.695 383.565C325.29 385.256 325.088 387.172 325.088 389.315C325.088 391.506 325.29 393.446 325.695 395.137C326.123 396.803 326.742 398.125 327.552 399.101C328.385 400.053 329.433 400.529 330.695 400.529Z" fill="white"/>
<path d="M404.518 361.022C403.824 361.022 403.172 360.889 402.564 360.623C401.964 360.357 401.432 359.989 400.969 359.517C400.515 359.037 400.159 358.489 399.902 357.872C399.645 357.246 399.517 356.577 399.517 355.866C399.517 355.163 399.641 354.503 399.889 353.886C400.147 353.26 400.502 352.712 400.957 352.24C401.419 351.769 401.951 351.4 402.551 351.135C403.159 350.86 403.815 350.723 404.518 350.723C405.135 350.723 405.697 350.813 406.202 350.993C406.708 351.173 407.197 351.46 407.668 351.855C407.745 351.915 407.788 351.987 407.797 352.073C407.814 352.15 407.805 352.227 407.771 352.305C407.737 352.373 407.685 352.425 407.617 352.459C407.599 352.527 407.557 352.579 407.488 352.613C407.419 352.647 407.338 352.66 407.244 352.652C407.158 352.643 407.072 352.605 406.987 352.536C406.652 352.245 406.288 352.03 405.894 351.893C405.499 351.747 405.041 351.675 404.518 351.675C403.961 351.675 403.438 351.786 402.949 352.009C402.469 352.232 402.045 352.536 401.677 352.922C401.308 353.307 401.017 353.753 400.802 354.259C400.597 354.765 400.494 355.3 400.494 355.866C400.494 356.449 400.597 356.993 400.802 357.499C401.017 358.005 401.308 358.45 401.677 358.836C402.045 359.222 402.469 359.526 402.949 359.749C403.438 359.963 403.961 360.07 404.518 360.07C404.989 360.07 405.435 359.993 405.855 359.839C406.275 359.685 406.674 359.462 407.051 359.17C407.154 359.085 407.261 359.05 407.372 359.067C407.492 359.085 407.595 359.136 407.681 359.222C407.767 359.307 407.809 359.419 407.809 359.556C407.809 359.625 407.797 359.689 407.771 359.749C407.754 359.8 407.719 359.856 407.668 359.916C407.231 360.319 406.742 360.606 406.202 360.777C405.662 360.94 405.101 361.022 404.518 361.022ZM413.204 360.893C412.99 360.893 412.835 360.786 412.741 360.572L408.923 351.636C408.828 351.396 408.82 351.207 408.897 351.07C408.983 350.925 409.128 350.852 409.334 350.852C409.548 350.852 409.703 350.959 409.797 351.173L413.345 359.659H413.063L416.598 351.199C416.65 351.07 416.714 350.98 416.791 350.929C416.868 350.877 416.971 350.852 417.1 350.852C417.297 350.852 417.43 350.929 417.498 351.083C417.567 351.229 417.563 351.396 417.485 351.585L413.654 360.572C413.603 360.692 413.538 360.777 413.461 360.829C413.384 360.872 413.298 360.893 413.204 360.893ZM422.407 360.893C422.193 360.893 422.039 360.786 421.945 360.572L418.126 351.636C418.032 351.396 418.023 351.207 418.1 351.07C418.186 350.925 418.332 350.852 418.537 350.852C418.752 350.852 418.906 350.959 419 351.173L422.549 359.659H422.266L425.802 351.199C425.853 351.07 425.917 350.98 425.995 350.929C426.072 350.877 426.175 350.852 426.303 350.852C426.5 350.852 426.633 350.929 426.702 351.083C426.77 351.229 426.766 351.396 426.689 351.585L422.857 360.572C422.806 360.692 422.742 360.777 422.665 360.829C422.587 360.872 422.502 360.893 422.407 360.893Z" fill="white"/>
<path d="M400.013 403.315C399.632 403.315 399.299 403.184 399.013 402.922C398.751 402.66 398.62 402.327 398.62 401.922C398.62 401.565 398.751 401.244 399.013 400.958L409.835 388.172C410.43 387.529 410.906 386.815 411.263 386.029C411.62 385.22 411.799 384.47 411.799 383.779C411.799 382.66 411.573 381.672 411.12 380.815C410.692 379.958 410.073 379.291 409.263 378.815C408.478 378.315 407.573 378.065 406.549 378.065C405.549 378.065 404.632 378.327 403.799 378.851C402.99 379.351 402.347 380.029 401.87 380.887C401.418 381.744 401.192 382.708 401.192 383.779C401.192 384.16 401.061 384.482 400.799 384.744C400.537 385.006 400.204 385.137 399.799 385.137C399.418 385.137 399.085 385.006 398.799 384.744C398.537 384.482 398.406 384.16 398.406 383.779C398.406 382.184 398.763 380.756 399.478 379.494C400.192 378.232 401.156 377.232 402.37 376.494C403.609 375.756 405.001 375.387 406.549 375.387C408.097 375.387 409.466 375.744 410.656 376.458C411.87 377.172 412.811 378.16 413.478 379.422C414.168 380.684 414.513 382.137 414.513 383.779C414.513 384.565 414.382 385.315 414.12 386.029C413.882 386.744 413.549 387.434 413.12 388.101C412.692 388.744 412.228 389.351 411.728 389.922L402.585 400.529H413.763C414.144 400.529 414.466 400.672 414.728 400.958C415.013 401.244 415.156 401.565 415.156 401.922C415.156 402.327 415.013 402.66 414.728 402.922C414.466 403.184 414.144 403.315 413.763 403.315H400.013ZM426.801 375.387C428.42 375.387 429.861 375.756 431.122 376.494C432.384 377.208 433.372 378.196 434.087 379.458C434.825 380.72 435.194 382.16 435.194 383.779C435.194 385.375 434.825 386.815 434.087 388.101C433.372 389.363 432.384 390.363 431.122 391.101C429.861 391.815 428.42 392.172 426.801 392.172C425.182 392.172 423.741 391.815 422.48 391.101C421.241 390.363 420.253 389.363 419.515 388.101C418.801 386.815 418.444 385.375 418.444 383.779C418.444 382.16 418.801 380.72 419.515 379.458C420.253 378.196 421.241 377.208 422.48 376.494C423.741 375.756 425.182 375.387 426.801 375.387ZM426.801 377.958C425.706 377.958 424.73 378.208 423.872 378.708C423.015 379.208 422.337 379.899 421.837 380.779C421.337 381.66 421.087 382.66 421.087 383.779C421.087 384.899 421.337 385.899 421.837 386.779C422.337 387.66 423.015 388.363 423.872 388.887C424.73 389.387 425.706 389.637 426.801 389.637C427.896 389.637 428.872 389.387 429.73 388.887C430.611 388.363 431.301 387.66 431.801 386.779C432.301 385.899 432.551 384.899 432.551 383.779C432.551 382.66 432.301 381.66 431.801 380.779C431.301 379.899 430.611 379.208 429.73 378.708C428.872 378.208 427.896 377.958 426.801 377.958ZM434.122 388.029L425.337 402.529C425.003 403.029 424.587 403.279 424.087 403.279C423.706 403.279 423.384 403.172 423.122 402.958C422.884 402.744 422.73 402.47 422.658 402.137C422.611 401.803 422.682 401.47 422.872 401.137L428.73 391.565L434.122 388.029ZM447.483 375.387C449.102 375.387 450.543 375.756 451.805 376.494C453.067 377.208 454.055 378.196 454.769 379.458C455.507 380.72 455.876 382.16 455.876 383.779C455.876 385.375 455.507 386.815 454.769 388.101C454.055 389.363 453.067 390.363 451.805 391.101C450.543 391.815 449.102 392.172 447.483 392.172C445.864 392.172 444.424 391.815 443.162 391.101C441.924 390.363 440.936 389.363 440.197 388.101C439.483 386.815 439.126 385.375 439.126 383.779C439.126 382.16 439.483 380.72 440.197 379.458C440.936 378.196 441.924 377.208 443.162 376.494C444.424 375.756 445.864 375.387 447.483 375.387ZM447.483 377.958C446.388 377.958 445.412 378.208 444.555 378.708C443.697 379.208 443.019 379.899 442.519 380.779C442.019 381.66 441.769 382.66 441.769 383.779C441.769 384.899 442.019 385.899 442.519 386.779C443.019 387.66 443.697 388.363 444.555 388.887C445.412 389.387 446.388 389.637 447.483 389.637C448.578 389.637 449.555 389.387 450.412 388.887C451.293 388.363 451.983 387.66 452.483 386.779C452.983 385.899 453.233 384.899 453.233 383.779C453.233 382.66 452.983 381.66 452.483 380.779C451.983 379.899 451.293 379.208 450.412 378.708C449.555 378.208 448.578 377.958 447.483 377.958ZM454.805 388.029L446.019 402.529C445.686 403.029 445.269 403.279 444.769 403.279C444.388 403.279 444.067 403.172 443.805 402.958C443.567 402.744 443.412 402.47 443.34 402.137C443.293 401.803 443.364 401.47 443.555 401.137L449.412 391.565L454.805 388.029Z" fill="white"/>
<path d="M103.46 158.027H116.016V165H103.46V158.027Z" fill="white"/>
<path d="M69.6986 169.184H82.2544V176.157H69.6986V169.184Z" fill="white"/>
<path d="M69.6986 158.027H82.2544V165H69.6986V158.027Z" fill="white"/>
<path d="M86.4397 160.816H99.2745V173.368H86.4397V160.816Z" fill="white"/>
<path d="M103.46 169.184H116.016V176.157H103.46V169.184Z" fill="white"/>
<path d="M84.347 153.843C85.5027 153.843 86.4397 154.779 86.4397 155.935V156.632H90.7645V151.751C90.7645 151.196 90.9849 150.664 91.3775 150.271L91.9905 149.659H69.6986V153.843H84.347Z" fill="white"/>
<path d="M94.9497 152.617V156.632H99.2745V155.935C99.2745 154.779 100.211 153.843 101.367 153.843H116.016V149.659H97.9091L94.9497 152.617Z" fill="white"/>
<path d="M101.367 180.341C100.211 180.341 99.2745 179.405 99.2745 178.249V177.552H94.9497V182.433C94.9497 182.988 94.7293 183.52 94.3367 183.912L93.7239 184.525H116.016V180.341H101.367Z" fill="white"/>
<path d="M90.7645 181.567V177.552H86.4397V178.249C86.4397 179.405 85.5027 180.341 84.347 180.341H69.6986V184.525H87.8051L90.7645 181.567Z" fill="white"/>
<path d="M118.108 137.107H67.606C61.8366 137.107 57.1428 141.799 57.1428 147.567V186.617C57.1428 192.385 61.8366 197.077 67.606 197.077H118.108C123.878 197.077 128.571 192.385 128.571 186.617V147.567C128.571 141.799 123.878 137.107 118.108 137.107ZM120.201 186.617C120.201 187.773 119.264 188.709 118.108 188.709H67.606C66.4503 188.709 65.5134 187.773 65.5134 186.617V147.567C65.5134 146.411 66.4503 145.475 67.606 145.475H118.108C119.264 145.475 120.201 146.411 120.201 147.567V186.617Z" fill="white"/>
<defs>
<linearGradient id="paint0_linear_205_3" x1="36.4707" y1="4.93966e-05" x2="809.092" y2="520.756" gradientUnits="userSpaceOnUse">
<stop stop-color="white" stop-opacity="0.51"/>
<stop offset="1" stop-color="white" stop-opacity="0"/>
</linearGradient>
</defs>
</svg>
