<svg width="645" height="462" viewBox="0 0 645 462" fill="none" xmlns="http://www.w3.org/2000/svg">
<g clip-path="url(#clip0_57_31)">
<path d="M85.6788 218H14.1912C12.5492 218 10.9745 218.652 9.81337 219.813C8.65229 220.974 8 222.549 8 224.191V295.679C8 297.321 8.65229 298.896 9.81337 300.057C10.9745 301.218 12.5492 301.87 14.1912 301.87H85.6788C87.3208 301.87 88.8956 301.218 90.0566 300.057C91.2177 298.896 91.87 297.321 91.87 295.679V224.191C91.87 222.549 91.2177 220.974 90.0566 219.813C88.8956 218.652 87.3208 218 85.6788 218ZM32.9979 289.447H20.3883V249.393H32.9979V289.447ZM26.6844 243.842C25.254 243.834 23.8581 243.403 22.6728 242.602C21.4875 241.802 20.566 240.668 20.0244 239.344C19.4829 238.02 19.3457 236.565 19.6301 235.163C19.9145 233.762 20.6078 232.476 21.6224 231.467C22.6371 230.459 23.9277 229.774 25.3313 229.499C26.7349 229.223 28.1886 229.37 29.509 229.92C30.8294 230.47 31.9573 231.399 32.7503 232.589C33.5433 233.78 33.9659 235.178 33.9648 236.609C33.9782 237.566 33.7988 238.517 33.4371 239.404C33.0754 240.29 32.5389 241.095 31.8595 241.77C31.1801 242.445 30.3718 242.977 29.4827 243.333C28.5936 243.689 27.6419 243.862 26.6844 243.842ZM79.4759 289.482H66.8721V267.6C66.8721 261.146 64.1288 259.155 60.5877 259.155C56.8485 259.155 53.1791 261.974 53.1791 267.763V289.482H40.5695V249.422H52.6957V254.973H52.8588C54.0761 252.509 58.3395 248.298 64.8452 248.298C71.881 248.298 79.4817 252.474 79.4817 264.705L79.4759 289.482Z" fill="#0A66C2"/>
<path d="M79.4759 289.482H66.8721V267.6C66.8721 261.146 64.1288 259.155 60.5877 259.155C56.8485 259.155 53.1791 261.974 53.1791 267.763V289.482H40.5695V249.422H52.6957V254.973H52.8588C54.0761 252.509 58.3395 248.298 64.8452 248.298C71.881 248.298 79.4817 252.474 79.4817 264.705L79.4759 289.482Z" fill="white"/>
<path d="M32.9979 289.447H20.3883V249.393H32.9979V289.447Z" fill="white"/>
<path d="M26.6844 243.842C25.254 243.834 23.8581 243.403 22.6728 242.602C21.4875 241.802 20.566 240.668 20.0244 239.344C19.4829 238.02 19.3457 236.565 19.6301 235.163C19.9145 233.762 20.6078 232.476 21.6224 231.467C22.6371 230.459 23.9277 229.774 25.3313 229.499C26.7349 229.223 28.1886 229.37 29.509 229.92C30.8294 230.47 31.9573 231.399 32.7503 232.589C33.5433 233.78 33.9659 235.178 33.9648 236.609C33.9782 237.566 33.7988 238.517 33.4371 239.404C33.0754 240.29 32.5389 241.095 31.8595 241.77C31.1801 242.445 30.3718 242.977 29.4827 243.333C28.5936 243.689 27.6419 243.862 26.6844 243.842Z" fill="white"/>
</g>
<path d="M367 41.935C367 18.7749 385.775 0 408.935 0C432.095 0 450.87 18.7749 450.87 41.935C450.87 65.0951 432.095 83.87 408.935 83.87C385.775 83.87 367 65.0951 367 41.935Z" fill="#1D9BF0"/>
<path d="M401.261 64.0557C419.859 64.0557 430.028 48.6446 430.028 35.2883C430.028 34.848 430.028 34.4077 430.007 33.9883C431.978 32.5626 433.698 30.7803 435.061 28.7465C433.257 29.5432 431.307 30.0884 429.253 30.34C431.349 29.0819 432.943 27.111 433.698 24.7417C431.748 25.8949 429.588 26.7336 427.282 27.1949C425.436 25.2239 422.815 24.0078 419.901 24.0078C414.324 24.0078 409.795 28.5368 409.795 34.1142C409.795 34.9109 409.879 35.6867 410.067 36.4206C401.659 36.0012 394.216 31.9755 389.226 25.853C388.366 27.3416 387.863 29.0819 387.863 30.9271C387.863 34.4287 389.645 37.5319 392.371 39.3351C390.714 39.2931 389.163 38.8318 387.8 38.077C387.8 38.1189 387.8 38.1609 387.8 38.2028C387.8 43.1092 391.28 47.1769 395.914 48.1204C395.075 48.3511 394.174 48.4769 393.251 48.4769C392.601 48.4769 391.972 48.414 391.343 48.2882C392.622 52.3139 396.355 55.2284 400.779 55.3123C397.319 58.0171 392.958 59.6316 388.219 59.6316C387.401 59.6316 386.605 59.5897 385.808 59.4848C390.232 62.3783 395.558 64.0557 401.261 64.0557Z" fill="white"/>
<path d="M88.446 73.1393C93.1656 76.4462 98.9474 78.392 105.192 78.392V66.6138C104.01 66.6141 102.831 66.4932 101.675 66.253V75.5242C95.4311 75.5242 89.65 73.5786 84.9295 70.2719V94.308C84.9295 106.332 74.985 116.079 62.7189 116.079C58.1421 116.079 53.888 114.723 50.3542 112.397C54.3875 116.439 60.0122 118.946 66.2347 118.946C78.5018 118.946 88.4465 109.2 88.4465 97.1751V73.1393H88.446ZM92.7845 61.2566C90.3725 58.6737 88.7887 55.3358 88.446 51.6454V50.1306H85.1134C85.9523 54.8208 88.8137 58.8278 92.7843 61.2566H92.7845ZM58.1125 103.17C56.765 101.438 56.0365 99.3191 56.0398 97.1407C56.0398 91.6414 60.5883 87.1824 66.2001 87.1824C67.2457 87.1819 68.2852 87.3393 69.282 87.649V75.6074C68.1172 75.4511 66.9417 75.3844 65.7667 75.4089V84.7814C64.7695 84.4714 63.7294 84.3141 62.6833 84.315C57.0717 84.315 52.5235 88.7735 52.5235 94.2736C52.5235 98.1626 54.7969 101.53 58.1125 103.17Z" fill="#FF004F"/>
<path d="M85.1008 70.4905C89.8554 73.8332 95.6773 75.7998 101.966 75.7998V66.428C98.4558 65.6923 95.3483 63.8877 93.0118 61.3774C89.0126 58.9221 86.131 54.8715 85.2861 50.1306H76.4699V97.6858C76.4498 103.23 71.8766 107.719 66.2369 107.719C62.9138 107.719 59.9613 106.16 58.0915 103.746C54.7527 102.088 52.4628 98.6843 52.4628 94.7535C52.4628 89.1942 57.0436 84.6867 62.6952 84.6867C63.7781 84.6867 64.8217 84.8526 65.8007 85.1582V75.6839C53.6637 75.9306 43.9028 85.687 43.9028 97.686C43.9028 103.676 46.3334 109.106 50.2785 113.074C53.8375 115.425 58.1218 116.796 62.7316 116.796C75.0857 116.796 85.1011 106.943 85.1011 94.788L85.1008 70.4905Z" fill="black"/>
<path d="M101.966 66.0273V63.5034C98.8169 63.5081 95.7298 62.6393 93.0578 60.9962C95.423 63.5471 98.5375 65.3062 101.966 66.0278V66.0273ZM85.3714 49.792C85.2913 49.3407 85.2298 48.8864 85.1871 48.4302V46.9048H73.0764V94.2793C73.0571 99.8017 68.5074 104.273 62.8964 104.273C61.3057 104.276 59.7368 103.909 58.3163 103.204C60.1765 105.609 63.1139 107.161 66.42 107.161C72.0305 107.161 76.5807 102.689 76.6004 97.1665V49.7922H85.3714V49.792ZM65.9868 75.2479V72.5605C64.9748 72.4242 63.9545 72.356 62.9331 72.3564C50.6411 72.3564 40.6771 82.1719 40.6771 94.2793C40.6771 101.87 44.5931 108.56 50.5439 112.495C46.6191 108.543 44.2009 103.133 44.2009 97.1662C44.2009 85.2131 53.9115 75.4939 65.9868 75.2481V75.2479Z" fill="#00F2EA"/>
<path fill-rule="evenodd" clip-rule="evenodd" d="M159.602 413.121C159.602 429.693 171.638 443.473 187.379 446.267V422.193H179.046V412.935H187.379V405.527C187.379 397.193 192.749 392.566 200.343 392.566C202.748 392.566 205.343 392.935 207.748 393.305V401.824H203.49C199.415 401.824 198.49 403.86 198.49 406.454V412.935H207.379L205.898 422.193H198.49V446.267C214.231 443.473 226.267 429.696 226.267 413.121C226.267 394.685 211.268 379.602 192.935 379.602C174.602 379.602 159.602 394.685 159.602 413.121Z" fill="white"/>
<path d="M187.379 422.193V446.267C191.814 446.997 194.276 447.227 198.49 446.267V422.193H205.898L207.379 412.935H198.49V406.454C198.49 403.86 199.415 401.824 203.49 401.824H207.748V393.305C205.343 392.935 202.748 392.566 200.343 392.566C192.749 392.566 187.379 397.193 187.379 405.527V412.935H179.046V422.193H187.379Z" fill="white"/>
<path fill-rule="evenodd" clip-rule="evenodd" d="M159.602 413.121C159.602 429.693 171.638 443.473 187.379 446.267V422.193H179.046V412.935H187.379V405.527C187.379 397.193 192.749 392.566 200.343 392.566C202.748 392.566 205.343 392.935 207.748 393.305V401.824H203.49C199.415 401.824 198.49 403.86 198.49 406.454V412.935H207.379L205.898 422.193H198.49V446.267C214.231 443.473 226.267 429.696 226.267 413.121C226.267 394.685 211.268 379.602 192.935 379.602C174.602 379.602 159.602 394.685 159.602 413.121Z" fill="#1773EA"/>
<g filter="url(#filter0_b_57_31)">
<rect x="86" y="85" width="479.561" height="300.901" rx="32.911" fill="url(#paint0_linear_57_31)" fill-opacity="0.31"/>
<rect x="86" y="85" width="479.561" height="300.901" rx="32.911" fill="black" fill-opacity="0.11"/>
<rect x="86" y="85" width="479.561" height="300.901" rx="32.911" fill="white" fill-opacity="0.02"/>
<rect x="86.8751" y="85.8751" width="477.81" height="299.151" rx="32.0359" stroke="url(#paint1_linear_57_31)" stroke-opacity="0.31" stroke-width="1.75022"/>
</g>
<path d="M310.939 324.148C312.964 324.148 314.706 324.324 316.164 324.677C317.622 325.015 318.772 325.514 319.616 326.174C320.46 326.818 321.074 327.57 321.458 328.429C321.842 329.289 322.033 330.286 322.033 331.422H316.532C316.517 331.345 316.486 331.245 316.44 331.123C316.409 331 316.279 330.793 316.049 330.501C315.818 330.194 315.519 329.926 315.151 329.695C314.783 329.45 314.223 329.235 313.471 329.051C312.734 328.851 311.875 328.752 310.893 328.752C310.018 328.752 309.251 328.821 308.591 328.959C307.946 329.097 307.432 329.273 307.049 329.488C306.68 329.703 306.381 329.979 306.151 330.317C305.936 330.639 305.79 330.961 305.713 331.284C305.637 331.591 305.598 331.936 305.598 332.319C305.598 332.857 305.683 333.332 305.852 333.747C306.02 334.161 306.297 334.545 306.68 334.898C307.064 335.235 307.609 335.496 308.315 335.68C309.02 335.864 309.88 335.956 310.893 335.956C311.936 335.956 312.841 335.88 313.609 335.726C314.376 335.573 314.936 335.389 315.289 335.174C315.642 334.959 315.918 334.744 316.118 334.529C316.333 334.299 316.455 334.107 316.486 333.954L316.532 333.724H322.033C322.033 334.506 321.934 335.22 321.734 335.864C321.535 336.493 321.182 337.107 320.675 337.706C320.169 338.304 319.509 338.803 318.696 339.202C317.898 339.601 316.854 339.923 315.565 340.169C314.276 340.399 312.78 340.514 311.077 340.514C308.99 340.514 307.24 340.361 305.829 340.054C304.417 339.731 303.281 339.233 302.422 338.557C301.578 337.867 300.972 337.038 300.603 336.071C300.235 335.105 300.051 333.915 300.051 332.504C300.051 330.984 300.281 329.688 300.741 328.614C301.217 327.524 301.923 326.657 302.859 326.012C303.795 325.353 304.923 324.877 306.243 324.585C307.563 324.294 309.128 324.148 310.939 324.148ZM336.654 324.332L343.904 340.445H337.689L336.469 337.729H328.482L327.262 340.445H321.093L328.321 324.332H336.654ZM330.393 333.079H334.559L332.464 328.844L330.393 333.079ZM344.649 324.286H356.526C356.833 324.286 357.125 324.294 357.401 324.309C357.677 324.324 358.061 324.378 358.552 324.47C359.058 324.547 359.511 324.662 359.91 324.816C360.324 324.954 360.762 325.176 361.222 325.483C361.682 325.775 362.066 326.128 362.373 326.542C362.695 326.941 362.956 327.455 363.156 328.084C363.37 328.713 363.478 329.427 363.478 330.225C363.478 332.772 362.488 334.591 360.508 335.68L363.823 340.445L357.631 340.422L354.869 336.624H350.012V340.445H344.649V324.286ZM356.02 331.905C357.355 331.905 358.022 331.399 358.022 330.386C358.022 329.465 357.324 329.005 355.928 329.005H350.012V331.905H356.02ZM375.93 340.445H364.812V324.332H375.861C376.905 324.332 377.833 324.394 378.646 324.516C379.46 324.624 380.281 324.854 381.109 325.207C381.938 325.544 382.628 326.005 383.181 326.588C383.733 327.156 384.178 327.931 384.516 328.913C384.869 329.895 385.045 331.053 385.045 332.389C385.045 333.586 384.861 334.66 384.493 335.611C384.125 336.563 383.641 337.337 383.043 337.936C382.444 338.519 381.738 339.01 380.925 339.409C380.112 339.793 379.291 340.061 378.462 340.215C377.649 340.368 376.805 340.445 375.93 340.445ZM375.562 336.048C376.406 336.048 377.127 335.887 377.726 335.565C378.324 335.227 378.761 334.79 379.038 334.253C379.314 333.716 379.452 333.102 379.452 332.412C379.452 331.307 379.137 330.424 378.508 329.764C377.894 329.089 376.912 328.752 375.562 328.752H370.176V336.048H375.562ZM397.227 324.286H408.575C408.882 324.286 409.173 324.294 409.449 324.309C409.726 324.324 410.109 324.378 410.6 324.47C411.107 324.547 411.559 324.67 411.958 324.839C412.373 324.992 412.81 325.222 413.27 325.529C413.731 325.836 414.114 326.204 414.421 326.634C414.744 327.048 415.004 327.593 415.204 328.268C415.419 328.928 415.526 329.672 415.526 330.501C415.526 331.314 415.426 332.059 415.227 332.734C415.043 333.409 414.797 333.977 414.49 334.437C414.183 334.882 413.815 335.281 413.385 335.634C412.956 335.972 412.534 336.24 412.119 336.44C411.705 336.624 411.268 336.777 410.807 336.9C410.362 337.008 409.979 337.084 409.657 337.13C409.334 337.161 409.035 337.176 408.759 337.176H402.59V340.445H397.227V324.286ZM408.414 332.412C409.825 332.412 410.531 331.828 410.531 330.662C410.531 330.401 410.493 330.179 410.416 329.995C410.355 329.811 410.255 329.665 410.117 329.557C409.979 329.435 409.841 329.335 409.703 329.258C409.564 329.181 409.396 329.135 409.196 329.12C409.012 329.089 408.859 329.066 408.736 329.051C408.613 329.036 408.475 329.028 408.321 329.028H402.59V332.412H408.414ZM426.993 324.033C428.451 324.033 429.74 324.117 430.86 324.286C431.98 324.44 433.016 324.708 433.967 325.092C434.919 325.475 435.694 325.982 436.292 326.611C436.906 327.225 437.382 328.007 437.719 328.959C438.057 329.895 438.226 331 438.226 332.273C438.226 333.532 438.072 334.621 437.765 335.542C437.474 336.463 437.044 337.245 436.476 337.89C435.924 338.519 435.187 339.033 434.266 339.432C433.361 339.816 432.333 340.092 431.182 340.261C430.031 340.43 428.688 340.514 427.154 340.514C423.348 340.514 420.578 339.823 418.844 338.442C417.126 337.046 416.266 334.89 416.266 331.974C416.266 329.273 417.149 327.279 418.913 325.989C420.678 324.685 423.371 324.033 426.993 324.033ZM427.2 336.279C428.826 336.279 430.085 335.949 430.975 335.289C431.865 334.629 432.31 333.624 432.31 332.273C432.31 330.969 431.842 329.979 430.906 329.304C429.97 328.614 428.711 328.268 427.131 328.268C426.302 328.268 425.573 328.36 424.944 328.545C424.315 328.713 423.793 328.974 423.379 329.327C422.98 329.68 422.681 330.102 422.481 330.593C422.282 331.084 422.182 331.644 422.182 332.273C422.182 333.486 422.604 334.46 423.448 335.197C424.292 335.918 425.543 336.279 427.2 336.279ZM439.217 324.286H451.094C451.401 324.286 451.693 324.294 451.969 324.309C452.245 324.324 452.629 324.378 453.12 324.47C453.626 324.547 454.079 324.662 454.478 324.816C454.892 324.954 455.33 325.176 455.79 325.483C456.251 325.775 456.634 326.128 456.941 326.542C457.263 326.941 457.524 327.455 457.724 328.084C457.939 328.713 458.046 329.427 458.046 330.225C458.046 332.772 457.056 334.591 455.077 335.68L458.391 340.445L452.199 340.422L449.437 336.624H444.58V340.445H439.217V324.286ZM450.588 331.905C451.923 331.905 452.591 331.399 452.591 330.386C452.591 329.465 451.892 329.005 450.496 329.005H444.58V331.905H450.588ZM458.863 324.286H480.201V329.626H472.214V340.445H466.874V329.626H458.863V324.286ZM492.476 324.332L499.727 340.445H493.512L492.292 337.729H484.305L483.085 340.445H476.916L484.144 324.332H492.476ZM486.215 333.079H490.382L488.287 328.844L486.215 333.079ZM505.835 335.082H517.551V340.445H500.472V324.286H505.835V335.082Z" fill="white"/>
<path d="M154.099 134.52H162.364V139.106H154.099V134.52Z" fill="white"/>
<path d="M131.877 141.857H140.142V146.442H131.877V141.857Z" fill="white"/>
<path d="M131.877 134.52H140.142V139.106H131.877V134.52Z" fill="white"/>
<path d="M142.896 136.354H151.345V144.608H142.896V136.354Z" fill="white"/>
<path d="M154.099 141.857H162.364V146.442H154.099V141.857Z" fill="white"/>
<path d="M141.519 131.769C142.28 131.769 142.897 132.385 142.897 133.144V133.603H145.743V130.393C145.743 130.028 145.888 129.679 146.147 129.421L146.55 129.018H131.877V131.769H141.519Z" fill="white"/>
<path d="M148.498 130.963V133.603H151.345V133.144C151.345 132.385 151.961 131.769 152.722 131.769H162.364V129.018H150.446L148.498 130.963Z" fill="white"/>
<path d="M152.722 149.193C151.961 149.193 151.345 148.577 151.345 147.818V147.359H148.498V150.569C148.498 150.934 148.353 151.283 148.094 151.541L147.691 151.944H162.364V149.193H152.722Z" fill="white"/>
<path d="M145.743 149.999V147.359H142.897V147.818C142.897 148.577 142.28 149.193 141.519 149.193H131.877V151.944H143.795L145.743 149.999Z" fill="white"/>
<path d="M163.741 120.764H130.5C126.702 120.764 123.613 123.85 123.613 127.642V153.32C123.613 157.113 126.702 160.198 130.5 160.198H163.741C167.539 160.198 170.629 157.113 170.629 153.32V127.642C170.629 123.85 167.539 120.764 163.741 120.764ZM165.119 153.32C165.119 154.08 164.502 154.696 163.741 154.696H130.5C129.739 154.696 129.122 154.08 129.122 153.32V127.642C129.122 126.883 129.739 126.267 130.5 126.267H163.741C164.502 126.267 165.119 126.883 165.119 127.642V153.32Z" fill="white"/>
<path d="M502.176 389.828H483.693C466.826 389.828 462.828 393.826 462.828 410.693V429.176C462.828 446.043 466.826 450.042 483.693 450.042H502.176C519.043 450.042 523.042 446.043 523.042 429.176V410.693C523.042 393.826 519.004 389.828 502.176 389.828ZM511.438 432.782H507.067C505.411 432.782 504.901 431.468 501.922 428.45C499.335 425.942 498.189 425.609 497.551 425.609C496.65 425.609 496.394 425.863 496.394 427.099V431.049C496.394 432.108 496.061 432.744 493.258 432.744C488.621 432.744 483.477 429.94 479.87 424.717C474.43 417.062 472.942 411.329 472.942 410.144C472.942 409.506 473.196 408.909 474.421 408.909H478.801C479.909 408.909 480.331 409.419 480.762 410.605C482.927 416.857 486.534 422.335 488.023 422.335C488.572 422.335 488.826 422.081 488.826 420.679V414.221C488.659 411.243 487.091 410.987 487.091 409.929C487.091 409.419 487.513 408.909 488.188 408.909H495.077C496.008 408.909 496.351 409.419 496.351 410.516V419.228C496.351 420.169 496.772 420.502 497.026 420.502C497.576 420.502 498.046 420.169 499.064 419.149C502.21 415.621 504.464 410.181 504.464 410.181C504.758 409.543 505.268 408.947 506.376 408.947H510.757C512.07 408.947 512.364 409.623 512.07 410.563C511.521 413.111 506.16 420.677 506.16 420.677C505.699 421.441 505.522 421.774 506.16 422.626C506.63 423.264 508.16 424.587 509.178 425.773C511.05 427.899 512.49 429.683 512.873 430.917C513.304 432.142 512.668 432.78 511.432 432.78L511.438 432.782Z" fill="white"/>
<path d="M511.438 432.782H507.067C505.411 432.782 504.901 431.468 501.922 428.45C499.335 425.942 498.189 425.609 497.551 425.609C496.65 425.609 496.394 425.863 496.394 427.099V431.049C496.394 432.108 496.061 432.744 493.258 432.744C488.621 432.744 483.477 429.94 479.87 424.717C474.43 417.062 472.942 411.329 472.942 410.144C472.942 409.506 473.196 408.909 474.421 408.909H478.801C479.909 408.909 480.331 409.419 480.762 410.605C482.927 416.857 486.534 422.335 488.023 422.335C488.572 422.335 488.826 422.081 488.826 420.679V414.221C488.659 411.243 487.091 410.987 487.091 409.929C487.091 409.419 487.513 408.909 488.188 408.909H495.077C496.008 408.909 496.351 409.419 496.351 410.516V419.228C496.351 420.169 496.772 420.502 497.026 420.502C497.576 420.502 498.046 420.169 499.064 419.149C502.21 415.621 504.464 410.181 504.464 410.181C504.758 409.543 505.268 408.947 506.376 408.947H510.757C512.07 408.947 512.364 409.623 512.07 410.563C511.521 413.111 506.16 420.677 506.16 420.677C505.699 421.441 505.522 421.774 506.16 422.626C506.63 423.264 508.16 424.587 509.178 425.773C511.05 427.899 512.49 429.683 512.873 430.917C513.304 432.142 512.668 432.78 511.432 432.78L511.438 432.782Z" fill="white"/>
<path d="M502.176 389.828H483.693C466.826 389.828 462.828 393.826 462.828 410.693V429.176C462.828 446.043 466.826 450.042 483.693 450.042H502.176C519.043 450.042 523.042 446.043 523.042 429.176V410.693C523.042 393.826 519.004 389.828 502.176 389.828ZM511.438 432.782H507.067C505.411 432.782 504.901 431.468 501.922 428.45C499.335 425.942 498.189 425.609 497.551 425.609C496.65 425.609 496.394 425.863 496.394 427.099V431.049C496.394 432.108 496.061 432.744 493.258 432.744C488.621 432.744 483.477 429.94 479.87 424.717C474.43 417.062 472.942 411.329 472.942 410.144C472.942 409.506 473.196 408.909 474.421 408.909H478.801C479.909 408.909 480.331 409.419 480.762 410.605C482.927 416.857 486.534 422.335 488.023 422.335C488.572 422.335 488.826 422.081 488.826 420.679V414.221C488.659 411.243 487.091 410.987 487.091 409.929C487.091 409.419 487.513 408.909 488.188 408.909H495.077C496.008 408.909 496.351 409.419 496.351 410.516V419.228C496.351 420.169 496.772 420.502 497.026 420.502C497.576 420.502 498.046 420.169 499.064 419.149C502.21 415.621 504.464 410.181 504.464 410.181C504.758 409.543 505.268 408.947 506.376 408.947H510.757C512.07 408.947 512.364 409.623 512.07 410.563C511.521 413.111 506.16 420.677 506.16 420.677C505.699 421.441 505.522 421.774 506.16 422.626C506.63 423.264 508.16 424.587 509.178 425.773C511.05 427.899 512.49 429.683 512.873 430.917C513.304 432.142 512.668 432.78 511.432 432.78L511.438 432.782Z" fill="#0073F7"/>
<path d="M637.201 228.091H634.386V227.946H602.935V241.924H622.684C619.803 250.061 612.061 255.902 602.935 255.902C591.355 255.902 581.967 246.514 581.967 234.935C581.967 223.355 591.355 213.967 602.935 213.967C608.28 213.967 613.142 215.984 616.845 219.277L626.729 209.393C620.488 203.576 612.139 199.989 602.935 199.989C583.636 199.989 567.989 215.636 567.989 234.935C567.989 254.233 583.636 269.88 602.935 269.88C622.233 269.88 637.88 254.233 637.88 234.935C637.88 232.592 637.639 230.304 637.201 228.091Z" fill="#FFC107"/>
<path d="M572.018 218.669L583.5 227.089C586.606 219.398 594.13 213.967 602.935 213.967C608.279 213.967 613.142 215.984 616.845 219.277L626.729 209.393C620.488 203.576 612.139 199.989 602.935 199.989C589.512 199.989 577.872 207.567 572.018 218.669Z" fill="#FF3D00"/>
<path d="M602.935 269.88C611.961 269.88 620.163 266.426 626.364 260.808L615.548 251.656C611.922 254.414 607.491 255.906 602.935 255.902C593.845 255.902 586.128 250.106 583.22 242.018L571.824 250.798C577.608 262.115 589.353 269.88 602.935 269.88Z" fill="#4CAF50"/>
<path d="M637.201 228.091H634.386V227.946H602.935V241.924H622.684C621.306 245.796 618.823 249.181 615.543 251.658L615.548 251.654L626.364 260.807C625.599 261.502 637.88 252.407 637.88 234.935C637.88 232.592 637.639 230.304 637.201 228.091Z" fill="#1976D2"/>
<defs>
<filter id="filter0_b_57_31" x="69.3729" y="68.3729" width="512.815" height="334.155" filterUnits="userSpaceOnUse" color-interpolation-filters="sRGB">
<feFlood flood-opacity="0" result="BackgroundImageFix"/>
<feGaussianBlur in="BackgroundImage" stdDeviation="8.31355"/>
<feComposite in2="SourceAlpha" operator="in" result="effect1_backgroundBlur_57_31"/>
<feBlend mode="normal" in="SourceGraphic" in2="effect1_backgroundBlur_57_31" result="shape"/>
</filter>
<linearGradient id="paint0_linear_57_31" x1="68.6042" y1="85" x2="590.479" y2="413.64" gradientUnits="userSpaceOnUse">
<stop stop-color="#DDD513"/>
<stop offset="1" stop-color="#65EF10"/>
</linearGradient>
<linearGradient id="paint1_linear_57_31" x1="70.8191" y1="69.0406" x2="573.735" y2="402.242" gradientUnits="userSpaceOnUse">
<stop stop-color="white"/>
<stop offset="1" stop-color="white" stop-opacity="0"/>
</linearGradient>
<clipPath id="clip0_57_31">
<rect width="83.87" height="83.87" fill="white" transform="translate(8 218)"/>
</clipPath>
</defs>
</svg>
