<svg width="550" height="360" viewBox="0 0 550 360" fill="none" xmlns="http://www.w3.org/2000/svg">
<g opacity="0.5" filter="url(#filter0_bd_3_33)">
<rect x="15" y="14" width="510" height="320" rx="35" fill="url(#paint0_linear_3_33)" shape-rendering="crispEdges"/>
<rect x="15.6" y="14.6" width="508.8" height="318.8" rx="34.4" stroke="white" stroke-opacity="0.5" stroke-width="1.2" shape-rendering="crispEdges"/>
</g>
<path d="M72.0996 295.2C71.0196 295.2 70.0063 295 69.0596 294.6C68.1263 294.187 67.3063 293.62 66.5996 292.9C65.9063 292.167 65.3596 291.313 64.9596 290.34C64.5729 289.367 64.3796 288.313 64.3796 287.18C64.3796 286.06 64.5729 285.02 64.9596 284.06C65.3596 283.087 65.9063 282.24 66.5996 281.52C67.3063 280.787 68.1263 280.213 69.0596 279.8C69.9929 279.387 71.0063 279.18 72.0996 279.18C73.1263 279.18 74.0063 279.313 74.7396 279.58C75.4863 279.847 76.2329 280.287 76.9796 280.9C77.0863 280.98 77.1663 281.067 77.2196 281.16C77.2863 281.24 77.3263 281.327 77.3396 281.42C77.3663 281.5 77.3796 281.6 77.3796 281.72C77.3796 281.973 77.2863 282.187 77.0996 282.36C76.9263 282.52 76.7129 282.613 76.4596 282.64C76.2063 282.653 75.9596 282.567 75.7196 282.38C75.2263 281.953 74.7129 281.627 74.1796 281.4C73.6596 281.173 72.9663 281.06 72.0996 281.06C71.3129 281.06 70.5729 281.22 69.8796 281.54C69.1863 281.86 68.5729 282.3 68.0396 282.86C67.5196 283.42 67.1129 284.073 66.8196 284.82C66.5263 285.553 66.3796 286.34 66.3796 287.18C66.3796 288.033 66.5263 288.833 66.8196 289.58C67.1129 290.313 67.5196 290.96 68.0396 291.52C68.5729 292.08 69.1863 292.52 69.8796 292.84C70.5729 293.147 71.3129 293.3 72.0996 293.3C72.7796 293.3 73.4196 293.187 74.0196 292.96C74.6329 292.72 75.2196 292.393 75.7796 291.98C76.0196 291.807 76.2529 291.733 76.4796 291.76C76.7196 291.773 76.9196 291.867 77.0796 292.04C77.2396 292.2 77.3196 292.427 77.3196 292.72C77.3196 292.853 77.2929 292.987 77.2396 293.12C77.1863 293.24 77.1063 293.353 76.9996 293.46C76.2796 294.033 75.5063 294.467 74.6796 294.76C73.8663 295.053 73.0063 295.2 72.0996 295.2ZM80.0265 295C79.6532 295 79.3665 294.84 79.1665 294.52C78.9665 294.2 78.9465 293.86 79.1065 293.5L84.7265 280.08C84.9265 279.613 85.2532 279.38 85.7065 279.38C86.1865 279.38 86.5132 279.613 86.6865 280.08L92.3265 293.54C92.4732 293.913 92.4465 294.253 92.2465 294.56C92.0598 294.853 91.7732 295 91.3865 295C91.1865 295 90.9932 294.947 90.8065 294.84C90.6332 294.72 90.5065 294.56 90.4265 294.36L85.4665 282.04H86.0265L80.9865 294.36C80.8932 294.573 80.7532 294.733 80.5665 294.84C80.3932 294.947 80.2132 295 80.0265 295ZM81.0865 291.56L81.8865 289.84H89.7265L90.5265 291.56H81.0865ZM95.749 295C95.4557 295 95.209 294.9 95.009 294.7C94.809 294.5 94.709 294.253 94.709 293.96V280.42C94.709 280.113 94.809 279.867 95.009 279.68C95.209 279.48 95.4557 279.38 95.749 279.38H99.349C100.349 279.38 101.236 279.593 102.009 280.02C102.782 280.433 103.382 281.007 103.809 281.74C104.249 282.473 104.469 283.327 104.469 284.3C104.469 285.207 104.249 286.013 103.809 286.72C103.382 287.427 102.782 287.98 102.009 288.38C101.236 288.78 100.349 288.98 99.349 288.98H96.789V293.96C96.789 294.253 96.689 294.5 96.489 294.7C96.3023 294.9 96.0557 295 95.749 295ZM104.049 295C103.862 295 103.689 294.96 103.529 294.88C103.382 294.8 103.256 294.673 103.149 294.5L99.549 288.7L101.569 288.12L104.849 293.4C105.089 293.787 105.122 294.153 104.949 294.5C104.776 294.833 104.476 295 104.049 295ZM96.789 287.06H99.349C99.9623 287.06 100.502 286.947 100.969 286.72C101.436 286.48 101.802 286.153 102.069 285.74C102.336 285.313 102.469 284.833 102.469 284.3C102.469 283.713 102.336 283.193 102.069 282.74C101.802 282.287 101.436 281.933 100.969 281.68C100.502 281.427 99.9623 281.3 99.349 281.3H96.789V287.06ZM108.386 295C108.092 295 107.846 294.9 107.646 294.7C107.446 294.5 107.346 294.253 107.346 293.96V280.42C107.346 280.113 107.446 279.867 107.646 279.68C107.846 279.48 108.092 279.38 108.386 279.38H112.006C113.152 279.38 114.192 279.573 115.126 279.96C116.072 280.333 116.892 280.873 117.586 281.58C118.279 282.273 118.812 283.093 119.186 284.04C119.559 284.987 119.746 286.033 119.746 287.18C119.746 288.327 119.559 289.38 119.186 290.34C118.812 291.287 118.279 292.113 117.586 292.82C116.892 293.513 116.072 294.053 115.126 294.44C114.192 294.813 113.152 295 112.006 295H108.386ZM109.426 293.16H112.006C113.126 293.16 114.112 292.907 114.966 292.4C115.832 291.88 116.512 291.173 117.006 290.28C117.499 289.373 117.746 288.34 117.746 287.18C117.746 286.007 117.499 284.973 117.006 284.08C116.512 283.187 115.832 282.487 114.966 281.98C114.112 281.473 113.126 281.22 112.006 281.22H109.426V293.16ZM129.909 295C129.616 295 129.369 294.9 129.169 294.7C128.969 294.5 128.869 294.253 128.869 293.96V280.42C128.869 280.113 128.969 279.867 129.169 279.68C129.369 279.48 129.616 279.38 129.909 279.38H133.909C134.909 279.38 135.796 279.6 136.569 280.04C137.342 280.48 137.942 281.093 138.369 281.88C138.809 282.653 139.029 283.547 139.029 284.56C139.029 285.533 138.809 286.4 138.369 287.16C137.942 287.92 137.342 288.513 136.569 288.94C135.796 289.367 134.909 289.58 133.909 289.58H130.949V293.96C130.949 294.253 130.849 294.5 130.649 294.7C130.462 294.9 130.216 295 129.909 295ZM130.949 287.66H133.909C134.522 287.66 135.062 287.527 135.529 287.26C135.996 286.993 136.362 286.627 136.629 286.16C136.896 285.693 137.029 285.16 137.029 284.56C137.029 283.92 136.896 283.36 136.629 282.88C136.362 282.387 135.996 282 135.529 281.72C135.062 281.44 134.522 281.3 133.909 281.3H130.949V287.66ZM148.55 295.2C147.377 295.2 146.303 295.007 145.33 294.62C144.357 294.22 143.517 293.667 142.81 292.96C142.117 292.24 141.577 291.393 141.19 290.42C140.803 289.433 140.61 288.353 140.61 287.18C140.61 286.007 140.803 284.933 141.19 283.96C141.577 282.987 142.117 282.147 142.81 281.44C143.517 280.72 144.357 280.167 145.33 279.78C146.303 279.38 147.377 279.18 148.55 279.18C149.723 279.18 150.79 279.38 151.75 279.78C152.723 280.167 153.563 280.72 154.27 281.44C154.977 282.147 155.523 282.987 155.91 283.96C156.297 284.933 156.49 286.007 156.49 287.18C156.49 288.353 156.297 289.433 155.91 290.42C155.523 291.393 154.977 292.24 154.27 292.96C153.563 293.667 152.723 294.22 151.75 294.62C150.79 295.007 149.723 295.2 148.55 295.2ZM148.55 293.32C149.417 293.32 150.21 293.167 150.93 292.86C151.663 292.54 152.297 292.107 152.83 291.56C153.363 291 153.77 290.347 154.05 289.6C154.343 288.853 154.49 288.047 154.49 287.18C154.49 286.313 154.343 285.507 154.05 284.76C153.77 284.013 153.363 283.367 152.83 282.82C152.297 282.26 151.663 281.827 150.93 281.52C150.21 281.213 149.417 281.06 148.55 281.06C147.683 281.06 146.883 281.213 146.15 281.52C145.43 281.827 144.803 282.26 144.27 282.82C143.75 283.367 143.343 284.013 143.05 284.76C142.757 285.507 142.61 286.313 142.61 287.18C142.61 288.047 142.757 288.853 143.05 289.6C143.343 290.347 143.75 291 144.27 291.56C144.803 292.107 145.43 292.54 146.15 292.86C146.883 293.167 147.683 293.32 148.55 293.32ZM160.788 295C160.495 295 160.248 294.9 160.048 294.7C159.848 294.5 159.748 294.253 159.748 293.96V280.42C159.748 280.113 159.848 279.867 160.048 279.68C160.248 279.48 160.495 279.38 160.788 279.38H164.388C165.388 279.38 166.275 279.593 167.048 280.02C167.821 280.433 168.421 281.007 168.848 281.74C169.288 282.473 169.508 283.327 169.508 284.3C169.508 285.207 169.288 286.013 168.848 286.72C168.421 287.427 167.821 287.98 167.048 288.38C166.275 288.78 165.388 288.98 164.388 288.98H161.828V293.96C161.828 294.253 161.728 294.5 161.528 294.7C161.341 294.9 161.095 295 160.788 295ZM169.088 295C168.901 295 168.728 294.96 168.568 294.88C168.421 294.8 168.295 294.673 168.188 294.5L164.588 288.7L166.608 288.12L169.888 293.4C170.128 293.787 170.161 294.153 169.988 294.5C169.815 294.833 169.515 295 169.088 295ZM161.828 287.06H164.388C165.001 287.06 165.541 286.947 166.008 286.72C166.475 286.48 166.841 286.153 167.108 285.74C167.375 285.313 167.508 284.833 167.508 284.3C167.508 283.713 167.375 283.193 167.108 282.74C166.841 282.287 166.475 281.933 166.008 281.68C165.541 281.427 165.001 281.3 164.388 281.3H161.828V287.06ZM177.005 295C176.711 295 176.465 294.9 176.265 294.7C176.065 294.5 175.965 294.253 175.965 293.96V279.38H178.045V293.96C178.045 294.253 177.945 294.5 177.745 294.7C177.545 294.9 177.298 295 177.005 295ZM171.645 281.3C171.365 281.3 171.131 281.213 170.945 281.04C170.771 280.853 170.685 280.62 170.685 280.34C170.685 280.06 170.771 279.833 170.945 279.66C171.131 279.473 171.365 279.38 171.645 279.38H182.345C182.625 279.38 182.851 279.473 183.025 279.66C183.211 279.833 183.305 280.06 183.305 280.34C183.305 280.62 183.211 280.853 183.025 281.04C182.851 281.213 182.625 281.3 182.345 281.3H171.645ZM183.386 295C183.013 295 182.726 294.84 182.526 294.52C182.326 294.2 182.306 293.86 182.466 293.5L188.086 280.08C188.286 279.613 188.613 279.38 189.066 279.38C189.546 279.38 189.873 279.613 190.046 280.08L195.686 293.54C195.833 293.913 195.806 294.253 195.606 294.56C195.419 294.853 195.133 295 194.746 295C194.546 295 194.353 294.947 194.166 294.84C193.993 294.72 193.866 294.56 193.786 294.36L188.826 282.04H189.386L184.346 294.36C184.253 294.573 184.113 294.733 183.926 294.84C183.753 294.947 183.573 295 183.386 295ZM184.446 291.56L185.246 289.84H193.086L193.886 291.56H184.446ZM199.088 295C198.795 295 198.548 294.9 198.348 294.7C198.162 294.5 198.068 294.253 198.068 293.96V280.42C198.068 280.127 198.168 279.88 198.368 279.68C198.568 279.48 198.808 279.38 199.088 279.38C199.382 279.38 199.628 279.48 199.828 279.68C200.028 279.88 200.128 280.127 200.128 280.42V292.92H207.368C207.662 292.92 207.908 293.02 208.108 293.22C208.308 293.42 208.408 293.667 208.408 293.96C208.408 294.253 208.308 294.5 208.108 294.7C207.908 294.9 207.662 295 207.368 295H199.088Z" fill="white"/>
<path d="M174.239 226C174.089 226 173.981 225.925 173.915 225.775L171.242 219.52C171.176 219.352 171.17 219.22 171.224 219.124C171.284 219.022 171.386 218.971 171.53 218.971C171.68 218.971 171.788 219.046 171.854 219.196L174.239 224.902L176.615 219.214C176.681 219.052 176.798 218.971 176.966 218.971C177.104 218.971 177.197 219.025 177.245 219.133C177.293 219.235 177.29 219.352 177.236 219.484L174.554 225.775C174.488 225.925 174.383 226 174.239 226ZM179.436 226.045C178.974 226.045 178.56 225.937 178.194 225.721C177.828 225.499 177.537 225.199 177.321 224.821C177.111 224.443 177.006 224.017 177.006 223.543C177.006 223.063 177.114 222.634 177.33 222.256C177.552 221.878 177.852 221.581 178.23 221.365C178.608 221.143 179.034 221.032 179.508 221.032C179.982 221.032 180.405 221.143 180.777 221.365C181.155 221.581 181.452 221.878 181.668 222.256C181.89 222.634 182.004 223.063 182.01 223.543V225.658C182.01 225.76 181.977 225.844 181.911 225.91C181.845 225.97 181.761 226 181.659 226C181.557 226 181.473 225.97 181.407 225.91C181.341 225.844 181.308 225.76 181.308 225.658V225.109C181.104 225.397 180.84 225.625 180.516 225.793C180.192 225.961 179.832 226.045 179.436 226.045ZM179.508 225.415C179.856 225.415 180.165 225.334 180.435 225.172C180.711 225.01 180.927 224.788 181.083 224.506C181.245 224.218 181.326 223.897 181.326 223.543C181.326 223.183 181.245 222.862 181.083 222.58C180.927 222.298 180.711 222.076 180.435 221.914C180.165 221.746 179.856 221.662 179.508 221.662C179.166 221.662 178.857 221.746 178.581 221.914C178.305 222.076 178.086 222.298 177.924 222.58C177.762 222.862 177.681 223.183 177.681 223.543C177.681 223.897 177.762 224.218 177.924 224.506C178.086 224.788 178.305 225.01 178.581 225.172C178.857 225.334 179.166 225.415 179.508 225.415ZM184.42 226C184.06 226 183.763 225.856 183.529 225.568C183.295 225.274 183.178 224.899 183.178 224.443V219.313C183.178 219.211 183.208 219.13 183.268 219.07C183.334 219.004 183.418 218.971 183.52 218.971C183.622 218.971 183.703 219.004 183.763 219.07C183.829 219.13 183.862 219.211 183.862 219.313V224.443C183.862 224.701 183.913 224.911 184.015 225.073C184.123 225.235 184.258 225.316 184.42 225.316H184.645C184.735 225.316 184.807 225.349 184.861 225.415C184.915 225.475 184.942 225.556 184.942 225.658C184.942 225.76 184.903 225.844 184.825 225.91C184.753 225.97 184.657 226 184.537 226H184.42ZM186.393 226C186.285 226 186.198 225.97 186.132 225.91C186.072 225.844 186.042 225.757 186.042 225.649V221.428C186.042 221.32 186.072 221.236 186.132 221.176C186.198 221.11 186.285 221.077 186.393 221.077C186.495 221.077 186.576 221.11 186.636 221.176C186.702 221.236 186.735 221.32 186.735 221.428V225.649C186.735 225.757 186.702 225.844 186.636 225.91C186.576 225.97 186.495 226 186.393 226ZM186.384 220.141C186.252 220.141 186.138 220.093 186.042 219.997C185.946 219.901 185.898 219.784 185.898 219.646C185.898 219.496 185.946 219.379 186.042 219.295C186.144 219.205 186.261 219.16 186.393 219.16C186.519 219.16 186.63 219.205 186.726 219.295C186.828 219.379 186.879 219.496 186.879 219.646C186.879 219.784 186.831 219.901 186.735 219.997C186.639 220.093 186.522 220.141 186.384 220.141ZM190.74 226.045C190.266 226.045 189.84 225.937 189.462 225.721C189.084 225.499 188.784 225.199 188.562 224.821C188.346 224.443 188.238 224.014 188.238 223.534C188.238 223.06 188.343 222.634 188.553 222.256C188.769 221.878 189.06 221.581 189.426 221.365C189.792 221.143 190.206 221.032 190.668 221.032C191.07 221.032 191.433 221.119 191.757 221.293C192.081 221.461 192.342 221.686 192.54 221.968V219.322C192.54 219.214 192.573 219.13 192.639 219.07C192.705 219.004 192.789 218.971 192.891 218.971C192.993 218.971 193.077 219.004 193.143 219.07C193.209 219.13 193.242 219.214 193.242 219.322V223.57C193.23 224.038 193.113 224.461 192.891 224.839C192.675 225.211 192.378 225.505 192 225.721C191.628 225.937 191.208 226.045 190.74 226.045ZM190.74 225.415C191.088 225.415 191.397 225.334 191.667 225.172C191.943 225.004 192.159 224.779 192.315 224.497C192.477 224.215 192.558 223.894 192.558 223.534C192.558 223.18 192.477 222.862 192.315 222.58C192.159 222.292 191.943 222.067 191.667 221.905C191.397 221.743 191.088 221.662 190.74 221.662C190.398 221.662 190.089 221.743 189.813 221.905C189.537 222.067 189.318 222.292 189.156 222.58C188.994 222.862 188.913 223.18 188.913 223.534C188.913 223.894 188.994 224.215 189.156 224.497C189.318 224.779 189.537 225.004 189.813 225.172C190.089 225.334 190.398 225.415 190.74 225.415ZM199.425 226C199.107 226 198.822 225.925 198.57 225.775C198.324 225.625 198.129 225.421 197.985 225.163C197.841 224.899 197.769 224.599 197.769 224.263V221.86H197.184C197.094 221.86 197.019 221.833 196.959 221.779C196.899 221.719 196.869 221.647 196.869 221.563C196.869 221.473 196.899 221.401 196.959 221.347C197.019 221.287 197.094 221.257 197.184 221.257H197.769V219.862C197.769 219.76 197.799 219.676 197.859 219.61C197.925 219.544 198.009 219.511 198.111 219.511C198.213 219.511 198.297 219.544 198.363 219.61C198.429 219.676 198.462 219.76 198.462 219.862V221.257H199.479C199.569 221.257 199.644 221.287 199.704 221.347C199.764 221.401 199.794 221.473 199.794 221.563C199.794 221.647 199.764 221.719 199.704 221.779C199.644 221.833 199.569 221.86 199.479 221.86H198.462V224.263C198.462 224.569 198.552 224.821 198.732 225.019C198.912 225.211 199.143 225.307 199.425 225.307H199.668C199.764 225.307 199.842 225.34 199.902 225.406C199.962 225.472 199.992 225.556 199.992 225.658C199.992 225.76 199.956 225.844 199.884 225.91C199.812 225.97 199.722 226 199.614 226H199.425ZM201.616 226C201.508 226 201.421 225.97 201.355 225.91C201.295 225.844 201.265 225.757 201.265 225.649V221.428C201.265 221.32 201.295 221.236 201.355 221.176C201.421 221.11 201.508 221.077 201.616 221.077C201.718 221.077 201.799 221.11 201.859 221.176C201.925 221.236 201.958 221.32 201.958 221.428V225.649C201.958 225.757 201.925 225.844 201.859 225.91C201.799 225.97 201.718 226 201.616 226ZM201.607 220.141C201.475 220.141 201.361 220.093 201.265 219.997C201.169 219.901 201.121 219.784 201.121 219.646C201.121 219.496 201.169 219.379 201.265 219.295C201.367 219.205 201.484 219.16 201.616 219.16C201.742 219.16 201.853 219.205 201.949 219.295C202.051 219.379 202.102 219.496 202.102 219.646C202.102 219.784 202.054 219.901 201.958 219.997C201.862 220.093 201.745 220.141 201.607 220.141ZM204.784 226C204.424 226 204.127 225.856 203.893 225.568C203.659 225.274 203.542 224.899 203.542 224.443V219.313C203.542 219.211 203.572 219.13 203.632 219.07C203.698 219.004 203.782 218.971 203.884 218.971C203.986 218.971 204.067 219.004 204.127 219.07C204.193 219.13 204.226 219.211 204.226 219.313V224.443C204.226 224.701 204.277 224.911 204.379 225.073C204.487 225.235 204.622 225.316 204.784 225.316H205.009C205.099 225.316 205.171 225.349 205.225 225.415C205.279 225.475 205.306 225.556 205.306 225.658C205.306 225.76 205.267 225.844 205.189 225.91C205.117 225.97 205.021 226 204.901 226H204.784ZM207.324 226C206.964 226 206.667 225.856 206.433 225.568C206.199 225.274 206.082 224.899 206.082 224.443V219.313C206.082 219.211 206.112 219.13 206.172 219.07C206.238 219.004 206.322 218.971 206.424 218.971C206.526 218.971 206.607 219.004 206.667 219.07C206.733 219.13 206.766 219.211 206.766 219.313V224.443C206.766 224.701 206.817 224.911 206.919 225.073C207.027 225.235 207.162 225.316 207.324 225.316H207.549C207.639 225.316 207.711 225.349 207.765 225.415C207.819 225.475 207.846 225.556 207.846 225.658C207.846 225.76 207.807 225.844 207.729 225.91C207.657 225.97 207.561 226 207.441 226H207.324Z" fill="white"/>
<path d="M58.5533 226C58.4033 226 58.2953 225.925 58.2293 225.775L55.5563 219.52C55.4903 219.352 55.4843 219.22 55.5383 219.124C55.5983 219.022 55.7003 218.971 55.8443 218.971C55.9943 218.971 56.1023 219.046 56.1683 219.196L58.5533 224.902L60.9293 219.214C60.9953 219.052 61.1123 218.971 61.2803 218.971C61.4183 218.971 61.5113 219.025 61.5593 219.133C61.6073 219.235 61.6043 219.352 61.5503 219.484L58.8683 225.775C58.8023 225.925 58.6973 226 58.5533 226ZM63.7505 226.045C63.2885 226.045 62.8745 225.937 62.5085 225.721C62.1425 225.499 61.8515 225.199 61.6355 224.821C61.4255 224.443 61.3205 224.017 61.3205 223.543C61.3205 223.063 61.4285 222.634 61.6445 222.256C61.8665 221.878 62.1665 221.581 62.5445 221.365C62.9225 221.143 63.3485 221.032 63.8225 221.032C64.2965 221.032 64.7195 221.143 65.0915 221.365C65.4695 221.581 65.7665 221.878 65.9825 222.256C66.2045 222.634 66.3185 223.063 66.3245 223.543V225.658C66.3245 225.76 66.2915 225.844 66.2255 225.91C66.1595 225.97 66.0755 226 65.9735 226C65.8715 226 65.7875 225.97 65.7215 225.91C65.6555 225.844 65.6225 225.76 65.6225 225.658V225.109C65.4185 225.397 65.1545 225.625 64.8305 225.793C64.5065 225.961 64.1465 226.045 63.7505 226.045ZM63.8225 225.415C64.1705 225.415 64.4795 225.334 64.7495 225.172C65.0255 225.01 65.2415 224.788 65.3975 224.506C65.5595 224.218 65.6405 223.897 65.6405 223.543C65.6405 223.183 65.5595 222.862 65.3975 222.58C65.2415 222.298 65.0255 222.076 64.7495 221.914C64.4795 221.746 64.1705 221.662 63.8225 221.662C63.4805 221.662 63.1715 221.746 62.8955 221.914C62.6195 222.076 62.4005 222.298 62.2385 222.58C62.0765 222.862 61.9955 223.183 61.9955 223.543C61.9955 223.897 62.0765 224.218 62.2385 224.506C62.4005 224.788 62.6195 225.01 62.8955 225.172C63.1715 225.334 63.4805 225.415 63.8225 225.415ZM68.7343 226C68.3743 226 68.0773 225.856 67.8433 225.568C67.6093 225.274 67.4923 224.899 67.4923 224.443V219.313C67.4923 219.211 67.5223 219.13 67.5823 219.07C67.6483 219.004 67.7323 218.971 67.8343 218.971C67.9363 218.971 68.0173 219.004 68.0773 219.07C68.1433 219.13 68.1763 219.211 68.1763 219.313V224.443C68.1763 224.701 68.2273 224.911 68.3293 225.073C68.4373 225.235 68.5723 225.316 68.7343 225.316H68.9593C69.0493 225.316 69.1213 225.349 69.1753 225.415C69.2293 225.475 69.2563 225.556 69.2563 225.658C69.2563 225.76 69.2173 225.844 69.1393 225.91C69.0673 225.97 68.9713 226 68.8513 226H68.7343ZM70.7073 226C70.5993 226 70.5123 225.97 70.4463 225.91C70.3863 225.844 70.3563 225.757 70.3563 225.649V221.428C70.3563 221.32 70.3863 221.236 70.4463 221.176C70.5123 221.11 70.5993 221.077 70.7073 221.077C70.8093 221.077 70.8903 221.11 70.9503 221.176C71.0163 221.236 71.0493 221.32 71.0493 221.428V225.649C71.0493 225.757 71.0163 225.844 70.9503 225.91C70.8903 225.97 70.8093 226 70.7073 226ZM70.6983 220.141C70.5663 220.141 70.4523 220.093 70.3563 219.997C70.2603 219.901 70.2123 219.784 70.2123 219.646C70.2123 219.496 70.2603 219.379 70.3563 219.295C70.4583 219.205 70.5753 219.16 70.7073 219.16C70.8333 219.16 70.9443 219.205 71.0403 219.295C71.1423 219.379 71.1933 219.496 71.1933 219.646C71.1933 219.784 71.1453 219.901 71.0493 219.997C70.9533 220.093 70.8363 220.141 70.6983 220.141ZM75.0549 226.045C74.5809 226.045 74.1549 225.937 73.7769 225.721C73.3989 225.499 73.0989 225.199 72.8769 224.821C72.6609 224.443 72.5529 224.014 72.5529 223.534C72.5529 223.06 72.6579 222.634 72.8679 222.256C73.0839 221.878 73.3749 221.581 73.7409 221.365C74.1069 221.143 74.5209 221.032 74.9829 221.032C75.3849 221.032 75.7479 221.119 76.0719 221.293C76.3959 221.461 76.6569 221.686 76.8549 221.968V219.322C76.8549 219.214 76.8879 219.13 76.9539 219.07C77.0199 219.004 77.1039 218.971 77.2059 218.971C77.3079 218.971 77.3919 219.004 77.4579 219.07C77.5239 219.13 77.5569 219.214 77.5569 219.322V223.57C77.5449 224.038 77.4279 224.461 77.2059 224.839C76.9899 225.211 76.6929 225.505 76.3149 225.721C75.9429 225.937 75.5229 226.045 75.0549 226.045ZM75.0549 225.415C75.4029 225.415 75.7119 225.334 75.9819 225.172C76.2579 225.004 76.4739 224.779 76.6299 224.497C76.7919 224.215 76.8729 223.894 76.8729 223.534C76.8729 223.18 76.7919 222.862 76.6299 222.58C76.4739 222.292 76.2579 222.067 75.9819 221.905C75.7119 221.743 75.4029 221.662 75.0549 221.662C74.7129 221.662 74.4039 221.743 74.1279 221.905C73.8519 222.067 73.6329 222.292 73.4709 222.58C73.3089 222.862 73.2279 223.18 73.2279 223.534C73.2279 223.894 73.3089 224.215 73.4709 224.497C73.6329 224.779 73.8519 225.004 74.1279 225.172C74.4039 225.334 74.7129 225.415 75.0549 225.415ZM82.4259 226C82.3359 226 82.2579 225.97 82.1919 225.91C82.1259 225.844 82.0929 225.757 82.0929 225.649V221.86H81.5169C81.4209 221.86 81.3429 221.833 81.2829 221.779C81.2289 221.719 81.2019 221.647 81.2019 221.563C81.2019 221.473 81.2289 221.401 81.2829 221.347C81.3429 221.287 81.4209 221.257 81.5169 221.257H82.0929V221.086C82.0929 220.456 82.2549 219.946 82.5789 219.556C82.9029 219.166 83.3709 218.971 83.9829 218.971C84.0849 218.971 84.1689 219.001 84.2349 219.061C84.3009 219.121 84.3339 219.196 84.3339 219.286C84.3339 219.376 84.3009 219.451 84.2349 219.511C84.1689 219.571 84.0849 219.601 83.9829 219.601C83.5749 219.601 83.2719 219.739 83.0739 220.015C82.8819 220.285 82.7859 220.63 82.7859 221.05V221.257H83.8659C83.9619 221.257 84.0369 221.287 84.0909 221.347C84.1509 221.401 84.1809 221.473 84.1809 221.563C84.1809 221.647 84.1509 221.719 84.0909 221.779C84.0369 221.833 83.9619 221.86 83.8659 221.86H82.7859V225.649C82.7859 225.757 82.7529 225.844 82.6869 225.91C82.6269 225.97 82.5399 226 82.4259 226ZM85.4518 226C85.2238 226 85.1098 225.886 85.1098 225.658V221.419C85.1098 221.191 85.2238 221.077 85.4518 221.077C85.6798 221.077 85.7938 221.191 85.7938 221.419V221.806C85.9738 221.566 86.1958 221.377 86.4598 221.239C86.7238 221.095 87.0148 221.023 87.3328 221.023C87.6088 221.023 87.8218 221.062 87.9718 221.14C88.1218 221.218 88.1788 221.332 88.1428 221.482C88.1128 221.62 88.0408 221.692 87.9268 221.698C87.8188 221.698 87.6898 221.692 87.5398 221.68C87.2038 221.65 86.9038 221.686 86.6398 221.788C86.3818 221.884 86.1748 222.034 86.0188 222.238C85.8688 222.442 85.7938 222.685 85.7938 222.967V225.658C85.7938 225.886 85.6798 226 85.4518 226ZM91.1125 226.045C90.6325 226.045 90.2035 225.937 89.8255 225.721C89.4475 225.505 89.1505 225.208 88.9345 224.83C88.7185 224.452 88.6105 224.023 88.6105 223.543C88.6105 223.057 88.7185 222.625 88.9345 222.247C89.1505 221.869 89.4475 221.572 89.8255 221.356C90.2035 221.14 90.6325 221.032 91.1125 221.032C91.5925 221.032 92.0185 221.14 92.3905 221.356C92.7685 221.572 93.0655 221.869 93.2815 222.247C93.4975 222.625 93.6085 223.057 93.6145 223.543C93.6145 224.023 93.5035 224.452 93.2815 224.83C93.0655 225.208 92.7685 225.505 92.3905 225.721C92.0185 225.937 91.5925 226.045 91.1125 226.045ZM91.1125 225.415C91.4605 225.415 91.7725 225.334 92.0485 225.172C92.3245 225.01 92.5405 224.788 92.6965 224.506C92.8525 224.224 92.9305 223.903 92.9305 223.543C92.9305 223.183 92.8525 222.862 92.6965 222.58C92.5405 222.292 92.3245 222.067 92.0485 221.905C91.7725 221.743 91.4605 221.662 91.1125 221.662C90.7645 221.662 90.4525 221.743 90.1765 221.905C89.9005 222.067 89.6815 222.292 89.5195 222.58C89.3635 222.862 89.2855 223.183 89.2855 223.543C89.2855 223.903 89.3635 224.224 89.5195 224.506C89.6815 224.788 89.9005 225.01 90.1765 225.172C90.4525 225.334 90.7645 225.415 91.1125 225.415ZM95.3133 226C95.2053 226 95.1183 225.97 95.0523 225.91C94.9923 225.844 94.9623 225.76 94.9623 225.658V221.428C94.9623 221.326 94.9923 221.242 95.0523 221.176C95.1183 221.11 95.2053 221.077 95.3133 221.077C95.4153 221.077 95.4963 221.11 95.5563 221.176C95.6223 221.242 95.6553 221.326 95.6553 221.428V221.626C95.8233 221.434 96.0213 221.287 96.2493 221.185C96.4773 221.077 96.7293 221.023 97.0053 221.023C97.3413 221.023 97.6383 221.098 97.8963 221.248C98.1603 221.398 98.3703 221.605 98.5263 221.869C98.6943 221.605 98.9193 221.398 99.2013 221.248C99.4833 221.098 99.7983 221.023 100.146 221.023C100.5 221.023 100.812 221.107 101.082 221.275C101.358 221.443 101.571 221.68 101.721 221.986C101.877 222.292 101.955 222.652 101.955 223.066V225.658C101.955 225.76 101.922 225.844 101.856 225.91C101.796 225.97 101.715 226 101.613 226C101.511 226 101.427 225.97 101.361 225.91C101.295 225.844 101.262 225.76 101.262 225.658V223.066C101.262 222.64 101.151 222.304 100.929 222.058C100.707 221.806 100.422 221.68 100.074 221.68C99.7023 221.68 99.3963 221.806 99.1563 222.058C98.9223 222.304 98.8083 222.634 98.8143 223.048V223.066V225.658C98.8143 225.76 98.7813 225.844 98.7153 225.91C98.6553 225.97 98.5743 226 98.4723 226C98.3703 226 98.2863 225.97 98.2203 225.91C98.1543 225.844 98.1213 225.76 98.1213 225.658V223.066C98.1213 222.64 98.0103 222.304 97.7883 222.058C97.5663 221.806 97.2813 221.68 96.9333 221.68C96.5613 221.68 96.2553 221.803 96.0153 222.049C95.7753 222.289 95.6553 222.604 95.6553 222.994V225.658C95.6553 225.76 95.6223 225.844 95.5563 225.91C95.4963 225.97 95.4153 226 95.3133 226Z" fill="white"/>
<path d="M176.985 249C175.492 249 174.332 248.307 173.505 246.92C172.692 245.533 172.285 243.613 172.285 241.16C172.285 239.547 172.465 238.153 172.825 236.98C173.198 235.807 173.738 234.907 174.445 234.28C175.152 233.653 175.998 233.34 176.985 233.34C177.998 233.34 178.852 233.66 179.545 234.3C180.252 234.927 180.785 235.827 181.145 237C181.518 238.173 181.705 239.56 181.705 241.16C181.705 242.787 181.518 244.187 181.145 245.36C180.785 246.52 180.252 247.42 179.545 248.06C178.852 248.687 177.998 249 176.985 249ZM176.985 247.44C177.705 247.44 178.298 247.173 178.765 246.64C179.232 246.093 179.578 245.347 179.805 244.4C180.032 243.453 180.145 242.373 180.145 241.16C180.145 239.96 180.025 238.893 179.785 237.96C179.558 237.013 179.212 236.267 178.745 235.72C178.278 235.173 177.692 234.9 176.985 234.9C176.278 234.9 175.692 235.173 175.225 235.72C174.772 236.253 174.425 236.993 174.185 237.94C173.958 238.887 173.845 239.96 173.845 241.16C173.845 242.387 173.958 243.473 174.185 244.42C174.425 245.353 174.772 246.093 175.225 246.64C175.692 247.173 176.278 247.44 176.985 247.44ZM188.291 233.36C189.198 233.36 190.004 233.567 190.711 233.98C191.418 234.38 191.971 234.933 192.371 235.64C192.784 236.347 192.991 237.153 192.991 238.06C192.991 238.927 192.791 239.72 192.391 240.44H192.411L192.371 240.5C192.331 240.567 192.291 240.633 192.251 240.7L187.471 248.56C187.298 248.84 187.064 248.98 186.771 248.98C186.464 248.98 186.231 248.853 186.071 248.6C185.924 248.333 185.931 248.067 186.091 247.8L189.231 242.68C188.924 242.733 188.611 242.76 188.291 242.76C187.398 242.76 186.598 242.56 185.891 242.16C185.184 241.747 184.624 241.187 184.211 240.48C183.811 239.76 183.611 238.953 183.611 238.06C183.611 237.153 183.811 236.347 184.211 235.64C184.624 234.933 185.184 234.38 185.891 233.98C186.598 233.567 187.398 233.36 188.291 233.36ZM188.311 234.8C187.698 234.8 187.144 234.94 186.651 235.22C186.171 235.5 185.791 235.887 185.511 236.38C185.231 236.873 185.091 237.433 185.091 238.06C185.091 238.687 185.231 239.247 185.511 239.74C185.791 240.233 186.171 240.627 186.651 240.92C187.144 241.2 187.698 241.34 188.311 241.34C188.924 241.34 189.471 241.2 189.951 240.92C190.431 240.627 190.811 240.233 191.091 239.74C191.371 239.247 191.511 238.687 191.511 238.06C191.511 237.433 191.371 236.873 191.091 236.38C190.811 235.887 190.431 235.5 189.951 235.22C189.471 234.94 188.924 234.8 188.311 234.8ZM195.833 250.56C195.553 250.56 195.333 250.447 195.173 250.22C195.026 250.007 195.013 249.753 195.133 249.46L201.413 233.8C201.533 233.493 201.773 233.34 202.133 233.34C202.426 233.34 202.64 233.46 202.773 233.7C202.906 233.927 202.926 234.173 202.833 234.44L196.553 250.12C196.486 250.28 196.386 250.393 196.253 250.46C196.12 250.527 195.98 250.56 195.833 250.56ZM205.868 249C205.655 249 205.468 248.927 205.308 248.78C205.161 248.633 205.088 248.447 205.088 248.22C205.088 248.02 205.161 247.84 205.308 247.68L211.368 240.52C211.701 240.16 211.968 239.76 212.168 239.32C212.368 238.867 212.468 238.447 212.468 238.06C212.468 237.127 212.195 236.36 211.648 235.76C211.101 235.16 210.395 234.86 209.528 234.86C208.968 234.86 208.455 235.007 207.988 235.3C207.535 235.58 207.175 235.96 206.908 236.44C206.655 236.92 206.528 237.46 206.528 238.06C206.528 238.273 206.455 238.453 206.308 238.6C206.161 238.747 205.975 238.82 205.748 238.82C205.535 238.82 205.348 238.747 205.188 238.6C205.041 238.453 204.968 238.273 204.968 238.06C204.968 237.167 205.168 236.367 205.568 235.66C205.968 234.953 206.508 234.393 207.188 233.98C207.881 233.567 208.661 233.36 209.528 233.36C210.395 233.36 211.161 233.56 211.828 233.96C212.508 234.36 213.035 234.913 213.408 235.62C213.795 236.327 213.988 237.14 213.988 238.06C213.988 238.713 213.828 239.333 213.508 239.92C213.201 240.493 212.841 241.02 212.428 241.5L207.308 247.44H213.568C213.781 247.44 213.961 247.52 214.108 247.68C214.268 247.84 214.348 248.02 214.348 248.22C214.348 248.447 214.268 248.633 214.108 248.78C213.961 248.927 213.781 249 213.568 249H205.868ZM220.989 249C219.496 249 218.336 248.307 217.509 246.92C216.696 245.533 216.289 243.613 216.289 241.16C216.289 239.547 216.469 238.153 216.829 236.98C217.202 235.807 217.742 234.907 218.449 234.28C219.156 233.653 220.002 233.34 220.989 233.34C222.002 233.34 222.856 233.66 223.549 234.3C224.256 234.927 224.789 235.827 225.149 237C225.522 238.173 225.709 239.56 225.709 241.16C225.709 242.787 225.522 244.187 225.149 245.36C224.789 246.52 224.256 247.42 223.549 248.06C222.856 248.687 222.002 249 220.989 249ZM220.989 247.44C221.709 247.44 222.302 247.173 222.769 246.64C223.236 246.093 223.582 245.347 223.809 244.4C224.036 243.453 224.149 242.373 224.149 241.16C224.149 239.96 224.029 238.893 223.789 237.96C223.562 237.013 223.216 236.267 222.749 235.72C222.282 235.173 221.696 234.9 220.989 234.9C220.282 234.9 219.696 235.173 219.229 235.72C218.776 236.253 218.429 236.993 218.189 237.94C217.962 238.887 217.849 239.96 217.849 241.16C217.849 242.387 217.962 243.473 218.189 244.42C218.429 245.353 218.776 246.093 219.229 246.64C219.696 247.173 220.282 247.44 220.989 247.44Z" fill="white"/>
<path d="M60.9852 249C59.4918 249 58.3318 248.307 57.5052 246.92C56.6918 245.533 56.2852 243.613 56.2852 241.16C56.2852 239.547 56.4652 238.153 56.8252 236.98C57.1985 235.807 57.7385 234.907 58.4452 234.28C59.1518 233.653 59.9985 233.34 60.9852 233.34C61.9985 233.34 62.8518 233.66 63.5452 234.3C64.2518 234.927 64.7852 235.827 65.1452 237C65.5185 238.173 65.7052 239.56 65.7052 241.16C65.7052 242.787 65.5185 244.187 65.1452 245.36C64.7852 246.52 64.2518 247.42 63.5452 248.06C62.8518 248.687 61.9985 249 60.9852 249ZM60.9852 247.44C61.7052 247.44 62.2985 247.173 62.7652 246.64C63.2318 246.093 63.5785 245.347 63.8052 244.4C64.0318 243.453 64.1452 242.373 64.1452 241.16C64.1452 239.96 64.0252 238.893 63.7852 237.96C63.5585 237.013 63.2118 236.267 62.7452 235.72C62.2785 235.173 61.6918 234.9 60.9852 234.9C60.2785 234.9 59.6918 235.173 59.2252 235.72C58.7718 236.253 58.4252 236.993 58.1852 237.94C57.9585 238.887 57.8452 239.96 57.8452 241.16C57.8452 242.387 57.9585 243.473 58.1852 244.42C58.4252 245.353 58.7718 246.093 59.2252 246.64C59.6918 247.173 60.2785 247.44 60.9852 247.44ZM72.2909 233.36C73.1976 233.36 74.0043 233.567 74.7109 233.98C75.4176 234.38 75.9709 234.933 76.3709 235.64C76.7843 236.347 76.9909 237.153 76.9909 238.06C76.9909 238.927 76.7909 239.72 76.3909 240.44H76.4109L76.3709 240.5C76.3309 240.567 76.2909 240.633 76.2509 240.7L71.4709 248.56C71.2976 248.84 71.0643 248.98 70.7709 248.98C70.4643 248.98 70.2309 248.853 70.0709 248.6C69.9243 248.333 69.9309 248.067 70.0909 247.8L73.2309 242.68C72.9243 242.733 72.6109 242.76 72.2909 242.76C71.3976 242.76 70.5976 242.56 69.8909 242.16C69.1843 241.747 68.6243 241.187 68.2109 240.48C67.8109 239.76 67.6109 238.953 67.6109 238.06C67.6109 237.153 67.8109 236.347 68.2109 235.64C68.6243 234.933 69.1843 234.38 69.8909 233.98C70.5976 233.567 71.3976 233.36 72.2909 233.36ZM72.3109 234.8C71.6976 234.8 71.1443 234.94 70.6509 235.22C70.1709 235.5 69.7909 235.887 69.5109 236.38C69.2309 236.873 69.0909 237.433 69.0909 238.06C69.0909 238.687 69.2309 239.247 69.5109 239.74C69.7909 240.233 70.1709 240.627 70.6509 240.92C71.1443 241.2 71.6976 241.34 72.3109 241.34C72.9243 241.34 73.4709 241.2 73.9509 240.92C74.4309 240.627 74.8109 240.233 75.0909 239.74C75.3709 239.247 75.5109 238.687 75.5109 238.06C75.5109 237.433 75.3709 236.873 75.0909 236.38C74.8109 235.887 74.4309 235.5 73.9509 235.22C73.4709 234.94 72.9243 234.8 72.3109 234.8ZM79.833 250.56C79.553 250.56 79.333 250.447 79.173 250.22C79.0263 250.007 79.013 249.753 79.133 249.46L85.413 233.8C85.533 233.493 85.773 233.34 86.133 233.34C86.4263 233.34 86.6396 233.46 86.773 233.7C86.9063 233.927 86.9263 234.173 86.833 234.44L80.553 250.12C80.4863 250.28 80.3863 250.393 80.253 250.46C80.1196 250.527 79.9796 250.56 79.833 250.56ZM89.868 249C89.6546 249 89.468 248.927 89.308 248.78C89.1613 248.633 89.088 248.447 89.088 248.22C89.088 248.02 89.1613 247.84 89.308 247.68L95.368 240.52C95.7013 240.16 95.968 239.76 96.168 239.32C96.368 238.867 96.468 238.447 96.468 238.06C96.468 237.127 96.1946 236.36 95.648 235.76C95.1013 235.16 94.3946 234.86 93.528 234.86C92.968 234.86 92.4546 235.007 91.988 235.3C91.5346 235.58 91.1746 235.96 90.908 236.44C90.6546 236.92 90.528 237.46 90.528 238.06C90.528 238.273 90.4546 238.453 90.308 238.6C90.1613 238.747 89.9746 238.82 89.748 238.82C89.5346 238.82 89.348 238.747 89.188 238.6C89.0413 238.453 88.968 238.273 88.968 238.06C88.968 237.167 89.168 236.367 89.568 235.66C89.968 234.953 90.508 234.393 91.188 233.98C91.8813 233.567 92.6613 233.36 93.528 233.36C94.3946 233.36 95.1613 233.56 95.828 233.96C96.508 234.36 97.0346 234.913 97.408 235.62C97.7946 236.327 97.988 237.14 97.988 238.06C97.988 238.713 97.828 239.333 97.508 239.92C97.2013 240.493 96.8413 241.02 96.428 241.5L91.308 247.44H97.568C97.7813 247.44 97.9613 247.52 98.108 247.68C98.268 247.84 98.348 248.02 98.348 248.22C98.348 248.447 98.268 248.633 98.108 248.78C97.9613 248.927 97.7813 249 97.568 249H89.868ZM104.989 249C103.496 249 102.336 248.307 101.509 246.92C100.696 245.533 100.289 243.613 100.289 241.16C100.289 239.547 100.469 238.153 100.829 236.98C101.202 235.807 101.742 234.907 102.449 234.28C103.156 233.653 104.002 233.34 104.989 233.34C106.002 233.34 106.856 233.66 107.549 234.3C108.256 234.927 108.789 235.827 109.149 237C109.522 238.173 109.709 239.56 109.709 241.16C109.709 242.787 109.522 244.187 109.149 245.36C108.789 246.52 108.256 247.42 107.549 248.06C106.856 248.687 106.002 249 104.989 249ZM104.989 247.44C105.709 247.44 106.302 247.173 106.769 246.64C107.236 246.093 107.582 245.347 107.809 244.4C108.036 243.453 108.149 242.373 108.149 241.16C108.149 239.96 108.029 238.893 107.789 237.96C107.562 237.013 107.216 236.267 106.749 235.72C106.282 235.173 105.696 234.9 104.989 234.9C104.282 234.9 103.696 235.173 103.229 235.72C102.776 236.253 102.429 236.993 102.189 237.94C101.962 238.887 101.849 239.96 101.849 241.16C101.849 242.387 101.962 243.473 102.189 244.42C102.429 245.353 102.776 246.093 103.229 246.64C103.696 247.173 104.282 247.44 104.989 247.44Z" fill="white"/>
<path d="M67.8116 200C67.5316 200 67.2889 199.897 67.0836 199.692C66.8782 199.487 66.7756 199.225 66.7756 198.908V194.764H56.7516C56.3036 194.764 55.9769 194.568 55.7716 194.176C55.5849 193.765 55.6222 193.392 55.8836 193.056L66.9716 178.552C67.1956 178.253 67.4942 178.104 67.8676 178.104C68.1662 178.104 68.4089 178.216 68.5956 178.44C68.8009 178.645 68.9036 178.907 68.9036 179.224V192.804H71.1156C71.4142 192.804 71.6662 192.879 71.8716 193.028C72.0769 193.177 72.1796 193.439 72.1796 193.812C72.1796 194.055 72.0769 194.279 71.8716 194.484C71.6662 194.671 71.4142 194.764 71.1156 194.764H68.9036V198.908C68.9036 199.225 68.8009 199.487 68.5956 199.692C68.3902 199.897 68.1289 200 67.8116 200ZM66.7756 192.804V182.108L58.5436 192.804H66.7756ZM80.906 200C79.562 200 78.358 199.692 77.294 199.076C76.23 198.441 75.3806 197.592 74.746 196.528C74.13 195.445 73.822 194.232 73.822 192.888C73.822 192.571 73.9246 192.309 74.13 192.104C74.3353 191.899 74.5873 191.796 74.886 191.796C75.2033 191.796 75.4646 191.899 75.67 192.104C75.894 192.309 76.006 192.571 76.006 192.888C76.006 193.821 76.2206 194.661 76.65 195.408C77.0793 196.155 77.658 196.743 78.386 197.172C79.1326 197.601 79.9726 197.816 80.906 197.816C81.8393 197.816 82.6793 197.601 83.426 197.172C84.1726 196.743 84.7606 196.155 85.19 195.408C85.6193 194.661 85.834 193.821 85.834 192.888C85.834 191.955 85.6193 191.115 85.19 190.368C84.7606 189.621 84.1726 189.033 83.426 188.604C82.6793 188.175 81.8393 187.96 80.906 187.96H76.006C75.6886 187.96 75.4273 187.857 75.222 187.652C75.0166 187.428 74.914 187.167 74.914 186.868V179.196C74.914 178.897 75.0166 178.645 75.222 178.44C75.4273 178.216 75.6886 178.104 76.006 178.104H85.834C86.1326 178.104 86.3846 178.216 86.59 178.44C86.814 178.645 86.926 178.897 86.926 179.196C86.926 179.495 86.8233 179.756 86.618 179.98C86.4126 180.185 86.1513 180.288 85.834 180.288H77.07V185.776H80.906C82.2686 185.776 83.482 186.093 84.546 186.728C85.61 187.344 86.45 188.193 87.066 189.276C87.7006 190.34 88.018 191.544 88.018 192.888C88.018 194.232 87.7006 195.445 87.066 196.528C86.45 197.592 85.61 198.441 84.546 199.076C83.482 199.692 82.2686 200 80.906 200ZM98.4606 200C97.1166 200 95.9126 199.692 94.8486 199.076C93.7846 198.441 92.9353 197.592 92.3006 196.528C91.6846 195.445 91.3766 194.232 91.3766 192.888C91.3766 192.571 91.4793 192.309 91.6846 192.104C91.89 191.899 92.142 191.796 92.4406 191.796C92.758 191.796 93.0193 191.899 93.2246 192.104C93.4486 192.309 93.5606 192.571 93.5606 192.888C93.5606 193.821 93.7753 194.661 94.2046 195.408C94.634 196.155 95.2126 196.743 95.9406 197.172C96.6873 197.601 97.5273 197.816 98.4606 197.816C99.394 197.816 100.234 197.601 100.981 197.172C101.727 196.743 102.315 196.155 102.745 195.408C103.174 194.661 103.389 193.821 103.389 192.888C103.389 191.955 103.174 191.115 102.745 190.368C102.315 189.621 101.727 189.033 100.981 188.604C100.234 188.175 99.394 187.96 98.4606 187.96H93.5606C93.2433 187.96 92.982 187.857 92.7766 187.652C92.5713 187.428 92.4686 187.167 92.4686 186.868V179.196C92.4686 178.897 92.5713 178.645 92.7766 178.44C92.982 178.216 93.2433 178.104 93.5606 178.104H103.389C103.687 178.104 103.939 178.216 104.145 178.44C104.369 178.645 104.481 178.897 104.481 179.196C104.481 179.495 104.378 179.756 104.173 179.98C103.967 180.185 103.706 180.288 103.389 180.288H94.6246V185.776H98.4606C99.8233 185.776 101.037 186.093 102.101 186.728C103.165 187.344 104.005 188.193 104.621 189.276C105.255 190.34 105.573 191.544 105.573 192.888C105.573 194.232 105.255 195.445 104.621 196.528C104.005 197.592 103.165 198.441 102.101 199.076C101.037 199.692 99.8233 200 98.4606 200ZM115.511 200C114.242 200 113.113 199.72 112.123 199.16C111.134 198.581 110.35 197.797 109.771 196.808C109.211 195.819 108.931 194.689 108.931 193.42C108.931 192.207 109.211 191.096 109.771 190.088H109.743L109.799 190.004C109.855 189.911 109.911 189.817 109.967 189.724L116.659 178.72C116.902 178.328 117.229 178.132 117.639 178.132C118.069 178.132 118.386 178.319 118.591 178.692C118.815 179.047 118.815 179.411 118.591 179.784L114.195 186.952C114.625 186.877 115.063 186.84 115.511 186.84C116.762 186.84 117.882 187.129 118.871 187.708C119.861 188.268 120.635 189.052 121.195 190.06C121.774 191.049 122.063 192.169 122.063 193.42C122.063 194.689 121.774 195.819 121.195 196.808C120.635 197.797 119.861 198.581 118.871 199.16C117.882 199.72 116.762 200 115.511 200ZM115.483 197.984C116.342 197.984 117.107 197.788 117.779 197.396C118.47 197.004 119.011 196.463 119.403 195.772C119.795 195.081 119.991 194.297 119.991 193.42C119.991 192.543 119.795 191.759 119.403 191.068C119.011 190.377 118.47 189.836 117.779 189.444C117.107 189.033 116.342 188.828 115.483 188.828C114.625 188.828 113.859 189.033 113.187 189.444C112.515 189.836 111.983 190.377 111.591 191.068C111.199 191.759 111.003 192.543 111.003 193.42C111.003 194.297 111.199 195.081 111.591 195.772C111.983 196.463 112.515 197.004 113.187 197.396C113.859 197.788 114.625 197.984 115.483 197.984ZM139.929 200.14C138.623 200.14 137.447 199.86 136.401 199.3C135.375 198.721 134.563 197.937 133.965 196.948C133.368 195.959 133.069 194.839 133.069 193.588C133.069 193.271 133.163 193 133.349 192.776C133.536 192.552 133.788 192.44 134.105 192.44C134.423 192.44 134.675 192.552 134.861 192.776C135.048 193 135.141 193.271 135.141 193.588C135.141 194.447 135.347 195.221 135.757 195.912C136.168 196.584 136.728 197.125 137.437 197.536C138.165 197.928 138.968 198.124 139.845 198.124C141.301 198.124 142.44 197.723 143.261 196.92C144.083 196.099 144.493 195.044 144.493 193.756C144.493 192.841 144.297 192.048 143.905 191.376C143.513 190.685 142.981 190.153 142.309 189.78C141.637 189.388 140.881 189.192 140.041 189.192C139.743 189.192 139.491 189.089 139.285 188.884C139.08 188.679 138.977 188.417 138.977 188.1C138.977 187.801 139.08 187.549 139.285 187.344C139.491 187.139 139.743 187.036 140.041 187.036C140.695 187.036 141.292 186.877 141.833 186.56C142.393 186.224 142.841 185.785 143.177 185.244C143.513 184.703 143.681 184.105 143.681 183.452C143.681 182.463 143.345 181.641 142.673 180.988C142.001 180.316 141.105 179.98 139.985 179.98C138.809 179.98 137.839 180.316 137.073 180.988C136.308 181.641 135.925 182.453 135.925 183.424C135.925 183.741 135.823 184.012 135.617 184.236C135.431 184.441 135.188 184.544 134.889 184.544C134.572 184.544 134.32 184.441 134.133 184.236C133.947 184.012 133.853 183.751 133.853 183.452C133.853 182.425 134.115 181.501 134.637 180.68C135.179 179.84 135.907 179.187 136.821 178.72C137.736 178.235 138.791 177.992 139.985 177.992C141.068 177.992 142.039 178.235 142.897 178.72C143.775 179.187 144.465 179.84 144.969 180.68C145.492 181.501 145.753 182.425 145.753 183.452C145.753 184.087 145.595 184.703 145.277 185.3C144.979 185.897 144.577 186.439 144.073 186.924C143.569 187.391 143.019 187.755 142.421 188.016C143.859 188.445 144.923 189.192 145.613 190.256C146.304 191.32 146.649 192.487 146.649 193.756C146.649 194.988 146.351 196.089 145.753 197.06C145.175 198.012 144.372 198.768 143.345 199.328C142.319 199.869 141.18 200.14 139.929 200.14ZM156.308 200.14C155.002 200.14 153.826 199.86 152.78 199.3C151.754 198.721 150.942 197.937 150.344 196.948C149.747 195.959 149.448 194.839 149.448 193.588C149.448 193.271 149.542 193 149.728 192.776C149.915 192.552 150.167 192.44 150.484 192.44C150.802 192.44 151.054 192.552 151.24 192.776C151.427 193 151.52 193.271 151.52 193.588C151.52 194.447 151.726 195.221 152.136 195.912C152.547 196.584 153.107 197.125 153.816 197.536C154.544 197.928 155.347 198.124 156.224 198.124C157.68 198.124 158.819 197.723 159.64 196.92C160.462 196.099 160.872 195.044 160.872 193.756C160.872 192.841 160.676 192.048 160.284 191.376C159.892 190.685 159.36 190.153 158.688 189.78C158.016 189.388 157.26 189.192 156.42 189.192C156.122 189.192 155.87 189.089 155.664 188.884C155.459 188.679 155.356 188.417 155.356 188.1C155.356 187.801 155.459 187.549 155.664 187.344C155.87 187.139 156.122 187.036 156.42 187.036C157.074 187.036 157.671 186.877 158.212 186.56C158.772 186.224 159.22 185.785 159.556 185.244C159.892 184.703 160.06 184.105 160.06 183.452C160.06 182.463 159.724 181.641 159.052 180.988C158.38 180.316 157.484 179.98 156.364 179.98C155.188 179.98 154.218 180.316 153.452 180.988C152.687 181.641 152.304 182.453 152.304 183.424C152.304 183.741 152.202 184.012 151.996 184.236C151.81 184.441 151.567 184.544 151.268 184.544C150.951 184.544 150.699 184.441 150.512 184.236C150.326 184.012 150.232 183.751 150.232 183.452C150.232 182.425 150.494 181.501 151.016 180.68C151.558 179.84 152.286 179.187 153.2 178.72C154.115 178.235 155.17 177.992 156.364 177.992C157.447 177.992 158.418 178.235 159.276 178.72C160.154 179.187 160.844 179.84 161.348 180.68C161.871 181.501 162.132 182.425 162.132 183.452C162.132 184.087 161.974 184.703 161.656 185.3C161.358 185.897 160.956 186.439 160.452 186.924C159.948 187.391 159.398 187.755 158.8 188.016C160.238 188.445 161.302 189.192 161.992 190.256C162.683 191.32 163.028 192.487 163.028 193.756C163.028 194.988 162.73 196.089 162.132 197.06C161.554 198.012 160.751 198.768 159.724 199.328C158.698 199.869 157.559 200.14 156.308 200.14ZM167.367 200C167.068 200 166.807 199.897 166.583 199.692C166.378 199.487 166.275 199.225 166.275 198.908C166.275 198.628 166.378 198.376 166.583 198.152L175.067 188.128C175.534 187.624 175.907 187.064 176.187 186.448C176.467 185.813 176.607 185.225 176.607 184.684C176.607 183.377 176.224 182.304 175.459 181.464C174.694 180.624 173.704 180.204 172.491 180.204C171.707 180.204 170.988 180.409 170.335 180.82C169.7 181.212 169.196 181.744 168.823 182.416C168.468 183.088 168.291 183.844 168.291 184.684C168.291 184.983 168.188 185.235 167.983 185.44C167.778 185.645 167.516 185.748 167.199 185.748C166.9 185.748 166.639 185.645 166.415 185.44C166.21 185.235 166.107 184.983 166.107 184.684C166.107 183.433 166.387 182.313 166.947 181.324C167.507 180.335 168.263 179.551 169.215 178.972C170.186 178.393 171.278 178.104 172.491 178.104C173.704 178.104 174.778 178.384 175.711 178.944C176.663 179.504 177.4 180.279 177.923 181.268C178.464 182.257 178.735 183.396 178.735 184.684C178.735 185.599 178.511 186.467 178.063 187.288C177.634 188.091 177.13 188.828 176.551 189.5L169.383 197.816H178.147C178.446 197.816 178.698 197.928 178.903 198.152C179.127 198.376 179.239 198.628 179.239 198.908C179.239 199.225 179.127 199.487 178.903 199.692C178.698 199.897 178.446 200 178.147 200H167.367ZM189.461 200C188.117 200 186.913 199.692 185.849 199.076C184.785 198.441 183.935 197.592 183.301 196.528C182.685 195.445 182.377 194.232 182.377 192.888C182.377 192.571 182.479 192.309 182.685 192.104C182.89 191.899 183.142 191.796 183.441 191.796C183.758 191.796 184.019 191.899 184.225 192.104C184.449 192.309 184.561 192.571 184.561 192.888C184.561 193.821 184.775 194.661 185.205 195.408C185.634 196.155 186.213 196.743 186.941 197.172C187.687 197.601 188.527 197.816 189.461 197.816C190.394 197.816 191.234 197.601 191.981 197.172C192.727 196.743 193.315 196.155 193.745 195.408C194.174 194.661 194.389 193.821 194.389 192.888C194.389 191.955 194.174 191.115 193.745 190.368C193.315 189.621 192.727 189.033 191.981 188.604C191.234 188.175 190.394 187.96 189.461 187.96H184.561C184.243 187.96 183.982 187.857 183.777 187.652C183.571 187.428 183.469 187.167 183.469 186.868V179.196C183.469 178.897 183.571 178.645 183.777 178.44C183.982 178.216 184.243 178.104 184.561 178.104H194.389C194.687 178.104 194.939 178.216 195.145 178.44C195.369 178.645 195.481 178.897 195.481 179.196C195.481 179.495 195.378 179.756 195.173 179.98C194.967 180.185 194.706 180.288 194.389 180.288H185.625V185.776H189.461C190.823 185.776 192.037 186.093 193.101 186.728C194.165 187.344 195.005 188.193 195.621 189.276C196.255 190.34 196.573 191.544 196.573 192.888C196.573 194.232 196.255 195.445 195.621 196.528C195.005 197.592 194.165 198.441 193.101 199.076C192.037 199.692 190.823 200 189.461 200ZM214.63 200.112C213.38 200.112 212.26 199.823 211.27 199.244C210.281 198.647 209.497 197.844 208.918 196.836C208.358 195.828 208.078 194.689 208.078 193.42C208.078 192.151 208.377 191.021 208.974 190.032C209.59 189.043 210.412 188.277 211.438 187.736C210.748 187.269 210.206 186.663 209.814 185.916C209.422 185.151 209.226 184.301 209.226 183.368C209.226 182.379 209.46 181.483 209.926 180.68C210.393 179.877 211.037 179.243 211.858 178.776C212.68 178.309 213.604 178.076 214.63 178.076C215.657 178.057 216.581 178.281 217.402 178.748C218.224 179.196 218.868 179.831 219.334 180.652C219.801 181.455 220.025 182.36 220.006 183.368C220.006 184.301 219.801 185.141 219.39 185.888C218.998 186.635 218.466 187.251 217.794 187.736C218.821 188.259 219.633 189.024 220.23 190.032C220.846 191.021 221.154 192.151 221.154 193.42C221.136 194.689 220.837 195.828 220.258 196.836C219.698 197.844 218.924 198.647 217.934 199.244C216.964 199.823 215.862 200.112 214.63 200.112ZM214.63 186.84C215.564 186.84 216.338 186.504 216.954 185.832C217.589 185.16 217.916 184.329 217.934 183.34C217.953 182.407 217.645 181.632 217.01 181.016C216.376 180.381 215.582 180.064 214.63 180.064C213.678 180.064 212.885 180.381 212.25 181.016C211.634 181.632 211.317 182.407 211.298 183.34C211.28 184.329 211.588 185.16 212.222 185.832C212.857 186.504 213.66 186.84 214.63 186.84ZM214.63 198.152C215.452 198.152 216.189 197.947 216.842 197.536C217.496 197.107 218.009 196.537 218.382 195.828C218.774 195.119 218.97 194.316 218.97 193.42C218.97 192.561 218.784 191.796 218.41 191.124C218.037 190.433 217.524 189.892 216.87 189.5C216.217 189.108 215.47 188.912 214.63 188.912C213.79 188.912 213.044 189.108 212.39 189.5C211.737 189.892 211.214 190.433 210.822 191.124C210.449 191.796 210.262 192.561 210.262 193.42C210.262 194.316 210.449 195.119 210.822 195.828C211.196 196.537 211.709 197.107 212.362 197.536C213.034 197.947 213.79 198.152 214.63 198.152ZM231.816 200C230.472 200 229.268 199.692 228.204 199.076C227.14 198.441 226.291 197.592 225.656 196.528C225.04 195.445 224.732 194.232 224.732 192.888C224.732 192.571 224.835 192.309 225.04 192.104C225.245 191.899 225.497 191.796 225.796 191.796C226.113 191.796 226.375 191.899 226.58 192.104C226.804 192.309 226.916 192.571 226.916 192.888C226.916 193.821 227.131 194.661 227.56 195.408C227.989 196.155 228.568 196.743 229.296 197.172C230.043 197.601 230.883 197.816 231.816 197.816C232.749 197.816 233.589 197.601 234.336 197.172C235.083 196.743 235.671 196.155 236.1 195.408C236.529 194.661 236.744 193.821 236.744 192.888C236.744 191.955 236.529 191.115 236.1 190.368C235.671 189.621 235.083 189.033 234.336 188.604C233.589 188.175 232.749 187.96 231.816 187.96H226.916C226.599 187.96 226.337 187.857 226.132 187.652C225.927 187.428 225.824 187.167 225.824 186.868V179.196C225.824 178.897 225.927 178.645 226.132 178.44C226.337 178.216 226.599 178.104 226.916 178.104H236.744C237.043 178.104 237.295 178.216 237.5 178.44C237.724 178.645 237.836 178.897 237.836 179.196C237.836 179.495 237.733 179.756 237.528 179.98C237.323 180.185 237.061 180.288 236.744 180.288H227.98V185.776H231.816C233.179 185.776 234.392 186.093 235.456 186.728C236.52 187.344 237.36 188.193 237.976 189.276C238.611 190.34 238.928 191.544 238.928 192.888C238.928 194.232 238.611 195.445 237.976 196.528C237.36 197.592 236.52 198.441 235.456 199.076C234.392 199.692 233.179 200 231.816 200ZM248.279 178.104C249.548 178.104 250.677 178.393 251.667 178.972C252.656 179.532 253.431 180.307 253.991 181.296C254.569 182.285 254.859 183.415 254.859 184.684C254.859 185.897 254.579 187.008 254.019 188.016H254.047L253.991 188.1C253.935 188.193 253.879 188.287 253.823 188.38L247.131 199.384C246.888 199.776 246.561 199.972 246.151 199.972C245.721 199.972 245.395 199.795 245.171 199.44C244.965 199.067 244.975 198.693 245.199 198.32L249.595 191.152C249.165 191.227 248.727 191.264 248.279 191.264C247.028 191.264 245.908 190.984 244.919 190.424C243.929 189.845 243.145 189.061 242.567 188.072C242.007 187.064 241.727 185.935 241.727 184.684C241.727 183.415 242.007 182.285 242.567 181.296C243.145 180.307 243.929 179.532 244.919 178.972C245.908 178.393 247.028 178.104 248.279 178.104ZM248.307 180.12C247.448 180.12 246.673 180.316 245.983 180.708C245.311 181.1 244.779 181.641 244.387 182.332C243.995 183.023 243.799 183.807 243.799 184.684C243.799 185.561 243.995 186.345 244.387 187.036C244.779 187.727 245.311 188.277 245.983 188.688C246.673 189.08 247.448 189.276 248.307 189.276C249.165 189.276 249.931 189.08 250.603 188.688C251.275 188.277 251.807 187.727 252.199 187.036C252.591 186.345 252.787 185.561 252.787 184.684C252.787 183.807 252.591 183.023 252.199 182.332C251.807 181.641 251.275 181.1 250.603 180.708C249.931 180.316 249.165 180.12 248.307 180.12ZM264.662 200C262.571 200 260.947 199.029 259.79 197.088C258.651 195.147 258.082 192.459 258.082 189.024C258.082 186.765 258.334 184.815 258.838 183.172C259.36 181.529 260.116 180.269 261.106 179.392C262.095 178.515 263.28 178.076 264.662 178.076C266.08 178.076 267.275 178.524 268.246 179.42C269.235 180.297 269.982 181.557 270.486 183.2C271.008 184.843 271.27 186.784 271.27 189.024C271.27 191.301 271.008 193.261 270.486 194.904C269.982 196.528 269.235 197.788 268.246 198.684C267.275 199.561 266.08 200 264.662 200ZM264.662 197.816C265.67 197.816 266.5 197.443 267.154 196.696C267.807 195.931 268.292 194.885 268.61 193.56C268.927 192.235 269.086 190.723 269.086 189.024C269.086 187.344 268.918 185.851 268.582 184.544C268.264 183.219 267.779 182.173 267.126 181.408C266.472 180.643 265.651 180.26 264.662 180.26C263.672 180.26 262.851 180.643 262.198 181.408C261.563 182.155 261.078 183.191 260.742 184.516C260.424 185.841 260.266 187.344 260.266 189.024C260.266 190.741 260.424 192.263 260.742 193.588C261.078 194.895 261.563 195.931 262.198 196.696C262.851 197.443 263.672 197.816 264.662 197.816ZM289.281 200.14C287.974 200.14 286.798 199.86 285.753 199.3C284.726 198.721 283.914 197.937 283.317 196.948C282.72 195.959 282.421 194.839 282.421 193.588C282.421 193.271 282.514 193 282.701 192.776C282.888 192.552 283.14 192.44 283.457 192.44C283.774 192.44 284.026 192.552 284.213 192.776C284.4 193 284.493 193.271 284.493 193.588C284.493 194.447 284.698 195.221 285.109 195.912C285.52 196.584 286.08 197.125 286.789 197.536C287.517 197.928 288.32 198.124 289.197 198.124C290.653 198.124 291.792 197.723 292.613 196.92C293.434 196.099 293.845 195.044 293.845 193.756C293.845 192.841 293.649 192.048 293.257 191.376C292.865 190.685 292.333 190.153 291.661 189.78C290.989 189.388 290.233 189.192 289.393 189.192C289.094 189.192 288.842 189.089 288.637 188.884C288.432 188.679 288.329 188.417 288.329 188.1C288.329 187.801 288.432 187.549 288.637 187.344C288.842 187.139 289.094 187.036 289.393 187.036C290.046 187.036 290.644 186.877 291.185 186.56C291.745 186.224 292.193 185.785 292.529 185.244C292.865 184.703 293.033 184.105 293.033 183.452C293.033 182.463 292.697 181.641 292.025 180.988C291.353 180.316 290.457 179.98 289.337 179.98C288.161 179.98 287.19 180.316 286.425 180.988C285.66 181.641 285.277 182.453 285.277 183.424C285.277 183.741 285.174 184.012 284.969 184.236C284.782 184.441 284.54 184.544 284.241 184.544C283.924 184.544 283.672 184.441 283.485 184.236C283.298 184.012 283.205 183.751 283.205 183.452C283.205 182.425 283.466 181.501 283.989 180.68C284.53 179.84 285.258 179.187 286.173 178.72C287.088 178.235 288.142 177.992 289.337 177.992C290.42 177.992 291.39 178.235 292.249 178.72C293.126 179.187 293.817 179.84 294.321 180.68C294.844 181.501 295.105 182.425 295.105 183.452C295.105 184.087 294.946 184.703 294.629 185.3C294.33 185.897 293.929 186.439 293.425 186.924C292.921 187.391 292.37 187.755 291.773 188.016C293.21 188.445 294.274 189.192 294.965 190.256C295.656 191.32 296.001 192.487 296.001 193.756C296.001 194.988 295.702 196.089 295.105 197.06C294.526 198.012 293.724 198.768 292.697 199.328C291.67 199.869 290.532 200.14 289.281 200.14ZM300.703 200C300.404 200 300.143 199.897 299.919 199.692C299.713 199.487 299.611 199.225 299.611 198.908C299.611 198.759 299.685 198.525 299.835 198.208L308.179 180.288H298.547C298.229 180.288 297.959 180.185 297.735 179.98C297.529 179.756 297.427 179.495 297.427 179.196C297.427 178.897 297.529 178.645 297.735 178.44C297.959 178.216 298.229 178.104 298.547 178.104H309.943C310.241 178.104 310.493 178.216 310.699 178.44C310.904 178.645 311.007 178.897 311.007 179.196C311.007 179.289 310.988 179.392 310.951 179.504C310.913 179.597 310.876 179.691 310.839 179.784L301.683 199.384C301.477 199.795 301.151 200 300.703 200ZM318.484 200.14C317.177 200.14 316.001 199.86 314.956 199.3C313.929 198.721 313.117 197.937 312.52 196.948C311.923 195.959 311.624 194.839 311.624 193.588C311.624 193.271 311.717 193 311.904 192.776C312.091 192.552 312.343 192.44 312.66 192.44C312.977 192.44 313.229 192.552 313.416 192.776C313.603 193 313.696 193.271 313.696 193.588C313.696 194.447 313.901 195.221 314.312 195.912C314.723 196.584 315.283 197.125 315.992 197.536C316.72 197.928 317.523 198.124 318.4 198.124C319.856 198.124 320.995 197.723 321.816 196.92C322.637 196.099 323.048 195.044 323.048 193.756C323.048 192.841 322.852 192.048 322.46 191.376C322.068 190.685 321.536 190.153 320.864 189.78C320.192 189.388 319.436 189.192 318.596 189.192C318.297 189.192 318.045 189.089 317.84 188.884C317.635 188.679 317.532 188.417 317.532 188.1C317.532 187.801 317.635 187.549 317.84 187.344C318.045 187.139 318.297 187.036 318.596 187.036C319.249 187.036 319.847 186.877 320.388 186.56C320.948 186.224 321.396 185.785 321.732 185.244C322.068 184.703 322.236 184.105 322.236 183.452C322.236 182.463 321.9 181.641 321.228 180.988C320.556 180.316 319.66 179.98 318.54 179.98C317.364 179.98 316.393 180.316 315.628 180.988C314.863 181.641 314.48 182.453 314.48 183.424C314.48 183.741 314.377 184.012 314.172 184.236C313.985 184.441 313.743 184.544 313.444 184.544C313.127 184.544 312.875 184.441 312.688 184.236C312.501 184.012 312.408 183.751 312.408 183.452C312.408 182.425 312.669 181.501 313.192 180.68C313.733 179.84 314.461 179.187 315.376 178.72C316.291 178.235 317.345 177.992 318.54 177.992C319.623 177.992 320.593 178.235 321.452 178.72C322.329 179.187 323.02 179.84 323.524 180.68C324.047 181.501 324.308 182.425 324.308 183.452C324.308 184.087 324.149 184.703 323.832 185.3C323.533 185.897 323.132 186.439 322.628 186.924C322.124 187.391 321.573 187.755 320.976 188.016C322.413 188.445 323.477 189.192 324.168 190.256C324.859 191.32 325.204 192.487 325.204 193.756C325.204 194.988 324.905 196.089 324.308 197.06C323.729 198.012 322.927 198.768 321.9 199.328C320.873 199.869 319.735 200.14 318.484 200.14ZM329.543 200C329.244 200 328.983 199.897 328.759 199.692C328.554 199.487 328.451 199.225 328.451 198.908C328.451 198.628 328.554 198.376 328.759 198.152L337.243 188.128C337.71 187.624 338.083 187.064 338.363 186.448C338.643 185.813 338.783 185.225 338.783 184.684C338.783 183.377 338.4 182.304 337.635 181.464C336.87 180.624 335.88 180.204 334.667 180.204C333.883 180.204 333.164 180.409 332.511 180.82C331.876 181.212 331.372 181.744 330.999 182.416C330.644 183.088 330.467 183.844 330.467 184.684C330.467 184.983 330.364 185.235 330.159 185.44C329.954 185.645 329.692 185.748 329.375 185.748C329.076 185.748 328.815 185.645 328.591 185.44C328.386 185.235 328.283 184.983 328.283 184.684C328.283 183.433 328.563 182.313 329.123 181.324C329.683 180.335 330.439 179.551 331.391 178.972C332.362 178.393 333.454 178.104 334.667 178.104C335.88 178.104 336.954 178.384 337.887 178.944C338.839 179.504 339.576 180.279 340.099 181.268C340.64 182.257 340.911 183.396 340.911 184.684C340.911 185.599 340.687 186.467 340.239 187.288C339.81 188.091 339.306 188.828 338.727 189.5L331.559 197.816H340.323C340.622 197.816 340.874 197.928 341.079 198.152C341.303 198.376 341.415 198.628 341.415 198.908C341.415 199.225 341.303 199.487 341.079 199.692C340.874 199.897 340.622 200 340.323 200H329.543Z" fill="white"/>
<path d="M87.4219 123.652H96.2109V128.535H87.4219V123.652Z" fill="white"/>
<path d="M63.789 131.465H72.5781V136.348H63.789V131.465Z" fill="white"/>
<path d="M63.789 123.652H72.5781V128.535H63.789V123.652Z" fill="white"/>
<path d="M75.5078 125.605H84.4922V134.394H75.5078V125.605Z" fill="white"/>
<path d="M87.4219 131.465H96.2109V136.348H87.4219V131.465Z" fill="white"/>
<path d="M74.0429 120.723C74.8519 120.723 75.5078 121.378 75.5078 122.187V122.676H78.5351V119.258C78.5351 118.869 78.6894 118.497 78.9642 118.222L79.3933 117.793H63.789V120.723H74.0429Z" fill="white"/>
<path d="M81.4648 119.865V122.676H84.4922V122.187C84.4922 121.378 85.148 120.723 85.957 120.723H96.2109V117.793H83.5364L81.4648 119.865Z" fill="white"/>
<path d="M85.957 139.277C85.1481 139.277 84.4922 138.621 84.4922 137.813V137.324H81.4649V140.742C81.4649 141.131 81.3106 141.503 81.0358 141.778L80.6068 142.207H96.2109V139.277H85.957Z" fill="white"/>
<path d="M78.5351 140.135V137.324H75.5078V137.813C75.5078 138.621 74.8519 139.277 74.0429 139.277H63.789V142.207H76.4635L78.5351 140.135Z" fill="white"/>
<path d="M97.6758 109.004H62.3242C58.2856 109.004 55 112.29 55 116.328V143.672C55 147.71 58.2856 150.996 62.3242 150.996H97.6758C101.714 150.996 105 147.71 105 143.672V116.328C105 112.29 101.714 109.004 97.6758 109.004ZM99.1406 143.672C99.1406 144.481 98.4848 145.137 97.6758 145.137H62.3242C61.5152 145.137 60.8594 144.481 60.8594 143.672V116.328C60.8594 115.519 61.5152 114.863 62.3242 114.863H97.6758C98.4848 114.863 99.1406 115.519 99.1406 116.328V143.672Z" fill="white"/>
<defs>
<filter id="filter0_bd_3_33" x="-39" y="-40" width="618" height="428" filterUnits="userSpaceOnUse" color-interpolation-filters="sRGB">
<feFlood flood-opacity="0" result="BackgroundImageFix"/>
<feGaussianBlur in="BackgroundImage" stdDeviation="27"/>
<feComposite in2="SourceAlpha" operator="in" result="effect1_backgroundBlur_3_33"/>
<feColorMatrix in="SourceAlpha" type="matrix" values="0 0 0 0 0 0 0 0 0 0 0 0 0 0 0 0 0 0 127 0" result="hardAlpha"/>
<feOffset dx="5" dy="6"/>
<feGaussianBlur stdDeviation="10"/>
<feComposite in2="hardAlpha" operator="out"/>
<feColorMatrix type="matrix" values="0 0 0 0 0 0 0 0 0 0 0 0 0 0 0 0 0 0 0.15 0"/>
<feBlend mode="normal" in2="effect1_backgroundBlur_3_33" result="effect2_dropShadow_3_33"/>
<feBlend mode="normal" in="SourceGraphic" in2="effect2_dropShadow_3_33" result="shape"/>
</filter>
<linearGradient id="paint0_linear_3_33" x1="-3.49999" y1="14" x2="551.5" y2="363.5" gradientUnits="userSpaceOnUse">
<stop stop-color="white"/>
<stop offset="0.842434" stop-color="white" stop-opacity="0.17"/>
</linearGradient>
</defs>
</svg>
